SplineFontDB: 3.0
FontName: Mukti
FullName: Mukti
FamilyName: Mukti
Weight: Medium
Copyright: GNU GPL (c) Mukta Bangla Font Project 2003-18 Free Software. For detail licence agreement see www.gnu.org/licences/gpl.txt\n\nAs a special exception, if you create a document which uses this font, and embed this font or unaltered portions of this font into the document, this font does not by itself cause the resulting document to be covered by the GNU General Public License. This exception does not however invalidate any other reasons why the document might be covered by the GNU General Public License. If you modify this font, you may extend this exception to your version of the font, but you are not obligated to do so. If you do not wish to do so, delete this exception statement from your version.1
Version: 2.1 October 1, 2018
ItalicAngle: 0
UnderlinePosition: -340
UnderlineWidth: 150
Ascent: 1638
Descent: 410
InvalidEm: 0
sfntRevision: 0x0001fd70
LayerCount: 2
Layer: 0 0 "Back" 1
Layer: 1 0 "Fore" 0
XUID: [1021 162 -509335450 15531263]
StyleMap: 0x0000
FSType: 0
OS2Version: 3
OS2_WeightWidthSlopeOnly: 0
OS2_UseTypoMetrics: 0
CreationTime: 1138213189
ModificationTime: 1537543834
PfmFamily: 81
TTFWeight: 500
TTFWidth: 5
LineGap: 0
VLineGap: 0
Panose: 0 0 0 0 0 0 0 0 0 0
OS2TypoAscent: 2542
OS2TypoAOffset: 0
OS2TypoDescent: 898
OS2TypoDOffset: 0
OS2TypoLinegap: 0
OS2WinAscent: 2542
OS2WinAOffset: 0
OS2WinDescent: 898
OS2WinDOffset: 0
HheadAscent: 2169
HheadAOffset: 0
HheadDescent: -525
HheadDOffset: 0
OS2SubXSize: 1331
OS2SubYSize: 1433
OS2SubXOff: 0
OS2SubYOff: 286
OS2SupXSize: 1331
OS2SupYSize: 1433
OS2SupXOff: 0
OS2SupYOff: 983
OS2StrikeYSize: 102
OS2StrikeYPos: 530
OS2CapHeight: 1493
OS2XHeight: 1073
OS2Vendor: 'PfEd'
OS2CodePages: 00000001.80000000
OS2UnicodeRanges: 80018003.00002002.00000000.00000000
Lookup: 1 0 0 "'init' Initial Forms in Bengali lookup 0" { "'init' Initial Forms in Bengali lookup 0 subtable"  } ['init' ('beng' <'dflt' > ) ]

StartChar: .notdef
Encoding: 65536 -1 0
Width: 1024
Flags: MW
HStem: 0 102<204 820 204 922> 990 102<204 820 204 204>
VStem: 102 102<102 102 102 990> 820 102<102 990 990 990>
LayerCount: 2
Fore
SplineSet
102 0 m 1
 102 1092 l 1
 922 1092 l 1
 922 0 l 1
 102 0 l 1
204 102 m 1
 820 102 l 1
 820 990 l 1
 204 990 l 1
 204 102 l 1
EndSplineSet
EndChar

StartChar: exclam
Encoding: 33 33 3
Width: 507
GlyphClass: 2
Flags: W
LayerCount: 2
Fore
SplineSet
363 1493 m 1
 363 801 l 1
 318 344 l 1
 238 344 l 1
 193 801 l 1
 193 1493 l 1
 363 1493 l 1
363 213 m 1
 363 0 l 1
 191 0 l 1
 191 213 l 1
 363 213 l 1
EndSplineSet
EndChar

StartChar: quotedbl
Encoding: 34 34 4
Width: 727
GlyphClass: 2
Flags: W
LayerCount: 2
Fore
SplineSet
106 1452 m 1
 297 1452 l 1
 297 1225 l 1
 242 950 l 1
 162 950 l 1
 106 1225 l 1
 106 1452 l 1
434 1452 m 1
 625 1452 l 1
 625 1225 l 1
 569 950 l 1
 489 950 l 1
 434 1225 l 1
 434 1452 l 1
EndSplineSet
EndChar

StartChar: numbersign
Encoding: 35 35 5
Width: 1138
GlyphClass: 2
Flags: W
LayerCount: 2
Fore
SplineSet
992 1427 m 1
 919 1026 l 1
 1109 1026 l 1
 1109 887 l 1
 892 887 l 1
 828 530 l 1
 1043 530 l 1
 1043 391 l 1
 804 391 l 1
 724 -41 l 1
 568 -41 l 1
 646 391 l 1
 392 391 l 1
 312 -41 l 1
 157 -41 l 1
 235 391 l 1
 28 391 l 1
 28 530 l 1
 261 530 l 1
 325 887 l 1
 103 887 l 1
 103 1026 l 1
 351 1026 l 1
 425 1427 l 1
 581 1427 l 1
 507 1026 l 1
 763 1026 l 1
 835 1427 l 1
 992 1427 l 1
736 887 m 1
 482 887 l 1
 417 530 l 1
 673 530 l 1
 736 887 l 1
EndSplineSet
EndChar

StartChar: dollar
Encoding: 36 36 6
Width: 1138
GlyphClass: 2
Flags: W
LayerCount: 2
Fore
SplineSet
502 1577 m 1
 622.001953125 1576.99902344 l 1
 622.001953125 1465.99902344 l 1
 792.668945312 1453.99902344 910.3359375 1385.33203125 975.002929688 1259.99902344 c 0
 1005.00292969 1203.99902344 1020.00292969 1138.33203125 1020.00292969 1062.99902344 c 1
 858.002929688 1062.99902344 l 1
 856.669921875 1168.33203125 817.002929688 1243.99902344 739.002929688 1289.99902344 c 0
 707.002929688 1309.33203125 668.002929688 1320.33203125 622.002929688 1322.99902344 c 1
 622.002929688 812.999023438 l 1
 741.3359375 781.666015625 831.002929688 748.999023438 891.002929688 714.999023438 c 0
 1005.66992188 648.999023438 1063.66992188 543.666015625 1065.00292969 398.999023438 c 1
 1060.3359375 226.999023438 997.3359375 102.33203125 876.002929688 24.9990234375 c 0
 809.3359375 -15.0009765625 724.668945312 -39.0009765625 622.001953125 -47.0009765625 c 1
 622.001953125 -258.000976562 l 1
 502.001953125 -258.000976562 l 1
 502.001953125 -47.0009765625 l 1
 291.334960938 -33.66796875 156.66796875 52.9990234375 98.0009765625 212.999023438 c 0
 79.6962890625 264.370117188 70.5439453125 321.233398438 70.5439453125 383.587890625 c 0
 70.5439453125 391.633789062 70.6962890625 399.770507812 71.0009765625 407.999023438 c 0
 71.0009765625 413.999023438 71.333984375 419.999023438 72.0009765625 425.999023438 c 1
 233.000976562 425.999023438 l 1
 240.000976562 370.999023438 l 2
 248.000976562 289.666015625 263.000976562 236.333007812 285.000976562 211 c 0
 332.333984375 145.666992188 404.666992188 106.666992188 502 94 c 1
 502 651 l 1
 374.666992188 689.666992188 288.666992188 725.333984375 244 758.000976562 c 0
 146.666992188 827.333984375 98 927.000976562 98 1057.00097656 c 0
 98 1256.33398438 193.666992188 1384.66699219 385 1442 c 0
 420.333007812 1452.66699219 459.333007812 1460.66699219 502 1466 c 1
 502 1577 l 1
502.001953125 828.999023438 m 1
 502.000976562 1321 l 1
 370.66796875 1303 293.334960938 1242.33300781 270.001953125 1139 c 1
 264.001953125 1077 l 1
 264.001953125 954.333007812 343.334960938 871.666015625 502.001953125 828.999023438 c 1
622.000976562 633 m 1
 622.000976562 94 l 1
 705.333984375 104 768.333984375 129.333007812 811.000976562 170 c 0
 868.333984375 224.666992188 897.000976562 293 897.000976562 375 c 0
 897.000976562 458.333007812 865.000976562 520.333007812 801.000976562 561 c 0
 761.000976562 585.666992188 701.333984375 609.666992188 622.000976562 633 c 1
EndSplineSet
EndChar

StartChar: percent
Encoding: 37 37 7
Width: 1820
GlyphClass: 2
Flags: W
LayerCount: 2
Fore
SplineSet
408 1403 m 0
 522.666992188 1403 614.666992188 1357.99902344 684 1267.99902344 c 0
 733.3671875 1210.1875 758.05078125 1139.40039062 758.05078125 1055.63867188 c 0
 758.05078125 1053.43457031 758.034179688 1051.22167969 758 1048.99902344 c 0
 758 940.999023438 715 851.999023438 629 781.999023438 c 0
 564.333007812 728.666015625 491.333007812 701.999023438 410 701.999023438 c 0
 299.333007812 701.999023438 208.333007812 744.999023438 137 830.999023438 c 0
 85 895.666015625 59 969.666015625 59 1052.99902344 c 0
 59 1163.66601562 102 1254.33300781 188 1325 c 0
 252.666992188 1377 326 1403 408 1403 c 0
408 1259.99902344 m 0
 334 1259.99902344 276.668945312 1228.33300781 236.001953125 1165 c 1
 233.001953125 1165 l 1
 211.668945312 1131 201.001953125 1093.66699219 201.001953125 1053 c 0
 201.001953125 980.333007812 231.668945312 923 293.001953125 881 c 0
 328.334960938 857.666992188 367.334960938 846 410.001953125 846 c 0
 483.334960938 846 540.66796875 876.666992188 582.000976562 938 c 0
 604.66796875 972 616.000976562 1009.66699219 616.000976562 1051 c 0
 616.000976562 1128.33300781 583.333984375 1187.66601562 518.000976562 1228.99902344 c 0
 485.333984375 1249.66601562 448.666992188 1259.99902344 408 1259.99902344 c 0
1247.00195312 1452 m 1
 1382.00195312 1452 l 1
 573.001953125 -41 l 1
 438.001953125 -41 l 1
 1247.00195312 1452 l 1
1409.00195312 659 m 0
 1525.00195312 659 1618.00292969 614 1688.00292969 524 c 0
 1735.3359375 461.333007812 1759.00292969 389 1759.00292969 307 c 0
 1759.00292969 199 1716.00292969 110.333007812 1630.00292969 41 c 0
 1566.00292969 -12.3330078125 1493.00292969 -39 1411.00292969 -39 c 0
 1300.3359375 -39 1209.66894531 4 1139.00195312 90 c 0
 1087.00195312 154 1061.00195312 227.666992188 1061.00195312 311 c 0
 1061.00195312 421.666992188 1104.66894531 512 1192.00195312 582 c 0
 1256.00195312 633.333007812 1328.33496094 659 1409.00195312 659 c 0
1409.00292969 516 m 0
 1335.00292969 516 1277.66992188 485.331054688 1237.00292969 423.998046875 c 0
 1213.66992188 389.998046875 1202.00292969 352.331054688 1202.00292969 310.998046875 c 0
 1201.98828125 309.857421875 1201.98046875 308.720703125 1201.98046875 307.588867188 c 0
 1201.98046875 257.772460938 1216.32128906 216.2421875 1245.00292969 182.998046875 c 0
 1259.66992188 165.665039062 1278.00292969 150.33203125 1300.00292969 136.999023438 c 0
 1300.00292969 135.666015625 1301.00292969 134.999023438 1303.00292969 134.999023438 c 1
 1303.00292969 133.666015625 1303.66992188 132.999023438 1305.00292969 132.999023438 c 0
 1337.66992188 113.666015625 1373.00292969 103.999023438 1411.00292969 103.999023438 c 0
 1485.00292969 103.999023438 1542.3359375 134.999023438 1583.00292969 196.999023438 c 0
 1606.3359375 229.666015625 1618.00292969 266.333007812 1618.00292969 307 c 0
 1618.00292969 385 1585.3359375 444.333007812 1520.00292969 485 c 0
 1497.3359375 500.333007812 1471.3359375 510 1442.00292969 514 c 0
 1436.66992188 514 1425.66992188 514.666992188 1409.00292969 516 c 0
EndSplineSet
EndChar

StartChar: ampersand
Encoding: 38 38 8
Width: 1313
GlyphClass: 2
Flags: W
LayerCount: 2
Fore
SplineSet
531 883 m 1
 619.666992188 939 678.33203125 985.999023438 706.999023438 1023.99902344 c 0
 730.33203125 1056.66601562 741.999023438 1093.66601562 741.999023438 1134.99902344 c 0
 741.999023438 1205.66601562 710.999023438 1256.66601562 648.999023438 1287.99902344 c 0
 623.666015625 1301.99902344 594.999023438 1308.99902344 562.999023438 1308.99902344 c 0
 481.666015625 1308.99902344 427.333007812 1274.66601562 400 1205.99902344 c 0
 391.333007812 1184.66601562 387 1160.33300781 387 1133 c 0
 387.666992188 1096.33300781 394.666992188 1066 408 1042 c 0
 424 1010.66699219 465 957.666992188 531 883 c 1
802.998046875 280.999023438 m 1
 474.998046875 689.999023438 l 1
 376.998046875 627.33203125 310.331054688 571.33203125 274.998046875 521.999023438 c 0
 242.331054688 478.666015625 225.998046875 429.666015625 225.998046875 374.999023438 c 0
 225.998046875 286.33203125 262.665039062 215.999023438 335.998046875 163.999023438 c 0
 383.998046875 129.999023438 436.665039062 112.999023438 493.998046875 112.999023438 c 0
 537.331054688 112.999023438 578.998046875 120.999023438 618.998046875 136.999023438 c 0
 674.998046875 161.666015625 736.331054688 209.666015625 802.998046875 280.999023438 c 1
218.998046875 1129.99902344 m 2
 222.998046875 1080.99902344 l 2
 220.331054688 1095.66601562 218.998046875 1111.99902344 218.998046875 1129.99902344 c 2
218.998046875 1129.99902344 m 1
 218.998046875 1233.99902344 262.665039062 1317.99707031 349.998046875 1381.99707031 c 0
 414.665039062 1428.6640625 487.998046875 1451.99707031 569.998046875 1451.99707031 c 0
 571.341796875 1452.0078125 572.681640625 1452.01367188 574.018554688 1452.01367188 c 0
 655.541992188 1452.01367188 722.868164062 1432.00878906 775.997070312 1391.99804688 c 0
 797.997070312 1375.99804688 817.6640625 1356.66503906 834.997070312 1333.99804688 c 2
 847.997070312 1314.99804688 l 2
 884.6640625 1262.99804688 902.997070312 1201.33105469 902.997070312 1129.99804688 c 0
 902.997070312 1037.33105469 867.6640625 958.998046875 796.997070312 894.998046875 c 0
 755.6640625 858.331054688 696.997070312 817.998046875 620.997070312 773.998046875 c 1
 892.997070312 439.998046875 l 1
 913.6640625 477.331054688 929.997070312 519.6640625 941.997070312 566.997070312 c 0
 952.137695312 605.172851562 957.208007812 640.413085938 957.208007812 672.717773438 c 0
 957.208007812 676.518554688 957.137695312 680.278320312 956.997070312 683.998046875 c 2
 1120.99707031 683.998046875 l 1
 1120.99707031 557.331054688 1081.33007812 432.331054688 1001.99707031 308.998046875 c 1
 1251.99707031 -0.001953125 l 1
 1027.99707031 -0.001953125 l 1
 900.997070312 159.998046875 l 1
 839.6640625 101.331054688 792.6640625 60.3310546875 759.997070312 36.998046875 c 0
 681.997070312 -17.001953125 586.330078125 -45.001953125 472.997070312 -47.001953125 c 0
 314.997070312 -47.001953125 197.6640625 8.998046875 120.997070312 120.998046875 c 0
 75.6640625 187.665039062 52.9970703125 267.33203125 52.9970703125 359.999023438 c 0
 53.6640625 479.999023438 95.9970703125 577.666015625 179.997070312 652.999023438 c 0
 226.6640625 696.999023438 294.997070312 744.999023438 384.997070312 796.999023438 c 1
 289.6640625 916.999023438 234.331054688 1027.99902344 218.998046875 1129.99902344 c 1
EndSplineSet
EndChar

StartChar: quotesingle
Encoding: 39 39 9
Width: 391
GlyphClass: 2
Flags: W
LayerCount: 2
Fore
SplineSet
98 1452 m 1
 291 1452 l 1
 291 1225 l 1
 236 950 l 1
 154 950 l 1
 98 1225 l 1
 98 1452 l 1
EndSplineSet
EndChar

StartChar: parenleft
Encoding: 40 40 10
Width: 681
GlyphClass: 2
Flags: W
LayerCount: 2
Fore
SplineSet
314 530 m 0
 314 193.333007812 407.666992188 -127.999023438 595 -433.999023438 c 1
 482 -433.999023438 l 1
 340 -248.666015625 241.666992188 -34.3330078125 187 209 c 0
 161.666992188 319.666992188 149 426.666992188 149 530 c 0
 149 635.333007812 162.333007812 744.666015625 189 857.999023438 c 0
 245 1098.66601562 342.666992188 1310.33300781 482 1493 c 1
 595 1493 l 1
 462.333007812 1278.33300781 376.333007812 1046.33300781 337 797 c 0
 321.666992188 708.333007812 314 619.333007812 314 530 c 0
EndSplineSet
EndChar

StartChar: parenright
Encoding: 41 41 11
Width: 681
GlyphClass: 2
Flags: W
LayerCount: 2
Fore
SplineSet
189 -434 m 1
 77 -434.000976562 l 1
 209 -220.000976562 295 11.9990234375 335 261.999023438 c 0
 349.666992188 350.666015625 357 439.333007812 357 528 c 0
 357 866.666992188 263.666992188 1188.33398438 77 1493.00097656 c 1
 189 1493.00097656 l 1
 331 1307.00097656 429.333007812 1092.66796875 484 850.000976562 c 0
 510 739.333984375 523 632.000976562 523 528.000976562 c 0
 523 423.333984375 509.333007812 314.333984375 482 201.000976562 c 0
 426 -39.666015625 328.333007812 -251.333007812 189 -434 c 1
EndSplineSet
EndChar

StartChar: asterisk
Encoding: 42 42 12
Width: 796
GlyphClass: 2
Flags: W
LayerCount: 2
Fore
SplineSet
327 1493 m 1
 456 1493 l 1
 445 1264 l 1
 663 1341 l 1
 701 1221 l 1
 480 1159 l 1
 624 977 l 1
 519 903 l 1
 392 1094 l 1
 263 903 l 1
 161 977 l 1
 302 1159 l 1
 81 1221 l 1
 120 1341 l 1
 337 1264 l 1
 327 1493 l 1
EndSplineSet
EndChar

StartChar: plus
Encoding: 43 43 13
Width: 1196
GlyphClass: 2
Flags: W
LayerCount: 2
Fore
SplineSet
1094 547 m 1
 1094 403 l 1
 670 403 l 1
 670 -20 l 1
 526 -20 l 1
 526 403 l 1
 102 403 l 1
 102 547 l 1
 526 547 l 1
 526 971 l 1
 670 971 l 1
 670 547 l 1
 1094 547 l 1
EndSplineSet
EndChar

StartChar: comma
Encoding: 44 44 14
Width: 622
GlyphClass: 2
Flags: W
LayerCount: 2
Fore
SplineSet
349 332 m 0
 435 308.666992188 478.000976562 259.3359375 478.000976562 184.002929688 c 0
 478.000976562 151.3359375 469.333984375 118.668945312 452.000976562 86.001953125 c 1
 418.66796875 1.3349609375 359.66796875 -72.33203125 275.000976562 -134.999023438 c 1
 243.66796875 -136.999023438 222.66796875 -130.666015625 212.000976562 -115.999023438 c 0
 206.66796875 -108.666015625 204.000976562 -99.3330078125 204.000976562 -88 c 0
 204.000976562 -78.6669921875 206.66796875 -68.333984375 212.000976562 -57.0009765625 c 1
 239.333984375 -38.333984375 271.333984375 -7.0009765625 308.000976562 36.9990234375 c 0
 357.333984375 95.666015625 382.000976562 141.999023438 382.000976562 175.999023438 c 0
 382.000976562 201.999023438 367.000976562 219.666015625 337.000976562 228.999023438 c 0
 325.000976562 232.999023438 311.66796875 234.666015625 297.000976562 233.999023438 c 0
 294.333984375 233.33203125 291.333984375 232.999023438 288.000976562 232.999023438 c 0
 255.333984375 230.33203125 238.333984375 228.999023438 237.000976562 228.999023438 c 0
 211.000976562 238.999023438 198.000976562 256.33203125 198.000976562 280.999023438 c 0
 198.000976562 300.999023438 208.000976562 316.666015625 228.000976562 327.999023438 c 1
 273.333984375 332.666015625 308.666992188 334.333007812 334 333 c 0
 339.333007812 333 344.333007812 332.666992188 349 332 c 0
EndSplineSet
EndChar

StartChar: hyphen
Encoding: 45 45 15
AltUni2: 0000ad.ffffffff.0
Width: 681
GlyphClass: 2
Flags: W
LayerCount: 2
Fore
SplineSet
582 639 m 1
 582 492 l 1
 94 492 l 1
 94 639 l 1
 582 639 l 1
EndSplineSet
EndChar

StartChar: period
Encoding: 46 46 16
Width: 569
GlyphClass: 2
Flags: W
LayerCount: 2
Fore
SplineSet
391 213 m 1
 391 0 l 1
 178 0 l 1
 178 213 l 1
 391 213 l 1
EndSplineSet
EndChar

StartChar: slash
Encoding: 47 47 17
AltUni2: 002044.ffffffff.0
Width: 569
GlyphClass: 2
Flags: W
LayerCount: 2
Fore
SplineSet
469 1493 m 1
 582 1493 l 1
 96 -41 l 1
 -16 -41 l 1
 469 1493 l 1
EndSplineSet
EndChar

StartChar: zero
Encoding: 48 48 18
Width: 1138
GlyphClass: 2
Flags: W
LayerCount: 2
Fore
SplineSet
563 1452 m 2
 703.666992188 1452 813.666992188 1400.66699219 893 1298 c 0
 894.333007812 1295.33300781 895.666015625 1293.33300781 896.999023438 1292 c 0
 990.999023438 1164 1037.99902344 963.333007812 1037.99902344 690 c 0
 1037.99902344 320 943.999023438 88 755.999023438 -6 c 0
 698.666015625 -33.3330078125 634.333007812 -47 563 -47 c 0
 323 -47 173.666992188 100.333007812 115 395 c 0
 97 483.666992188 88 586 88 702 c 0
 88 1180.66699219 237 1430.66699219 535 1452 c 1
 563 1452 l 2
563 1292 m 0
 369 1292 272 1094.66796875 272 700.000976562 c 0
 272 301.333984375 367.666992188 102.000976562 559 102.000976562 c 0
 720.333007812 102.000976562 815.333007812 233.333984375 844 496.000976562 c 0
 850.666992188 557.333984375 854 627.666992188 854 707 c 0
 854 1097 757 1292 563 1292 c 0
EndSplineSet
EndChar

StartChar: one
Encoding: 49 49 19
Width: 944
GlyphClass: 2
Flags: W
LayerCount: 2
Fore
SplineSet
470 1034 m 1
 149 1033.99902344 l 1
 149 1162.99902344 l 1
 282.333007812 1179.66601562 374.333007812 1205.66601562 425 1240.99902344 c 0
 461 1269.66601562 491 1322.33300781 515 1399 c 2
 532 1452 l 1
 651 1452 l 1
 651 0 l 1
 470 0 l 1
 470 1034 l 1
EndSplineSet
EndChar

StartChar: two
Encoding: 50 50 20
Width: 1138
GlyphClass: 2
Flags: W
LayerCount: 2
Fore
SplineSet
1035 178 m 1
 1035.00097656 0 l 1
 69.0009765625 0 l 1
 78.333984375 174.666992188 117.000976562 307.666992188 185.000976562 399 c 0
 244.333984375 474.333007812 341.333984375 551 476.000976562 629 c 2
 665.000976562 735 l 2
 794.333984375 809 859.666992188 904.666992188 861 1022 c 0
 861 1120 820 1195.66699219 738 1249 c 0
 690.666992188 1279 636 1294 574 1294 c 0
 472 1294 393.666992188 1255.33300781 339 1178 c 0
 334.333007812 1169.33300781 329.666015625 1161 324.999023438 1153 c 0
 301.666015625 1109 287.333007812 1040.66699219 282 948 c 1
 101 948 l 1
 105.666992188 1084.66699219 131.666992188 1190 179 1264 c 0
 261 1389.33300781 395 1452 581 1452 c 0
 715.666992188 1452 825.333984375 1413.66699219 910.000976562 1337 c 0
 1000.66796875 1257 1046.00097656 1153.33300781 1046.00097656 1026 c 0
 1046.00097656 846 943.333984375 700 738.000976562 588 c 2
 534.000976562 477 l 2
 461.333984375 435 406.666992188 396 370 360 c 0
 315.333007812 310 282.333007812 249.333007812 271 178 c 1
 1035 178 l 1
EndSplineSet
EndChar

StartChar: three
Encoding: 51 51 21
Width: 1138
GlyphClass: 2
Flags: W
LayerCount: 2
Fore
SplineSet
452 666 m 1
 451.998046875 819 l 1
 566.665039062 820.333007812 646.33203125 830.666015625 690.999023438 849.999023438 c 0
 767.666015625 881.33203125 806.666015625 946.999023438 807.999023438 1046.99902344 c 0
 807.999023438 1162.99902344 760.33203125 1239.33203125 664.999023438 1275.99902344 c 0
 631.666015625 1287.99902344 593.999023438 1293.99902344 551.999023438 1293.99902344 c 0
 445.33203125 1293.99902344 368.33203125 1257.99902344 320.999023438 1185.99902344 c 1
 317.999023438 1183.99902344 l 1
 290.666015625 1138.66601562 276.333007812 1071.66601562 275 982.999023438 c 1
 95 982.999023438 l 1
 100.333007812 1269.66601562 230 1425.33300781 484 1450 c 1
 550 1452 l 1
 740 1452 870.333007812 1388.66699219 941 1262 c 0
 975 1203.33300781 992 1133.66601562 992 1052.99902344 c 0
 992 904.999023438 924.666992188 804.666015625 790 751.999023438 c 1
 916.666992188 707.999023438 993.666992188 633.999023438 1021 529.999023438 c 0
 1030.33300781 494.666015625 1035 453.333007812 1035 406 c 0
 1035 238 971 113 843 31 c 0
 761 -21 661.333007812 -47 544 -47 c 0
 342 -47 203.333007812 23.3330078125 128 164 c 0
 92.6669921875 229.333007812 71.6669921875 315.333007812 65 422 c 1
 245 422 l 1
 255.666992188 242 332.666992188 141 476 119 c 0
 499.333007812 115 524 113 550 113 c 0
 692 113 784.666992188 166.666992188 828 274 c 0
 843.333007812 311.333007812 851 354.333007812 851 403 c 0
 851 579.666992188 750.666992188 668 550 668 c 0
 518 666.666992188 485.333007812 666 452 666 c 1
EndSplineSet
EndChar

StartChar: four
Encoding: 52 52 22
Width: 1138
GlyphClass: 2
Flags: W
LayerCount: 2
Fore
SplineSet
670 348 m 1
 57 348 l 1
 57 539 l 1
 717 1452 l 1
 850 1452 l 1
 850 510 l 1
 1065 510 l 1
 1065 348 l 1
 850 348 l 1
 850 0 l 1
 670 0 l 1
 670 348 l 1
670 510 m 1
 670 1145 l 1
 215 510 l 1
 670 510 l 1
EndSplineSet
EndChar

StartChar: five
Encoding: 53 53 23
Width: 1138
GlyphClass: 2
Flags: W
LayerCount: 2
Fore
SplineSet
974 1452 m 1
 973.999023438 1273.99902344 l 1
 369.999023438 1273.99902344 l 1
 311.999023438 867.999023438 l 1
 385.33203125 924.666015625 474.999023438 953.999023438 580.999023438 955.999023438 c 0
 744.33203125 955.999023438 869.665039062 896.666015625 956.998046875 777.999023438 c 0
 1018.99804688 694.666015625 1049.99804688 592.999023438 1049.99804688 472.999023438 c 0
 1049.99804688 296.999023438 990.331054688 159.666015625 870.998046875 60.9990234375 c 0
 783.665039062 -11.0009765625 677.33203125 -47.0009765625 551.999023438 -47.0009765625 c 0
 400.666015625 -47.0009765625 280.666015625 -1.333984375 191.999023438 89.9990234375 c 0
 129.999023438 152.666015625 89.666015625 241.333007812 70.9990234375 356 c 1
 250.999023438 356 l 1
 292.999023438 194 391.999023438 113 547.999023438 113 c 0
 685.999023438 113 780.999023438 168.333007812 832.999023438 279 c 0
 854.33203125 326.333007812 864.999023438 383 864.999023438 449 c 0
 864.999023438 597.666992188 813.33203125 700.666992188 709.999023438 758 c 0
 663.33203125 784 609.33203125 797 547.999023438 797 c 0
 465.999023438 797 397.666015625 773 342.999023438 725 c 0
 323.666015625 708.333007812 303.333007812 687.333007812 282 662 c 1
 116 662 l 1
 224 1452 l 1
 974 1452 l 1
EndSplineSet
EndChar

StartChar: six
Encoding: 54 54 24
Width: 1138
GlyphClass: 2
Flags: W
LayerCount: 2
Fore
SplineSet
1020 1073 m 1
 840.001953125 1072.99902344 l 1
 809.334960938 1218.99902344 728.001953125 1291.99902344 596.001953125 1291.99902344 c 0
 444.668945312 1291.99902344 345.668945312 1193.66601562 299.001953125 996.999023438 c 0
 281.001953125 923.666015625 272.001953125 838.333007812 272.001953125 741 c 1
 351.334960938 849 462.66796875 903 606.000976562 903 c 0
 758.000976562 903 876.333984375 846.333007812 961.000976562 733 c 0
 1021.00097656 652.333007812 1051.00097656 555.333007812 1051.00097656 442 c 0
 1051.00097656 280 995.000976562 152.333007812 883.000976562 59 c 0
 798.333984375 -11.6669921875 695.666992188 -47 575 -47 c 0
 413 -47 291.666992188 13 211 133 c 0
 131.666992188 253 90.6669921875 421.666992188 88 639 c 2
 88 662 l 2
 88 914 131.666992188 1108.33300781 219 1245 c 0
 311 1383 440.666992188 1452 608 1452 c 0
 765.333007812 1452 881.333007812 1388.66699219 956 1262 c 0
 988 1208.66699219 1009.33300781 1145.66699219 1020 1073 c 1
584.001953125 742.999023438 m 0
 468.001953125 742.999023438 382.66796875 697.999023438 328.000976562 607.999023438 c 0
 298.000976562 560.666015625 283.000976562 503.999023438 283.000976562 437.999023438 c 0
 283.000976562 320.666015625 324.66796875 230.666015625 408.000976562 167.999023438 c 0
 456.66796875 131.33203125 513.334960938 112.999023438 578.001953125 112.999023438 c 0
 681.334960938 112.999023438 760.334960938 155.999023438 815.001953125 241.999023438 c 0
 849.001953125 295.33203125 866.001953125 357.33203125 866.001953125 427.999023438 c 0
 866.001953125 567.33203125 817.668945312 662.33203125 721.001953125 712.999023438 c 0
 681.668945312 732.999023438 636.001953125 742.999023438 584.001953125 742.999023438 c 0
EndSplineSet
EndChar

StartChar: seven
Encoding: 55 55 25
Width: 1138
GlyphClass: 2
Flags: W
LayerCount: 2
Fore
SplineSet
1065 1452 m 1
 1065 1300 l 1
 946.333007812 1142 846.666015625 988.666992188 765.999023438 840 c 0
 622.666015625 574.666992188 525.666015625 294.666992188 474.999023438 0 c 1
 282.999023438 0 l 1
 379.666015625 443.333007812 578.333007812 868 879 1274 c 1
 94 1274 l 1
 94 1452 l 1
 1065 1452 l 1
EndSplineSet
EndChar

StartChar: eight
Encoding: 56 56 26
Width: 1138
GlyphClass: 2
Flags: W
LayerCount: 2
Fore
SplineSet
800 764 m 1
 965.333007812 684.666992188 1048.66601562 563.66796875 1049.99902344 401.000976562 c 0
 1049.99902344 248.333984375 990.999023438 130.333984375 872.999023438 47.0009765625 c 0
 786.999023438 -15.666015625 683.33203125 -46.9990234375 561.999023438 -46.9990234375 c 0
 392.666015625 -46.9990234375 262.333007812 9.0009765625 171 121.000976562 c 0
 107 199.000976562 75 293.000976562 75 403.000976562 c 0
 75 564.333984375 157.666992188 684.666992188 323 764 c 1
 288.333007812 786 259.666015625 806.333007812 236.999023438 825 c 0
 168.33203125 882.333007812 131.33203125 953.333007812 125.999023438 1038 c 1
 125.999023438 1065 l 2
 125.999023438 1200.33300781 181.33203125 1304 291.999023438 1376 c 0
 367.33203125 1426.66699219 457.33203125 1452 561.999023438 1452 c 0
 720.666015625 1452 840.333007812 1400 921 1296 c 0
 972.333007812 1232 998 1155 998 1065 c 0
 998 972.333007812 967.333007812 897.333007812 906 840 c 2
 880 817 l 1
 800 764 l 1
562 1292.00097656 m 0
 451.333007812 1291.33398438 375.66796875 1251.00097656 335.000976562 1171.00097656 c 0
 318.333984375 1139.66796875 310.000976562 1103.66796875 310.000976562 1063.00097656 c 0
 310.000976562 967.66796875 351.66796875 900.66796875 435.000976562 862.000976562 c 0
 472.333984375 844.66796875 514.666992188 836.000976562 562 836.000976562 c 0
 671.333007812 836.000976562 746.333007812 874.66796875 787 952.000976562 c 0
 789 952.000976562 790 952.66796875 790 954.000976562 c 0
 806 984.000976562 814 1019.66796875 814 1061.00097656 c 0
 814 1163.00097656 769.666992188 1232.66796875 681 1270.00097656 c 0
 647 1284.66796875 607.333007812 1292.00097656 562 1292.00097656 c 0
562.001953125 684.000976562 m 0
 440.668945312 684.000976562 353.333984375 640.333984375 300.000976562 553.000976562 c 0
 272.66796875 509.000976562 259.000976562 457.66796875 259.000976562 399.000976562 c 0
 259.000976562 287.000976562 304.000976562 205.333984375 394.000976562 154.000976562 c 0
 440.66796875 126.66796875 495.334960938 113.000976562 558.001953125 113.000976562 c 0
 682.001953125 113.000976562 770.668945312 157.333984375 824.001953125 246.000976562 c 0
 851.334960938 289.333984375 865.001953125 340.333984375 865.001953125 399.000976562 c 0
 865.001953125 511.000976562 819.334960938 593.000976562 728.001953125 645.000976562 c 0
 680.001953125 671.000976562 624.668945312 684.000976562 562.001953125 684.000976562 c 0
EndSplineSet
EndChar

StartChar: nine
Encoding: 57 57 27
Width: 1138
GlyphClass: 2
Flags: W
LayerCount: 2
Fore
SplineSet
108 332 m 1
 288 332.000976562 l 1
 318.666992188 186.000976562 399.666992188 113.000976562 531 113.000976562 c 0
 683 113.000976562 782 211.333984375 828 408.000976562 c 0
 846 481.333984375 855 566.666992188 855 664 c 1
 767.666992188 558.666992188 657 504.666992188 523 502 c 0
 370.333007812 502 251.666015625 558.666992188 166.999023438 672 c 0
 106.999023438 752.666992188 76.9990234375 849.666992188 76.9990234375 963 c 0
 76.9990234375 1125 132.999023438 1252.66699219 244.999023438 1346 c 0
 329.666015625 1416.66699219 431.999023438 1452 551.999023438 1452 c 0
 714.666015625 1452 836.999023438 1392 918.999023438 1272 c 0
 997.666015625 1152 1038.33300781 983.333007812 1041 766 c 2
 1041 743 l 2
 1041 491 996.666992188 296.666992188 908 160 c 0
 836 49.3330078125 733.666992188 -17.6669921875 601 -41 c 1
 519 -47 l 1
 362.333007812 -47 246.333007812 16.3330078125 171 143 c 0
 139.666992188 197.666992188 118.666992188 260.666992188 108 332 c 1
550 1294.00097656 m 0
 445.333007812 1292.66796875 365.333984375 1248.33300781 310.000976562 1161 c 0
 277.333984375 1109 261.000976562 1047.66699219 261.000976562 977 c 0
 261.000976562 837.666992188 309.66796875 742.666992188 407.000976562 692 c 0
 446.333984375 672 492.000976562 662 544.000976562 662 c 0
 657.333984375 662 742.000976562 706.333007812 798.000976562 795 c 0
 829.333984375 843.666992188 845.000976562 901 845.000976562 967 c 0
 845.000976562 1085.66699219 803.333984375 1176.33398438 720.000976562 1239.00097656 c 0
 669.333984375 1275.66796875 612.666992188 1294.00097656 550 1294.00097656 c 0
EndSplineSet
EndChar

StartChar: colon
Encoding: 58 58 28
Width: 503
GlyphClass: 2
Flags: W
LayerCount: 2
Fore
SplineSet
276 459 m 0
 250 459 227.999023438 468.666992188 209.999023438 488 c 0
 192.666015625 506.666992188 183.999023438 529 183.999023438 555 c 0
 183.999023438 578.333007812 193.33203125 598.666015625 211.999023438 615.999023438 c 0
 230.666015625 633.999023438 252.666015625 642.999023438 277.999023438 642.999023438 c 0
 302.666015625 642.999023438 323.333007812 633.999023438 340 615.999023438 c 0
 356 598.666015625 364 578.333007812 364 555 c 0
 364 529 355.5 506.5 338.5 487.5 c 0
 321.5 468.5 300.666992188 459 276 459 c 0
275.999023438 -12 m 0
 249.999023438 -12 227.998046875 -2.6669921875 209.998046875 16 c 0
 192.665039062 35.3330078125 183.998046875 58 183.998046875 84 c 0
 183.998046875 107.333007812 193.331054688 128 211.998046875 146 c 0
 230.665039062 163.333007812 252.665039062 172 277.998046875 172 c 0
 302.665039062 172 323.33203125 163.333007812 339.999023438 146 c 0
 355.999023438 128 363.999023438 107.333007812 363.999023438 84 c 0
 363.999023438 58 355.499023438 35.5 338.499023438 16.5 c 0
 321.499023438 -2.5 300.666015625 -12 275.999023438 -12 c 0
EndSplineSet
EndChar

StartChar: semicolon
Encoding: 59 59 29
Width: 700
GlyphClass: 2
Flags: W
LayerCount: 2
Fore
SplineSet
426 244 m 0
 514.666992188 224.666992188 558.999023438 175.331054688 558.999023438 95.998046875 c 0
 558.999023438 42.6650390625 535.999023438 -17.3349609375 489.999023438 -84.001953125 c 0
 449.999023438 -141.334960938 404.666015625 -187.66796875 353.999023438 -223.000976562 c 1
 322.666015625 -225.000976562 301.666015625 -218.000976562 290.999023438 -202.000976562 c 0
 285.666015625 -194.66796875 282.999023438 -184.66796875 282.999023438 -172.000976562 c 0
 282.999023438 -164.000976562 284.999023438 -154.333984375 288.999023438 -143.000976562 c 1
 313.666015625 -128.333984375 346.333007812 -96.333984375 387 -47.0009765625 c 0
 436.333007812 12.9990234375 461 59.9990234375 461 93.9990234375 c 0
 461 130.666015625 432.333007812 147.666015625 375 144.999023438 c 2
 367 144.999023438 l 1
 317 140.999023438 l 1
 288.333007812 152.33203125 274 170.33203125 274 194.999023438 c 0
 274 213.666015625 284.333007812 228.666015625 305 239.999023438 c 1
 349 244.666015625 384.333007812 246.333007812 411 245 c 0
 416.333007812 245 421.333007812 244.666992188 426 244 c 0
355.999023438 458.997070312 m 0
 329.999023438 458.997070312 307.998046875 468.6640625 289.998046875 487.997070312 c 0
 272.665039062 506.6640625 263.998046875 528.997070312 263.998046875 554.997070312 c 0
 263.998046875 578.330078125 273.331054688 598.663085938 291.998046875 615.99609375 c 0
 310.665039062 633.99609375 332.665039062 642.99609375 357.998046875 642.99609375 c 0
 382.665039062 642.99609375 403.33203125 633.99609375 419.999023438 615.99609375 c 0
 435.999023438 598.663085938 443.999023438 578.330078125 443.999023438 554.997070312 c 0
 443.999023438 528.997070312 435.499023438 506.497070312 418.499023438 487.497070312 c 0
 401.499023438 468.497070312 380.666015625 458.997070312 355.999023438 458.997070312 c 0
EndSplineSet
EndChar

StartChar: less
Encoding: 60 60 30
Width: 1196
GlyphClass: 2
Flags: W
LayerCount: 2
Fore
SplineSet
92 406 m 1
 92 547 l 1
 1094 971 l 1
 1094 809 l 1
 287 479 l 1
 1094 143 l 1
 1094 -18 l 1
 92 406 l 1
EndSplineSet
EndChar

StartChar: equal
Encoding: 61 61 31
Width: 1196
GlyphClass: 2
Flags: W
LayerCount: 2
Fore
SplineSet
1094 723 m 1
 1094 580 l 1
 102 580 l 1
 102 723 l 1
 1094 723 l 1
1094 371 m 1
 1094 227 l 1
 102 227 l 1
 102 371 l 1
 1094 371 l 1
EndSplineSet
EndChar

StartChar: greater
Encoding: 62 62 32
Width: 1196
GlyphClass: 2
Flags: W
LayerCount: 2
Fore
SplineSet
1104 547 m 1
 1104 406 l 1
 102 -18 l 1
 102 143 l 1
 909 473 l 1
 102 809 l 1
 102 971 l 1
 1104 547 l 1
EndSplineSet
EndChar

StartChar: question
Encoding: 63 63 33
Width: 1138
GlyphClass: 2
Flags: W
LayerCount: 2
Fore
SplineSet
675 408 m 1
 490.999023438 408 l 1
 490.999023438 520 l 1
 496.999023438 608 522.666015625 676.333007812 567.999023438 725 c 0
 573.33203125 732.333007812 578.999023438 739 584.999023438 745 c 2
 703.999023438 854 l 2
 805.999023438 944 856.999023438 1034 856.999023438 1124 c 0
 856.999023438 1220 815.33203125 1288.33300781 731.999023438 1329 c 1
 729.999023438 1329 l 1
 690.666015625 1348.33300781 645.666015625 1358 594.999023438 1358 c 0
 482.999023438 1358 406.666015625 1318.33300781 365.999023438 1239 c 0
 342.666015625 1192.33300781 330.999023438 1125.33300781 330.999023438 1038 c 1
 156.999023438 1038 l 1
 156.999023438 1326 279.666015625 1484.33300781 524.999023438 1513 c 1
 604.999023438 1518 l 1
 777.666015625 1517.33300781 902.666015625 1460 979.999023438 1346 c 0
 1018.66601562 1282 1038.99902344 1208 1040.99902344 1124 c 0
 1040.99902344 1060 1027.33203125 1002 999.999023438 950 c 0
 971.33203125 894 916.999023438 830 836.999023438 758 c 0
 753.666015625 680 704.333007812 623.333007812 689 588 c 2
 681 567 l 1
 675 517.666992188 673 464.666992188 675 408 c 1
674.999023438 213 m 1
 674.999023438 0 l 1
 490.999023438 0 l 1
 490.999023438 213 l 1
 674.999023438 213 l 1
EndSplineSet
EndChar

StartChar: at
Encoding: 64 64 34
Width: 2078
GlyphClass: 2
Flags: W
LayerCount: 2
Fore
SplineSet
1361 1026 m 1
 1531.00097656 1026 l 1
 1347.00097656 453 l 2
 1330.33398438 406.333007812 1322.00097656 372 1322.00097656 350 c 0
 1322.00097656 313.333007812 1341.66796875 286 1381.00097656 268 c 1
 1383.00097656 268 l 1
 1395.66796875 262.666992188 1409.33496094 260 1424.00195312 260 c 0
 1511.33496094 260 1591.33496094 309.333007812 1664.00195312 408 c 0
 1733.33496094 504.666992188 1768.00195312 612.333984375 1768.00195312 731.000976562 c 0
 1768.00195312 895.000976562 1702.00195312 1037.66796875 1570.00195312 1159.00097656 c 0
 1434.66894531 1285.00097656 1271.3359375 1352.00097656 1080.00292969 1360.00097656 c 1
 1048.00292969 1360.00097656 l 2
 847.3359375 1360.00097656 669.668945312 1290.33398438 515.001953125 1151.00097656 c 1
 452.001953125 1087.00097656 l 1
 312.668945312 933.000976562 243.001953125 757.000976562 243.001953125 559.000976562 c 0
 243.001953125 366.333984375 314.668945312 204.000976562 458.001953125 72.0009765625 c 0
 605.334960938 -64.666015625 789.66796875 -132.999023438 1011.00097656 -132.999023438 c 0
 1119.00097656 -132.999023438 1250.66796875 -111.33203125 1406.00097656 -67.9990234375 c 1
 1463.00097656 -204.999023438 l 1
 1308.33398438 -262.33203125 1154.00097656 -290.999023438 1000.00097656 -290.999023438 c 0
 754.66796875 -290.999023438 542.66796875 -217.999023438 364.000976562 -71.9990234375 c 0
 167.333984375 89.333984375 69.0009765625 289.333984375 69.0009765625 528.000976562 c 1
 71.0009765625 580.000976562 l 2
 84.333984375 843.333984375 191.333984375 1067.66699219 392.000976562 1253 c 0
 539.333984375 1387 715.666992188 1471 921 1505 c 0
 969 1511.66699219 1020 1516 1074 1518 c 0
 1300.66699219 1518 1498 1449 1666 1311 c 0
 1853.33300781 1159 1947 974 1947 756 c 1
 1943 684 l 1
 1926.33300781 542 1869 413.666992188 1771 299 c 0
 1667 177.666992188 1540 117 1390 117 c 0
 1258.66699219 117 1183.33398438 169.333007812 1164.00097656 274 c 1
 1072.00097656 176 975.000976562 127 873.000976562 127 c 0
 761.66796875 127 673.66796875 174 609.000976562 268 c 0
 563.000976562 334 540.000976562 412 540.000976562 502 c 0
 540.000976562 650.666992188 593.66796875 782.333984375 701.000976562 897.000976562 c 0
 806.333984375 1010.33398438 928.000976562 1067.66699219 1066.00097656 1069 c 0
 1179.33398438 1069 1262.66699219 1009.66699219 1316 891 c 1
 1361 1026 l 1
1054.00097656 938 m 0
 964.000976562 938 884.669921875 889.666992188 816.002929688 793 c 0
 754.669921875 707 724.002929688 609.333007812 724.002929688 500 c 0
 723.3359375 437.333007812 737.668945312 385.666015625 767.001953125 344.999023438 c 0
 781.668945312 324.999023438 800.001953125 307.666015625 822.001953125 292.999023438 c 0
 853.334960938 269.666015625 888.334960938 257.999023438 927.001953125 257.999023438 c 0
 1006.33496094 257.999023438 1076.00195312 302.33203125 1136.00195312 390.999023438 c 0
 1169.33496094 442.999023438 1196.66796875 508.666015625 1218.00097656 587.999023438 c 0
 1235.33398438 647.999023438 1244.66699219 698.999023438 1246 740.999023438 c 0
 1248.66699219 790.999023438 1236.66699219 832.33203125 1210 864.999023438 c 0
 1196.66699219 881.666015625 1179.33398438 896.333007812 1158.00097656 909 c 0
 1126.66796875 928.333007812 1092.00097656 938 1054.00097656 938 c 0
EndSplineSet
EndChar

StartChar: A
Encoding: 65 65 35
Width: 1366
GlyphClass: 2
Flags: W
LayerCount: 2
Fore
SplineSet
970 449 m 1
 394 449 l 1
 237 0 l 1
 34 0 l 1
 566 1493 l 1
 812 1493 l 1
 1336 0 l 1
 1123 0 l 1
 970 449 l 1
917 608 m 1
 687 1288 l 1
 441 608 l 1
 917 608 l 1
EndSplineSet
EndChar

StartChar: B
Encoding: 66 66 36
Width: 1366
GlyphClass: 2
Flags: W
LayerCount: 2
Fore
SplineSet
161 0 m 1
 160.999023438 1493.00097656 l 1
 766.999023438 1493.00097656 l 2
 907.666015625 1493.00097656 1015.66601562 1458.33398438 1090.99902344 1389.00097656 c 0
 1169.66601562 1319.00097656 1208.99902344 1227.33398438 1208.99902344 1114.00097656 c 0
 1208.99902344 961.333984375 1140.33203125 852.666992188 1002.99902344 788 c 1
 1177.66601562 720.666992188 1268.33300781 609 1275 453 c 1
 1275 426 l 2
 1275 306 1236.66699219 205.666992188 1160 125 c 0
 1084 41.6669921875 975.666992188 0 835 0 c 2
 161 0 l 1
1018.99902344 1087.00097656 m 0
 1018.99902344 1245.66796875 919.33203125 1325.00097656 719.999023438 1325.00097656 c 2
 350.999023438 1325.00097656 l 1
 350.999023438 850.000976562 l 1
 719.999023438 850.000976562 l 2
 919.33203125 850.000976562 1018.99902344 929.000976562 1018.99902344 1087.00097656 c 0
350.999023438 168.000976562 m 1
 816 168.001953125 l 2
 903.333007812 168.001953125 969.666015625 192.001953125 1014.99902344 240.001953125 c 0
 1060.99902344 287.334960938 1083.99902344 348.66796875 1083.99902344 424.000976562 c 0
 1083.99902344 499.333984375 1060.99902344 561.333984375 1014.99902344 610.000976562 c 0
 970.999023438 658.000976562 904.666015625 682.000976562 815.999023438 682.000976562 c 2
 350.999023438 682.000976562 l 1
 350.999023438 168.000976562 l 1
EndSplineSet
EndChar

StartChar: C
Encoding: 67 67 37
Width: 1478
GlyphClass: 2
Flags: W
LayerCount: 2
Fore
SplineSet
1356 1030 m 1
 1161.00097656 1029.99804688 l 1
 1140.33398438 1132.66503906 1104.33398438 1207.66503906 1053.00097656 1254.99804688 c 0
 988.333984375 1315.66503906 890.000976562 1347.33203125 758.000976562 1349.99902344 c 0
 583.333984375 1349.99902344 454.333984375 1271.33203125 371.000976562 1113.99902344 c 0
 316.333984375 1011.99902344 289.000976562 884.33203125 289.000976562 730.999023438 c 0
 289.000976562 498.999023438 353.66796875 328.999023438 483.000976562 220.999023438 c 0
 563.66796875 154.33203125 660.66796875 120.999023438 774.000976562 120.999023438 c 0
 922.66796875 120.999023438 1032.00097656 173.666015625 1102.00097656 278.999023438 c 0
 1140.66796875 330.999023438 1170.00097656 419.666015625 1190.00097656 544.999023438 c 1
 1386.00097656 544.999023438 l 1
 1341.33398438 150.33203125 1136.66699219 -47.0009765625 772 -47.0009765625 c 0
 579.333007812 -47.0009765625 427 10.9990234375 315 126.999023438 c 0
 170.333007812 275.666015625 98 476.333007812 98 729 c 0
 98 979 167.666992188 1179.66699219 307 1331 c 0
 419 1455.66699219 576.666992188 1518 780 1518 c 0
 1105.33300781 1518 1297.33300781 1355.33300781 1356 1030 c 1
EndSplineSet
EndChar

StartChar: D
Encoding: 68 68 38
Width: 1478
GlyphClass: 2
Flags: W
LayerCount: 2
Fore
SplineSet
182 0 m 1
 181.999023438 1492.99902344 l 1
 757.999023438 1492.99902344 l 2
 980.666015625 1492.99902344 1145.66601562 1402.99902344 1252.99902344 1222.99902344 c 0
 1254.33203125 1221.66601562 1254.99902344 1220.33300781 1254.99902344 1219 c 0
 1328.99902344 1094.33300781 1365.99902344 937.333007812 1365.99902344 748 c 0
 1365.99902344 462 1286.66601562 254.333007812 1127.99902344 125 c 0
 1028.66601562 41.6669921875 905.333007812 0 758 0 c 2
 182 0 l 1
372.999023438 167.999023438 m 1
 724.999023438 167.999023438 l 2
 962.33203125 167.999023438 1106.33203125 291.666015625 1156.99902344 538.999023438 c 0
 1169.66601562 600.33203125 1175.99902344 668.999023438 1175.99902344 744.999023438 c 0
 1175.99902344 1080.99902344 1060.99902344 1270.99902344 830.999023438 1314.99902344 c 0
 796.999023438 1321.66601562 761.666015625 1324.99902344 724.999023438 1324.99902344 c 2
 372.999023438 1324.99902344 l 1
 372.999023438 167.999023438 l 1
EndSplineSet
EndChar

StartChar: E
Encoding: 69 69 39
Width: 1366
GlyphClass: 2
Flags: W
LayerCount: 2
Fore
SplineSet
375 680 m 1
 375 168 l 1
 1255 168 l 1
 1255 0 l 1
 184 0 l 1
 184 1493 l 1
 1219 1493 l 1
 1219 1325 l 1
 375 1325 l 1
 375 848 l 1
 1188 848 l 1
 1188 680 l 1
 375 680 l 1
EndSplineSet
EndChar

StartChar: F
Encoding: 70 70 40
Width: 1251
GlyphClass: 2
Flags: W
LayerCount: 2
Fore
SplineSet
375 680 m 1
 375 0 l 1
 184 0 l 1
 184 1493 l 1
 1186 1493 l 1
 1186 1325 l 1
 375 1325 l 1
 375 848 l 1
 1087 848 l 1
 1087 680 l 1
 375 680 l 1
EndSplineSet
EndChar

StartChar: G
Encoding: 71 71 41
Width: 1593
GlyphClass: 2
Flags: W
LayerCount: 2
Fore
SplineSet
1452 788 m 1
 1452.00195312 -8 l 1
 1331.00195312 -8 l 1
 1284.00195312 190 l 1
 1142.00195312 32 972.001953125 -47 774.001953125 -47 c 0
 565.334960938 -47 396.66796875 30.6669921875 268.000976562 186 c 0
 149.333984375 328 90.0009765625 509.666992188 90.0009765625 731 c 0
 90.0009765625 971.666992188 159.66796875 1167 299.000976562 1317 c 0
 424.333984375 1451 593.666992188 1518 807 1518 c 0
 1051.66699219 1518 1229 1437.33300781 1339 1276 c 0
 1384.33300781 1209.33300781 1415.33300781 1130.66601562 1432 1039.99902344 c 1
 1237 1039.99902344 l 1
 1208.33300781 1173.99902344 1129 1265.66601562 999 1314.99902344 c 0
 941.666992188 1338.33203125 877 1349.99902344 805 1349.99902344 c 0
 625 1349.99902344 486.333007812 1278.99902344 389 1136.99902344 c 0
 317 1030.33203125 281 898.33203125 281 740.999023438 c 0
 283.666992188 543.666015625 336 387.333007812 438 272 c 0
 528 174 653.666992188 123.666992188 815 121 c 0
 971 121 1094 175.666992188 1184 285 c 0
 1250.66699219 367 1284 465.333007812 1284 580 c 2
 1284 621 l 1
 829 621 l 1
 829 788 l 1
 1452 788 l 1
EndSplineSet
EndChar

StartChar: H
Encoding: 72 72 42
Width: 1478
GlyphClass: 2
Flags: W
LayerCount: 2
Fore
SplineSet
1127 680 m 1
 361 680 l 1
 361 0 l 1
 169 0 l 1
 169 1493 l 1
 359 1493 l 1
 359 848 l 1
 1127 848 l 1
 1127 1493 l 1
 1318 1493 l 1
 1318 0 l 1
 1127 0 l 1
 1127 680 l 1
EndSplineSet
EndChar

StartChar: I
Encoding: 73 73 43
Width: 569
GlyphClass: 2
Flags: W
LayerCount: 2
Fore
SplineSet
396 1493 m 1
 396 0 l 1
 204 0 l 1
 204 1493 l 1
 396 1493 l 1
EndSplineSet
EndChar

StartChar: J
Encoding: 74 74 44
Width: 1024
GlyphClass: 2
Flags: W
LayerCount: 2
Fore
SplineSet
681 1493 m 1
 870.998046875 1493 l 1
 870.998046875 373 l 2
 870.998046875 203.666992188 809.665039062 82.6669921875 686.998046875 10 c 0
 620.331054688 -28 541.331054688 -47 449.998046875 -47 c 0
 280.665039062 -47 160.33203125 11.6669921875 88.9990234375 129 c 0
 52.33203125 190.333007812 33.9990234375 263.333007812 33.9990234375 348 c 2
 33.9990234375 479 l 1
 227.999023438 479 l 1
 227.999023438 383 l 2
 227.999023438 231.666992188 283.33203125 143.666992188 393.999023438 119 c 1
 451.999023438 113 l 1
 530.666015625 113 591.333007812 143.666992188 634 205 c 0
 665.333007812 251 681 330 681 442 c 2
 681 1493 l 1
EndSplineSet
EndChar

StartChar: K
Encoding: 75 75 45
Width: 1366
GlyphClass: 2
Flags: W
LayerCount: 2
Fore
SplineSet
351 522 m 1
 351 0 l 1
 161 0 l 1
 161 1493 l 1
 351 1493 l 1
 351 737 l 1
 1095 1493 l 1
 1340 1493 l 1
 732 885 l 1
 1347 0 l 1
 1121 0 l 1
 595 766 l 1
 351 522 l 1
EndSplineSet
EndChar

StartChar: L
Encoding: 76 76 46
Width: 1138
GlyphClass: 2
Flags: W
LayerCount: 2
Fore
SplineSet
353 1493 m 1
 353 168 l 1
 1091 168 l 1
 1091 0 l 1
 163 0 l 1
 163 1493 l 1
 353 1493 l 1
EndSplineSet
EndChar

StartChar: M
Encoding: 77 77 47
Width: 1705
GlyphClass: 2
Flags: W
LayerCount: 2
Fore
SplineSet
957 0 m 1
 757 0 l 1
 333 1251 l 1
 333 0 l 1
 153 0 l 1
 153 1493 l 1
 417 1493 l 1
 859 193 l 1
 1293 1493 l 1
 1558 1493 l 1
 1558 0 l 1
 1377 0 l 1
 1377 1251 l 1
 957 0 l 1
EndSplineSet
EndChar

StartChar: N
Encoding: 78 78 48
Width: 1478
GlyphClass: 2
Flags: W
LayerCount: 2
Fore
SplineSet
1322 1493 m 1
 1322 0 l 1
 1107 0 l 1
 335 1210 l 1
 335 0 l 1
 155 0 l 1
 155 1493 l 1
 361 1493 l 1
 1142 272 l 1
 1142 1493 l 1
 1322 1493 l 1
EndSplineSet
EndChar

StartChar: O
Encoding: 79 79 49
Width: 1593
GlyphClass: 2
Flags: W
LayerCount: 2
Fore
SplineSet
796 1518 m 0
 1033.33300781 1518 1218.33300781 1433.99902344 1351 1265.99902344 c 0
 1463 1127.33203125 1519 946.33203125 1519 722.999023438 c 0
 1519 520.999023438 1463 348.33203125 1351 204.999023438 c 0
 1323.66699219 169.666015625 1293.66699219 138.333007812 1261 111 c 0
 1136.33300781 5.6669921875 982 -47 798 -47 c 0
 570 -47 389 33 255 193 c 0
 136.333007812 335 77 515.666992188 77 735 c 0
 77 986.333007812 152.666992188 1185 304 1331 c 0
 434 1455.66699219 598 1518 796 1518 c 0
796 1349.99902344 m 0
 618 1349.99902344 480 1280.33203125 382 1140.99902344 c 0
 305.333007812 1032.99902344 267 897.666015625 267 734.999023438 c 0
 267 519.666015625 332 355.333007812 462 242 c 0
 553.333007812 161.333007812 665.333007812 121 798 121 c 0
 974 121 1111 189.333007812 1209 326 c 0
 1288.33300781 432 1328 565.666992188 1328 727 c 0
 1328 952.333007812 1261 1121.66601562 1127 1234.99902344 c 0
 1037 1311.66601562 926.666992188 1349.99902344 796 1349.99902344 c 0
EndSplineSet
EndChar

StartChar: P
Encoding: 80 80 50
Width: 1366
GlyphClass: 2
Flags: W
LayerCount: 2
Fore
SplineSet
377 633 m 1
 376.999023438 0 l 1
 185.999023438 0 l 1
 185.999023438 1493 l 1
 802.999023438 1493 l 2
 1022.99902344 1493 1164.99902344 1412.33300781 1228.99902344 1251 c 0
 1252.33203125 1195 1263.99902344 1129.66699219 1263.99902344 1055 c 0
 1263.99902344 922.333007812 1220.99902344 817 1134.99902344 739 c 0
 1055.66601562 668.333007812 959.333007812 633 846 633 c 2
 377 633 l 1
376.999023438 801 m 1
 773.999023438 800.999023438 l 2
 913.33203125 800.999023438 1003.33203125 851.33203125 1043.99902344 951.999023438 c 0
 1057.99902344 983.33203125 1064.99902344 1020.33203125 1064.99902344 1062.99902344 c 0
 1064.99902344 1185.66601562 1010.99902344 1266.33300781 902.999023438 1305 c 1
 900.999023438 1305 l 1
 864.33203125 1318.33300781 821.999023438 1325 773.999023438 1325 c 2
 376.999023438 1325 l 1
 376.999023438 801 l 1
EndSplineSet
EndChar

StartChar: Q
Encoding: 81 81 51
Width: 1593
GlyphClass: 2
Flags: W
LayerCount: 2
Fore
SplineSet
1500 -2 m 1
 1403.99902344 -121 l 1
 1188.99902344 57 l 1
 1071.66601562 -12.3330078125 941.333007812 -47 798 -47 c 0
 570 -47 389 33 255 193 c 0
 136.333007812 335 77 515.666992188 77 735 c 0
 77 986.333007812 152.666992188 1185 304 1331 c 0
 435.333007812 1455.66699219 600 1518 798 1518 c 0
 1024.66699219 1518 1204.66699219 1438.66699219 1338 1280 c 0
 1458.66699219 1139.33300781 1519 959 1519 739 c 0
 1519 504.333007812 1448.66699219 310 1308 156 c 1
 1500 -2 l 1
1040.99902344 178 m 2
 926.999023438 135 l 2
 962.33203125 145 1000.33203125 159.333007812 1040.99902344 178 c 2
1040.99902344 178 m 1
 890 305 l 1
 984 420 l 1
 1166 270 l 1
 1274 392 1328 547.666992188 1328 737 c 0
 1328 951.666992188 1264 1115.66699219 1136 1229 c 0
 1042.66699219 1309.66699219 930 1350 798 1350 c 0
 618.666992188 1350 480 1280.33300781 382 1141 c 0
 305.333007812 1033 267 897.666992188 267 735 c 0
 267 518.333007812 332 353.333007812 462 240 c 0
 553.333007812 160.666992188 664.666015625 121 795.999023438 121 c 0
 841.999023438 121 923.666015625 140 1040.99902344 178 c 1
EndSplineSet
EndChar

StartChar: R
Encoding: 82 82 52
Width: 1478
GlyphClass: 2
Flags: W
LayerCount: 2
Fore
SplineSet
381 643 m 1
 381 0.0009765625 l 1
 190 0.0009765625 l 1
 190 1493.00097656 l 1
 879 1493.00097656 l 2
 1111 1493.00097656 1255 1411.00097656 1311 1247.00097656 c 0
 1325.66699219 1202.33398438 1333 1151.33398438 1333 1094.00097656 c 0
 1333 960.000976562 1284 858.000976562 1186 788.000976562 c 0
 1160 770.66796875 1130.66699219 753.66796875 1098 737.000976562 c 1
 1182.66699219 700.333984375 1238 654.666992188 1264 600 c 0
 1286.66699219 549.333007812 1298.66699219 465.333007812 1300 348 c 0
 1303.33300781 217.333007812 1316.33300781 133.333007812 1339 96 c 0
 1351.66699219 78.6669921875 1369 62.333984375 1391 47.0009765625 c 1
 1391 0.0009765625 l 1
 1159 0.0009765625 l 1
 1130.33300781 65.333984375 1116 146.666992188 1116 244 c 2
 1118 377 l 2
 1118 525.666992188 1063.33300781 611.666992188 954 635 c 0
 930 640.333007812 902.666992188 643 872 643 c 2
 381 643 l 1
381 811.000976562 m 1
 842 811.000976562 l 2
 1007.33300781 811.000976562 1102 869.66796875 1126 987.000976562 c 0
 1132 1010.33398438 1135 1037.00097656 1135 1067.00097656 c 0
 1135 1157.00097656 1109 1224.00097656 1057 1268.00097656 c 0
 1013 1306.00097656 941.333007812 1325.00097656 842 1325.00097656 c 2
 381 1325.00097656 l 1
 381 811.000976562 l 1
EndSplineSet
EndChar

StartChar: S
Encoding: 83 83 53
Width: 1366
GlyphClass: 2
Flags: W
LayerCount: 2
Fore
SplineSet
1221 1055 m 1
 1039.99902344 1055.00292969 l 1
 1038.66601562 1206.3359375 963.666015625 1301.66894531 814.999023438 1341.00195312 c 0
 771.666015625 1352.33496094 722.666015625 1358.00195312 667.999023438 1358.00195312 c 0
 525.999023438 1358.00195312 426.999023438 1315.66894531 370.999023438 1231.00195312 c 0
 346.33203125 1194.33496094 333.999023438 1152.66796875 333.999023438 1106.00097656 c 0
 333.999023438 1029.33398438 370.666015625 972.000976562 443.999023438 934.000976562 c 0
 478.666015625 916.000976562 523.999023438 899.66796875 579.999023438 885.000976562 c 2
 953.999023438 784.000976562 l 2
 1117.99902344 739.333984375 1218.99902344 650.666992188 1256.99902344 518 c 0
 1266.99902344 484 1271.99902344 448 1271.99902344 410 c 2
 1271.99902344 381 l 1
 1259.99902344 249 1205.33203125 144.666992188 1107.99902344 68 c 0
 1007.99902344 -8.6669921875 867.999023438 -47 687.999023438 -47 c 0
 457.33203125 -47 289.999023438 24 185.999023438 166 c 0
 128.666015625 244 99.3330078125 347 98 475 c 1
 279 475 l 1
 277.666992188 416.333007812 288.666992188 363 312 315 c 0
 323.333007812 290.333007812 338 267.333007812 356 246 c 0
 426 162.666992188 540.666992188 121 700 121 c 0
 936 121 1062.33300781 202.333007812 1079 365 c 0
 1080.33300781 369 1081 373.666992188 1081 379 c 2
 1081 391 l 2
 1081 495 1006 570.666992188 856 618 c 0
 841.333007812 624 825 629 807 633 c 2
 436 731 l 2
 242 781.666992188 144.333007812 897.666992188 143 1079 c 0
 143 1248.33300781 214 1371.33300781 356 1448 c 0
 443.333007812 1494.66699219 549.333007812 1518 674 1518 c 0
 914 1518 1077 1442 1163 1290 c 0
 1201.66699219 1223.33300781 1221 1145 1221 1055 c 1
EndSplineSet
EndChar

StartChar: T
Encoding: 84 84 54
Width: 1251
GlyphClass: 2
Flags: W
LayerCount: 2
Fore
SplineSet
725 1325 m 1
 725 0 l 1
 535 0 l 1
 535 1325 l 1
 43 1325 l 1
 43 1493 l 1
 1214 1493 l 1
 1214 1325 l 1
 725 1325 l 1
EndSplineSet
EndChar

StartChar: U
Encoding: 85 85 55
Width: 1478
GlyphClass: 2
Flags: W
LayerCount: 2
Fore
SplineSet
1130 1493 m 1
 1321 1492.99902344 l 1
 1321 443.999023438 l 2
 1321 266.666015625 1250 133.666015625 1108 44.9990234375 c 0
 1010 -16.333984375 889 -47.0009765625 745 -47.0009765625 c 0
 520.333007812 -47.0009765625 358 21.9990234375 258 159.999023438 c 0
 203.333007812 237.33203125 175.333007812 331.999023438 174 443.999023438 c 2
 174 1492.99902344 l 1
 365 1492.99902344 l 1
 365 443.999023438 l 2
 365 336.666015625 401 254.999023438 473 198.999023438 c 0
 545.666992188 146.999023438 636.333984375 120.999023438 745.000976562 120.999023438 c 0
 913.000976562 120.999023438 1028.00097656 174.999023438 1090.00097656 282.999023438 c 0
 1115.33398438 327.666015625 1128.66699219 381.333007812 1130 444 c 2
 1130 1493 l 1
EndSplineSet
EndChar

StartChar: V
Encoding: 86 86 56
Width: 1366
GlyphClass: 2
Flags: W
LayerCount: 2
Fore
SplineSet
803 0 m 1
 598 0 l 1
 61 1493 l 1
 266 1493 l 1
 705 229 l 1
 1118 1493 l 1
 1321 1493 l 1
 803 0 l 1
EndSplineSet
EndChar

StartChar: W
Encoding: 87 87 57
Width: 1933
GlyphClass: 2
Flags: W
LayerCount: 2
Fore
SplineSet
1524 0 m 1
 1315 0 l 1
 971 1227 l 1
 637 0 l 1
 428 0 l 1
 45 1493 l 1
 258 1493 l 1
 539 281 l 1
 870 1493 l 1
 1075 1493 l 1
 1415 281 l 1
 1690 1493 l 1
 1903 1493 l 1
 1524 0 l 1
EndSplineSet
EndChar

StartChar: X
Encoding: 88 88 58
Width: 1366
GlyphClass: 2
Flags: W
LayerCount: 2
Fore
SplineSet
801 766 m 1
 1329 0 l 1
 1094 0 l 1
 686 623 l 1
 276 0 l 1
 45 0 l 1
 573 766 l 1
 78 1493 l 1
 309 1493 l 1
 692 907 l 1
 1077 1493 l 1
 1305 1493 l 1
 801 766 l 1
EndSplineSet
EndChar

StartChar: Y
Encoding: 89 89 59
Width: 1366
GlyphClass: 2
Flags: W
LayerCount: 2
Fore
SplineSet
792 586 m 1
 792 0 l 1
 601 0 l 1
 601 586 l 1
 26 1493 l 1
 261 1493 l 1
 699 766 l 1
 1125 1493 l 1
 1353 1493 l 1
 792 586 l 1
EndSplineSet
EndChar

StartChar: Z
Encoding: 90 90 60
Width: 1251
GlyphClass: 2
Flags: W
LayerCount: 2
Fore
SplineSet
1190 1493 m 1
 1190 1321 l 1
 297 168 l 1
 1194 168 l 1
 1194 0 l 1
 57 0 l 1
 57 168 l 1
 954 1325 l 1
 115 1325 l 1
 115 1493 l 1
 1190 1493 l 1
EndSplineSet
EndChar

StartChar: bracketleft
Encoding: 91 91 61
Width: 569
GlyphClass: 2
Flags: W
LayerCount: 2
Fore
SplineSet
512 1493 m 1
 512 1346 l 1
 301 1346 l 1
 301 -287 l 1
 512 -287 l 1
 512 -434 l 1
 131 -434 l 1
 131 1493 l 1
 512 1493 l 1
EndSplineSet
EndChar

StartChar: backslash
Encoding: 92 92 62
Width: 569
GlyphClass: 2
Flags: W
LayerCount: 2
Fore
SplineSet
96 1493 m 1
 582 -41 l 1
 469 -41 l 1
 -16 1493 l 1
 96 1493 l 1
EndSplineSet
EndChar

StartChar: bracketright
Encoding: 93 93 63
Width: 569
GlyphClass: 2
Flags: W
LayerCount: 2
Fore
SplineSet
47 -434 m 1
 47 -287 l 1
 258 -287 l 1
 258 1346 l 1
 47 1346 l 1
 47 1493 l 1
 428 1493 l 1
 428 -434 l 1
 47 -434 l 1
EndSplineSet
EndChar

StartChar: asciicircum
Encoding: 94 94 64
Width: 960
GlyphClass: 2
Flags: W
LayerCount: 2
Fore
SplineSet
403 1452 m 1
 553 1452 l 1
 870 674 l 1
 729 674 l 1
 479 1288 l 1
 231 674 l 1
 90 674 l 1
 403 1452 l 1
EndSplineSet
EndChar

StartChar: underscore
Encoding: 95 95 65
Width: 1138
GlyphClass: 2
Flags: W
LayerCount: 2
Fore
SplineSet
1184 -258 m 1
 1184 -360 l 1
 -45 -360 l 1
 -45 -258 l 1
 1184 -258 l 1
EndSplineSet
EndChar

StartChar: grave
Encoding: 96 96 66
Width: 681
GlyphClass: 2
Flags: W
LayerCount: 2
Fore
SplineSet
276 1516 m 1
 473 1212 l 1
 350 1212 l 1
 45 1516 l 1
 276 1516 l 1
EndSplineSet
EndChar

StartChar: a
Encoding: 97 97 67
Width: 1138
GlyphClass: 2
Flags: W
LayerCount: 2
Fore
SplineSet
563 1104 m 0
 832.333007812 1104 966.998046875 1006.33105469 966.998046875 810.998046875 c 2
 966.998046875 179.998046875 l 2
 966.998046875 123.998046875 997.665039062 95.998046875 1058.99804688 95.998046875 c 2
 1062.99804688 95.998046875 l 2
 1074.99804688 95.998046875 1085.99804688 97.3310546875 1095.99804688 99.998046875 c 1
 1095.99804688 -29.001953125 l 1
 1056.66503906 -39.6689453125 1024.33203125 -45.6689453125 998.999023438 -47.001953125 c 2
 978.999023438 -47.001953125 l 2
 882.33203125 -47.001953125 824.999023438 -4.001953125 806.999023438 81.998046875 c 1
 802.999023438 110.998046875 l 1
 690.33203125 5.6650390625 568.665039062 -47.001953125 437.998046875 -47.001953125 c 0
 287.998046875 -47.001953125 183.665039062 3.998046875 124.998046875 105.998046875 c 0
 98.998046875 152.665039062 85.998046875 207.33203125 85.998046875 269.999023438 c 0
 88.6650390625 419.999023438 158.998046875 518.33203125 296.998046875 564.999023438 c 0
 330.998046875 576.33203125 367.331054688 585.999023438 405.998046875 593.999023438 c 0
 446.665039062 600.666015625 517.33203125 610.333007812 617.999023438 623 c 0
 719.33203125 633.666992188 776.999023438 660 790.999023438 702 c 0
 792.33203125 716 794.33203125 729 796.999023438 741 c 2
 796.999023438 786 l 2
 796.999023438 892.666992188 716.999023438 946 556.999023438 946 c 0
 416.33203125 946 334.33203125 895 310.999023438 793 c 0
 308.33203125 780.333007812 306.33203125 768 304.999023438 756 c 1
 132.999023438 756 l 1
 136.999023438 854 161.666015625 928.333007812 206.999023438 979 c 0
 281.666015625 1062.33300781 400.333007812 1104 563 1104 c 0
796.998046875 337.998046875 m 2
 796.997070312 529.998046875 l 1
 767.6640625 517.331054688 734.6640625 506.6640625 697.997070312 497.997070312 c 2
 521.997070312 470.997070312 l 2
 377.330078125 450.330078125 293.997070312 403.330078125 271.997070312 329.997070312 c 1
 263.997070312 275.997070312 l 1
 263.997070312 273.997070312 l 2
 263.997070312 185.330078125 309.6640625 130.997070312 400.997070312 110.997070312 c 0
 422.997070312 104.997070312 447.6640625 101.997070312 474.997070312 101.997070312 c 0
 573.6640625 101.997070312 658.331054688 134.330078125 728.998046875 198.997070312 c 0
 746.998046875 214.997070312 761.331054688 230.6640625 771.998046875 245.997070312 c 0
 788.665039062 270.6640625 796.998046875 301.331054688 796.998046875 337.998046875 c 2
EndSplineSet
EndChar

StartChar: b
Encoding: 98 98 68
Width: 1138
GlyphClass: 2
Flags: W
LayerCount: 2
Fore
SplineSet
110 1493 m 1
 280 1493 l 1
 280 928 l 1
 357.333007812 1045.33300781 467.666015625 1104 610.999023438 1104 c 0
 785.666015625 1104 913.333007812 1030.33300781 994 883 c 0
 1044.66699219 789.666992188 1070 675.666992188 1070 541 c 0
 1070 321 1008 158.333007812 884 53 c 0
 806 -13.6669921875 712.333007812 -47 603 -47 c 0
 457 -47 343.666992188 14.3330078125 263 137 c 1
 263 0 l 1
 110 0 l 1
 110 1493 l 1
579 944 m 0
 465.666992188 944 382.33203125 886.66796875 328.999023438 772.000976562 c 0
 296.33203125 705.333984375 279.999023438 624.000976562 279.999023438 528.000976562 c 0
 279.999023438 357.333984375 326.999023438 236.666992188 420.999023438 166 c 0
 465.666015625 130.666992188 518.333007812 113 579 113 c 0
 693.666992188 113 779.666992188 166.666992188 837 274 c 0
 873.666992188 344 892 426.666992188 892 522 c 0
 892 695.333007812 842.666992188 818.333007812 744 891 c 0
 699.333007812 925 644.333007812 942.666992188 579 944 c 0
EndSplineSet
EndChar

StartChar: c
Encoding: 99 99 69
Width: 1024
GlyphClass: 2
Flags: W
LayerCount: 2
Fore
SplineSet
965 713 m 1
 793.000976562 713.000976562 l 1
 775.000976562 845.000976562 708.66796875 921.333984375 594.000976562 942.000976562 c 0
 583.333984375 943.333984375 565.000976562 944.666992188 539.000976562 946 c 0
 410.333984375 946 322.000976562 877.666992188 274.000976562 741 c 0
 252.66796875 678.333007812 242.000976562 604 242.000976562 518 c 0
 242.000976562 332 295.66796875 207.666992188 403.000976562 145 c 0
 443.000976562 122.333007812 489.66796875 111 543.000976562 111 c 0
 689.000976562 111 776.333984375 197 805.000976562 369 c 1
 977.000976562 369 l 1
 961.66796875 181.666992188 883.000976562 56.6669921875 741.000976562 -6 c 0
 682.333984375 -33.3330078125 615.000976562 -47 539.000976562 -47 c 0
 362.333984375 -47 231.666992188 24.6669921875 147 168 c 0
 91 262 63 378.666992188 63 518 c 0
 63 736.666992188 126 898.666992188 252 1004 c 0
 332.666992188 1070.66699219 429 1104 541 1104 c 0
 699 1102 816.333007812 1048.66699219 893 944 c 0
 932.333007812 885.333007812 956.333007812 808.333007812 965 713 c 1
EndSplineSet
EndChar

StartChar: d
Encoding: 100 100 70
Width: 1138
GlyphClass: 2
Flags: W
LayerCount: 2
Fore
SplineSet
1014 1493 m 1
 1014 0.0009765625 l 1
 862 0.0009765625 l 1
 862 141.000976562 l 1
 774.666992188 16.333984375 660.666992188 -46.3330078125 520 -47 c 0
 342.666992188 -47 213 29.3330078125 131 182 c 0
 79 278 53 397 53 539 c 0
 53 749 114 905.333007812 236 1008 c 0
 313.333007812 1072 406 1104 514 1104 c 0
 661.333007812 1104 771.333007812 1048.66699219 844 938 c 1
 844 1493 l 1
 1014 1493 l 1
543 944.000976562 m 0
 427 944.000976562 341 888.002929688 285 776.002929688 c 0
 249 707.3359375 231 624.668945312 231 528.001953125 c 0
 231 362.001953125 279 242.001953125 375 168.001953125 c 0
 424.333007812 131.334960938 481 113.001953125 545 113.001953125 c 0
 657 113.001953125 739.666992188 168.334960938 793 279.001953125 c 0
 827 347.001953125 844 428.668945312 844 524.001953125 c 0
 844 703.334960938 794.666992188 827.66796875 696 897.000976562 c 0
 651.333007812 928.333984375 600.333007812 944.000976562 543 944.000976562 c 0
EndSplineSet
EndChar

StartChar: e
Encoding: 101 101 71
Width: 1138
GlyphClass: 2
Flags: W
LayerCount: 2
Fore
SplineSet
1050 479 m 1
 259 478.999023438 l 1
 260.333007812 380.999023438 279.333007812 304.666015625 316 249.999023438 c 0
 375.333007812 157.33203125 461.333007812 110.999023438 574 110.999023438 c 0
 713.333007812 110.999023438 807 182.666015625 855 325.999023438 c 1
 1027 325.999023438 l 1
 997 160.666015625 911 48.666015625 769 -10.0009765625 c 0
 709 -34.66796875 642 -47.0009765625 568 -47.0009765625 c 0
 382.666992188 -47.0009765625 247 27.9990234375 161 177.999023438 c 0
 107.666992188 270.666015625 81 385.333007812 81 522 c 0
 81 738 145 898.666992188 273 1004 c 0
 355 1070.66699219 454.666992188 1104 572 1104 c 0
 729.333007812 1104 852.333007812 1048 941 936 c 0
 968.333007812 902 990.333007812 863.666992188 1007 821 c 0
 1035.66699219 747.666992188 1050 633.666992188 1050 479 c 1
263 617.999023438 m 1
 864.999023438 617.999023438 l 1
 866.999023438 630.999023438 l 1
 866.999023438 740.33203125 826.999023438 825.665039062 746.999023438 886.998046875 c 0
 694.999023438 926.331054688 635.999023438 945.998046875 569.999023438 945.998046875 c 0
 453.999023438 945.998046875 367.999023438 894.998046875 311.999023438 792.998046875 c 0
 284.666015625 743.665039062 268.333007812 685.33203125 263 617.999023438 c 1
EndSplineSet
EndChar

StartChar: f
Encoding: 102 102 72
Width: 569
GlyphClass: 2
Flags: W
LayerCount: 2
Fore
SplineSet
527 1073 m 1
 527 933.998046875 l 1
 349 933.998046875 l 1
 349 -0.001953125 l 1
 179 -0.001953125 l 1
 179 933.998046875 l 1
 36 933.998046875 l 1
 36 1072.99804688 l 1
 179 1072.99804688 l 1
 179 1254.99804688 l 2
 179 1375.66503906 229.666992188 1452.33203125 331 1484.99902344 c 0
 361 1494.33203125 394.333007812 1498.99902344 431 1498.99902344 c 0
 465 1497.66601562 497 1494.33300781 527 1489 c 1
 527 1348 l 1
 476 1350 l 1
 468 1350 l 2
 390 1350 350.333007812 1313.66699219 349 1241 c 2
 349 1073 l 1
 527 1073 l 1
EndSplineSet
EndChar

StartChar: g
Encoding: 103 103 73
Width: 1138
GlyphClass: 2
Flags: W
LayerCount: 2
Fore
SplineSet
844 1073 m 1
 1000.99804688 1072.99902344 l 1
 1000.99804688 175.999023438 l 2
 1000.99804688 -34.0009765625 973.331054688 -182.66796875 917.998046875 -270.000976562 c 1
 888.998046875 -309.000976562 l 2
 816.331054688 -400.333984375 693.998046875 -446.000976562 521.998046875 -446.000976562 c 0
 333.998046875 -446.000976562 205.665039062 -386.000976562 136.998046875 -266.000976562 c 0
 113.665039062 -224.000976562 99.33203125 -176.333984375 93.9990234375 -123.000976562 c 1
 267.999023438 -123.000976562 l 1
 276.666015625 -175.000976562 296.666015625 -214.66796875 327.999023438 -242.000976562 c 0
 378.666015625 -282.000976562 445.333007812 -302.333984375 528 -303.000976562 c 0
 638.666992188 -303.000976562 718 -269.66796875 766 -203.000976562 c 0
 806.666992188 -147.000976562 827 -49.333984375 827 89.9990234375 c 2
 827 144.999023438 l 1
 813 126.999023438 l 2
 727 10.9990234375 623.333007812 -47.0009765625 502 -47.0009765625 c 2
 483 -47.0009765625 l 1
 369.666992188 -40.333984375 273.666992188 7.3330078125 195 96 c 0
 104.333007812 200 59 340.666992188 59 518 c 0
 59 724 115.666992188 881 229 989 c 0
 308.333007812 1065.66699219 404 1104 516 1104 c 0
 650 1104 759.333007812 1042 844 918 c 1
 844 1073 l 1
534.998046875 945.999023438 m 0
 414.331054688 945.999023438 328.998046875 884.666015625 278.998046875 761.999023438 c 0
 251.665039062 697.999023438 237.998046875 619.999023438 237.998046875 527.999023438 c 0
 237.998046875 338.666015625 290.998046875 211.666015625 396.998046875 146.999023438 c 0
 436.998046875 122.999023438 483.665039062 110.999023438 536.998046875 110.999023438 c 0
 658.331054688 110.999023438 742.998046875 173.666015625 790.998046875 298.999023438 c 0
 814.998046875 361.666015625 826.998046875 435.999023438 826.998046875 521.999023438 c 0
 826.998046875 726.666015625 770.998046875 858.666015625 658.998046875 917.999023438 c 0
 622.331054688 936.666015625 580.998046875 945.999023438 534.998046875 945.999023438 c 0
EndSplineSet
EndChar

StartChar: h
Encoding: 104 104 74
Width: 1138
GlyphClass: 2
Flags: W
LayerCount: 2
Fore
SplineSet
143 1493 m 1
 313.001953125 1492.99902344 l 1
 313.001953125 925.999023438 l 1
 350.001953125 968.999023438 l 2
 423.334960938 1058.99902344 525.66796875 1103.99902344 657.000976562 1103.99902344 c 0
 807.66796875 1103.99902344 909.66796875 1053.33203125 963.000976562 951.999023438 c 0
 984.333984375 911.33203125 995.000976562 864.33203125 995.000976562 810.999023438 c 2
 995.000976562 -0.0009765625 l 1
 825.000976562 -0.0009765625 l 1
 825.000976562 742.999023438 l 2
 825.000976562 818.33203125 802.000976562 872.33203125 756.000976562 904.999023438 c 0
 712.000976562 937.666015625 661.333984375 953.999023438 604.000976562 953.999023438 c 0
 489.333984375 953.999023438 406.666992188 901.666015625 356 796.999023438 c 0
 327.333007812 739.666015625 313 671.333007812 313 592 c 2
 313 0 l 1
 143 0 l 1
 143 1493 l 1
EndSplineSet
EndChar

StartChar: i
Encoding: 105 105 75
Width: 454
GlyphClass: 2
Flags: W
LayerCount: 2
Fore
SplineSet
307 1073 m 1
 307 0 l 1
 137 0 l 1
 137 1073 l 1
 307 1073 l 1
307 1493 m 1
 307 1278 l 1
 135 1278 l 1
 135 1493 l 1
 307 1493 l 1
EndSplineSet
EndChar

StartChar: j
Encoding: 106 106 76
Width: 454
GlyphClass: 2
Flags: W
LayerCount: 2
Fore
SplineSet
144 1073 m 1
 314 1073 l 1
 314 -223 l 2
 314 -363.666992188 226.666992188 -438 52 -446 c 0
 30.6669921875 -446.666992188 10.6669921875 -446 -8 -444 c 0
 -18 -443.333007812 -27.3330078125 -442 -36 -440 c 1
 -36 -295 l 1
 3 -297 l 1
 5 -297 l 2
 76.3330078125 -297 119.333007812 -275 134 -231 c 0
 140.666992188 -212.333007812 144 -187.333007812 144 -156 c 2
 144 1073 l 1
314 1493 m 1
 314 1278 l 1
 144 1278 l 1
 144 1493 l 1
 314 1493 l 1
EndSplineSet
EndChar

StartChar: k
Encoding: 107 107 77
Width: 1024
GlyphClass: 2
Flags: W
LayerCount: 2
Fore
SplineSet
288 1493 m 1
 288 618 l 1
 742 1073 l 1
 962 1073 l 1
 589 702 l 1
 1027 0 l 1
 816 0 l 1
 454 582 l 1
 288 418 l 1
 288 0 l 1
 118 0 l 1
 118 1493 l 1
 288 1493 l 1
EndSplineSet
EndChar

StartChar: l
Encoding: 108 108 78
Width: 454
GlyphClass: 2
Flags: W
LayerCount: 2
Fore
SplineSet
311 1493 m 1
 311 0 l 1
 139 0 l 1
 139 1493 l 1
 311 1493 l 1
EndSplineSet
EndChar

StartChar: m
Encoding: 109 109 79
Width: 1705
GlyphClass: 2
Flags: W
LayerCount: 2
Fore
SplineSet
143 1073 m 1
 301.000976562 1073.00292969 l 1
 301.000976562 922.002929688 l 1
 375.000976562 1025.3359375 462.333984375 1084.66894531 563.000976562 1100.00195312 c 0
 576.333984375 1101.33496094 590.000976562 1102.66796875 604.000976562 1104.00097656 c 2
 631.000976562 1104.00097656 l 2
 762.333984375 1104.00097656 858.666992188 1049.33398438 920 940.000976562 c 1
 979 1004.00097656 l 1
 1048.33300781 1069.33398438 1138.33300781 1102.66699219 1249 1104 c 0
 1415.66699219 1104 1516 1037 1550 903 c 0
 1557.33300781 873 1561 840.333007812 1561 805 c 2
 1561 0 l 1
 1389 0 l 1
 1389 739 l 2
 1389 849.666992188 1346 918 1260 944 c 0
 1238 950.666992188 1214.66699219 954 1190 954 c 0
 1106.66699219 954 1039.66699219 917.333007812 989 844 c 0
 955 794.666992188 938 738 938 674 c 2
 938 0 l 1
 766 0 l 1
 766 739 l 2
 766 858.333007812 717.666992188 928 621 948 c 1
 567 954 l 1
 482.333007812 954 415 916 365 840 c 0
 331.666992188 792 315 736.666992188 315 674 c 2
 315 0 l 1
 143 0 l 1
 143 1073 l 1
EndSplineSet
EndChar

StartChar: n
Encoding: 110 110 80
Width: 1138
GlyphClass: 2
Flags: W
LayerCount: 2
Fore
SplineSet
143 1073 m 1
 301.000976562 1073 l 1
 301.000976562 893 l 1
 375.000976562 1009 463.66796875 1076.66699219 567.000976562 1096 c 0
 594.333984375 1101.33300781 624.333984375 1104 657.000976562 1104 c 0
 799.000976562 1104 898.66796875 1057 956.000976562 963 c 0
 982.000976562 920.333007812 995.66796875 869.666015625 997.000976562 810.999023438 c 2
 997.000976562 -0.0009765625 l 1
 827.000976562 -0.0009765625 l 1
 827.000976562 742.999023438 l 2
 827.000976562 837.666015625 787.66796875 901.999023438 709.000976562 935.999023438 c 0
 679.000976562 947.999023438 644.66796875 953.999023438 606.000976562 953.999023438 c 0
 491.333984375 953.999023438 408.666992188 901.666015625 358 796.999023438 c 0
 329.333007812 739.666015625 315 671.333007812 315 592 c 2
 315 0 l 1
 143 0 l 1
 143 1073 l 1
EndSplineSet
EndChar

StartChar: o
Encoding: 111 111 81
Width: 1138
GlyphClass: 2
Flags: W
LayerCount: 2
Fore
SplineSet
556 1104 m 0
 763.333007812 1104 906 1016.00097656 984 840.000976562 c 0
 1023.33300781 751.333984375 1043 644.666992188 1043 520 c 0
 1043 292 973.666992188 129.666992188 835 33 c 0
 758.333007812 -20.3330078125 666 -47 558 -47 c 0
 361.333007812 -47 222 34.3330078125 140 197 c 0
 95.3330078125 287 73 397.333007812 73 528 c 0
 73 766 144.666992188 932.666992188 288 1028 c 0
 362.666992188 1078.66699219 452 1104 556 1104 c 0
558 946.000976562 m 0
 431.333007812 946.000976562 342 883.333984375 290 758.000976562 c 0
 264 694.000976562 251 617.333984375 251 528.000976562 c 0
 251 341.333984375 304.333007812 215.333984375 411 150.000976562 c 0
 453 124.000976562 502 111.000976562 558 111.000976562 c 0
 680.666992188 111.000976562 768.666992188 171.000976562 822 291.000976562 c 0
 850.666992188 355.000976562 865 432.000976562 865 522.000976562 c 0
 865 720.000976562 809 850.333984375 697 913.000976562 c 0
 656.333007812 935.000976562 610 946.000976562 558 946.000976562 c 0
EndSplineSet
EndChar

StartChar: p
Encoding: 112 112 82
Width: 1138
GlyphClass: 2
Flags: W
LayerCount: 2
Fore
SplineSet
110 -446 m 1
 110 1073 l 1
 267 1073 l 1
 267 911 l 1
 347.666992188 1039.66699219 461.666992188 1104 609 1104 c 0
 782.333007812 1104 910 1028.33300781 992 877 c 0
 1044 779.666992188 1070 660 1070 518 c 0
 1070 308 1009.33300781 151.666992188 888 49 c 0
 811.333007812 -15 719 -47 611 -47 c 0
 479 -47 369.333007812 6.3330078125 282 113 c 1
 282 -446 l 1
 110 -446 l 1
581 944 m 0
 467.666992188 944 384.333007812 886.66796875 331 772.000976562 c 0
 298.333007812 705.333984375 282 624.000976562 282 528.000976562 c 0
 282 357.333984375 329 236.666992188 423 166 c 0
 468.333007812 130.666992188 521 113 581 113 c 0
 695.666992188 113 781 166.666992188 837 274 c 0
 873.666992188 344 892 426.666992188 892 522 c 0
 892 695.333007812 843.666992188 818.333007812 747 891 c 0
 699 926.333007812 643.666992188 944 581 944 c 0
EndSplineSet
EndChar

StartChar: q
Encoding: 113 113 83
Width: 1138
GlyphClass: 2
Flags: W
LayerCount: 2
Fore
SplineSet
1014 -446 m 1
 844.001953125 -445.999023438 l 1
 844.001953125 123.000976562 l 1
 766.001953125 10.333984375 655.334960938 -46.3330078125 512.001953125 -47 c 0
 337.334960938 -47 209.66796875 26.6669921875 129.000976562 174 c 0
 78.333984375 266.666992188 53.0009765625 380.666992188 53.0009765625 516 c 0
 53.0009765625 736 115.333984375 898.666992188 240.000976562 1004 c 0
 317.333984375 1070.66699219 410.666992188 1104 520 1104 c 0
 666 1104 780 1046 862 930 c 1
 862 1073 l 1
 1014 1073 l 1
 1014 -446 l 1
545.001953125 944.000976562 m 0
 430.334960938 944.000976562 344.334960938 888.668945312 287.001953125 778.001953125 c 0
 249.668945312 710.001953125 231.001953125 626.668945312 231.001953125 528.001953125 c 0
 231.001953125 362.001953125 279.001953125 242.001953125 375.001953125 168.001953125 c 0
 424.334960938 131.334960938 481.001953125 113.001953125 545.001953125 113.001953125 c 0
 657.001953125 113.001953125 740.334960938 168.334960938 795.001953125 279.001953125 c 0
 827.668945312 347.001953125 844.001953125 428.001953125 844.001953125 522.001953125 c 0
 844.001953125 701.334960938 795.334960938 825.66796875 698.001953125 895.000976562 c 0
 653.334960938 927.66796875 602.334960938 944.000976562 545.001953125 944.000976562 c 0
EndSplineSet
EndChar

StartChar: r
Encoding: 114 114 84
Width: 681
GlyphClass: 2
Flags: W
LayerCount: 2
Fore
SplineSet
141 1073 m 1
 299.000976562 1073 l 1
 299.000976562 879 l 1
 333.000976562 935 366.333984375 980 399.000976562 1014 c 0
 456.333984375 1074 520.666992188 1104 592 1104 c 2
 614 1104 l 1
 657 1098 l 1
 657 924 l 1
 543 922.666992188 468.666992188 904.666992188 434 870 c 1
 353.333007812 811.333007812 313 707 313 557 c 2
 313 0 l 1
 141 0 l 1
 141 1073 l 1
EndSplineSet
EndChar

StartChar: s
Encoding: 115 115 85
Width: 1024
GlyphClass: 2
Flags: W
LayerCount: 2
Fore
SplineSet
896 774 m 1
 716 774.002929688 l 1
 712 888.669921875 640.333007812 946.002929688 501 946.002929688 c 0
 389 946.002929688 317.333007812 912.669921875 286 846.002929688 c 0
 277.333007812 828.002929688 273 807.3359375 273 784.002929688 c 0
 273 722.669921875 318.333007812 677.002929688 409 647.002929688 c 1
 472 631.002929688 l 1
 636 592.002929688 l 2
 797.333007812 554.002929688 893.666015625 487.002929688 924.999023438 391.002929688 c 0
 934.33203125 362.3359375 938.999023438 329.668945312 938.999023438 293.001953125 c 0
 938.999023438 162.334960938 877.666015625 66.66796875 754.999023438 6.0009765625 c 0
 683.666015625 -29.33203125 597.666015625 -46.9990234375 496.999023438 -46.9990234375 c 0
 231.666015625 -46.9990234375 89.666015625 63.66796875 70.9990234375 285.000976562 c 1
 68.9990234375 319.000976562 l 1
 248.999023438 319.000976562 l 1
 256.999023438 255.000976562 273.33203125 209.333984375 297.999023438 182.000976562 c 0
 343.33203125 134.66796875 414.33203125 111.000976562 510.999023438 111.000976562 c 0
 625.666015625 111.000976562 701.999023438 143.000976562 739.999023438 207.000976562 c 0
 753.999023438 227.66796875 760.999023438 251.66796875 760.999023438 279.000976562 c 0
 760.999023438 341.66796875 723.999023438 386.000976562 649.999023438 412.000976562 c 0
 632.666015625 418.000976562 614.333007812 423.333984375 595 428.000976562 c 2
 435 467.000976562 l 2
 273 506.333984375 170.666992188 561.000976562 128 631.000976562 c 0
 107.333007812 669.66796875 96.3330078125 718.000976562 95 776.000976562 c 0
 95 903.333984375 152.333007812 995.666992188 267 1053 c 0
 334.333007812 1087 414.333007812 1104 507 1104 c 0
 705 1104 828 1035 876 897 c 0
 889.333007812 860.333007812 896 819.333007812 896 774 c 1
EndSplineSet
EndChar

StartChar: t
Encoding: 116 116 86
Width: 569
GlyphClass: 2
Flags: W
LayerCount: 2
Fore
SplineSet
519 1073 m 1
 518.998046875 934 l 1
 342.998046875 934 l 1
 342.998046875 199 l 2
 342.998046875 147 357.998046875 117 387.998046875 109 c 2
 436.998046875 102 l 1
 470.998046875 102 498.331054688 105 518.998046875 111 c 1
 518.998046875 -33 l 1
 465.665039062 -42.3330078125 419.33203125 -47 379.999023438 -47 c 0
 258.666015625 -47 190.333007812 -1.3330078125 175 90 c 0
 173.666992188 111.333007812 173 122.333007812 173 123 c 2
 173 934 l 1
 28 934 l 1
 28 1073 l 1
 173 1073 l 1
 173 1368 l 1
 343 1368 l 1
 343 1073 l 1
 519 1073 l 1
EndSplineSet
EndChar

StartChar: u
Encoding: 117 117 87
Width: 1138
GlyphClass: 2
Flags: W
LayerCount: 2
Fore
SplineSet
987 0 m 1
 834 0 l 1
 834 150 l 1
 757.333007812 42 668.333007812 -21 567 -39 c 0
 539.666992188 -44.3330078125 509 -47 475 -47 c 0
 329 -47 228 0.6669921875 172 96 c 0
 146 138.666992188 133 188.666992188 133 246 c 2
 133 1073 l 1
 303 1073 l 1
 303 313 l 2
 303 217.666992188 343.333007812 153.666992188 424 121 c 0
 452.666992188 108.333007812 486 102 524 102 c 0
 640 102 724 155.333007812 776 262 c 0
 803.333007812 319.333007812 817 387 817 465 c 2
 817 1073 l 1
 987 1073 l 1
 987 0 l 1
EndSplineSet
EndChar

StartChar: v
Encoding: 118 118 88
Width: 1024
GlyphClass: 2
Flags: W
LayerCount: 2
Fore
SplineSet
584 0 m 1
 397 0 l 1
 20 1073 l 1
 213 1073 l 1
 500 203 l 1
 803 1073 l 1
 995 1073 l 1
 584 0 l 1
EndSplineSet
EndChar

StartChar: w
Encoding: 119 119 89
Width: 1478
GlyphClass: 2
Flags: W
LayerCount: 2
Fore
SplineSet
1135 0 m 1
 940 0 l 1
 723 842 l 1
 516 0 l 1
 324 0 l 1
 12 1073 l 1
 201 1073 l 1
 420 238 l 1
 625 1073 l 1
 834 1073 l 1
 1044 238 l 1
 1257 1073 l 1
 1450 1073 l 1
 1135 0 l 1
EndSplineSet
EndChar

StartChar: x
Encoding: 120 120 90
Width: 1024
GlyphClass: 2
Flags: W
LayerCount: 2
Fore
SplineSet
597 555 m 1
 968 0 l 1
 769 0 l 1
 501 412 l 1
 228 0 l 1
 34 0 l 1
 413 547 l 1
 54 1073 l 1
 249 1073 l 1
 507 684 l 1
 765 1073 l 1
 957 1073 l 1
 597 555 l 1
EndSplineSet
EndChar

StartChar: y
Encoding: 121 121 91
Width: 1024
GlyphClass: 2
Flags: W
LayerCount: 2
Fore
SplineSet
794 1073 m 1
 978.000976562 1073 l 1
 493.000976562 -246 l 1
 438.333984375 -379.333007812 348.666992188 -446 224 -446 c 0
 182 -446 144 -437.333007812 110 -420 c 1
 110 -266 l 1
 146.666992188 -274.666992188 176.666992188 -279 200 -279 c 0
 261.333007812 -279 304.333007812 -251.666992188 329 -197 c 1
 337 -174 l 1
 402 -4 l 1
 40 1073 l 1
 222 1073 l 1
 497 238 l 1
 794 1073 l 1
EndSplineSet
EndChar

StartChar: z
Encoding: 122 122 92
Width: 1024
GlyphClass: 2
Flags: W
LayerCount: 2
Fore
SplineSet
907 1073 m 1
 907 922 l 1
 270 150 l 1
 936 150 l 1
 936 0 l 1
 63 0 l 1
 63 154 l 1
 705 924 l 1
 106 924 l 1
 106 1073 l 1
 907 1073 l 1
EndSplineSet
EndChar

StartChar: braceleft
Encoding: 123 123 93
Width: 684
GlyphClass: 2
Flags: W
LayerCount: 2
Fore
SplineSet
565 1493 m 1
 565.000976562 1360 l 1
 535.000976562 1360 l 2
 470.333984375 1360 430.666992188 1341.66699219 416 1305 c 0
 409.333007812 1285.66699219 406 1258.33398438 406 1223.00097656 c 2
 406 852.000976562 l 2
 406 718.000976562 378 627.333984375 322 580.000976562 c 1
 319 578.000976562 l 2
 307.666992188 567.333984375 280.666992188 551.333984375 238 530.000976562 c 1
 350 478.66796875 406 371.000976562 406 207.000976562 c 2
 406 -163.999023438 l 2
 406 -231.999023438 423 -273.666015625 457 -288.999023438 c 0
 474.333007812 -296.999023438 500.333007812 -300.999023438 535 -300.999023438 c 2
 565 -300.999023438 l 1
 565 -433.999023438 l 1
 471 -433.999023438 l 2
 359 -433.999023438 288.666992188 -379.33203125 260 -269.999023438 c 0
 252 -239.999023438 248 -205.33203125 248 -165.999023438 c 2
 248 176.000976562 l 2
 248 303.333984375 224 385.333984375 176 422.000976562 c 0
 154 438.000976562 124.666992188 450.333984375 88 459.000976562 c 1
 88 600.000976562 l 1
 162 615.333984375 208.333007812 653.000976562 227 713.000976562 c 0
 241 751.000976562 248 807.66796875 248 883.000976562 c 2
 248 1225.00097656 l 2
 248 1364.33398438 296.333007812 1449.66699219 393 1481 c 0
 417.666992188 1489 443.666992188 1493 471 1493 c 2
 565 1493 l 1
EndSplineSet
EndChar

StartChar: bar
Encoding: 124 124 94
Width: 532
GlyphClass: 2
Flags: W
LayerCount: 2
Fore
SplineSet
204 1493 m 1
 327 1493 l 1
 327 -434 l 1
 204 -434 l 1
 204 1493 l 1
EndSplineSet
EndChar

StartChar: braceright
Encoding: 125 125 95
Width: 684
GlyphClass: 2
Flags: W
LayerCount: 2
Fore
SplineSet
59 -434 m 1
 59.001953125 -300.997070312 l 1
 92.001953125 -300.997070312 l 2
 157.334960938 -300.997070312 197.66796875 -282.6640625 213.000976562 -245.997070312 c 0
 218.333984375 -230.6640625 221.666992188 -203.331054688 223 -163.998046875 c 2
 223 207.001953125 l 2
 223 371.001953125 279 478.001953125 391 528.001953125 c 1
 279 580.001953125 223 688.001953125 223 852.001953125 c 2
 223 1223.00195312 l 2
 223 1291.00195312 205.333007812 1332.66894531 170 1348.00195312 c 0
 152 1356.00195312 126 1360.00195312 92 1360.00195312 c 2
 59 1360.00195312 l 1
 59 1493.00195312 l 1
 156 1493.00195312 l 2
 269.333007812 1493.00195312 340.333007812 1437.66894531 369 1327.00195312 c 0
 377 1297.00195312 381 1263.00195312 381 1225.00195312 c 2
 381 883.001953125 l 2
 381 754.334960938 405.666992188 671.66796875 455 635.000976562 c 0
 475 618.333984375 502.333007812 606.666992188 537 600 c 1
 537 459 l 1
 465.666992188 443.666992188 419.666992188 404.666992188 399 342 c 0
 387 304 381 248.666992188 381 176 c 2
 381 -166 l 2
 381 -306.666992188 331 -392.666992188 231 -424 c 0
 208.333007812 -430.666992188 183.333007812 -434 156 -434 c 2
 59 -434 l 1
EndSplineSet
EndChar

StartChar: asciitilde
Encoding: 126 126 96
Width: 1196
GlyphClass: 2
Flags: W
LayerCount: 2
Fore
SplineSet
824 549 m 0
 769.333007812 549 713.999023438 566.666992188 657.999023438 602 c 2
 457.999023438 731 l 2
 432.666015625 744.333007812 403.333007812 754 370 760 c 1
 307.333007812 760 271 706.666992188 261 600 c 1
 153 600 l 1
 162.333007812 778.666992188 224.333007812 877 339 895 c 0
 373.666992188 898.333007812 406.666992188 895 438 885 c 0
 454 879.666992188 469.333007812 872.666992188 484 864 c 2
 724 723 l 2
 762 699.666992188 796 688 826 688 c 0
 886.666992188 688 921 721.333007812 929 788 c 1
 931 842 l 1
 1039 842 l 1
 1039 809 l 2
 1039 693 1000.33300781 614.333007812 923 573 c 0
 894.333007812 557 861.333007812 549 824 549 c 0
EndSplineSet
EndChar

StartChar: multiply
Encoding: 215 215 97
Width: 1390
GlyphClass: 2
Flags: W
LayerCount: 2
Fore
SplineSet
704 691 m 1
 1056.00195312 1028.99902344 l 2
 1083.33496094 1052.99902344 1107.00195312 1061.66601562 1127.00195312 1054.99902344 c 0
 1133.66894531 1052.33203125 1140.00195312 1047.99902344 1146.00195312 1041.99902344 c 0
 1160.00195312 1025.33203125 1161.66894531 1006.66503906 1151.00195312 985.998046875 c 0
 1145.66894531 975.331054688 1136.66894531 963.998046875 1124.00195312 951.998046875 c 2
 1101.00195312 929.998046875 l 1
 776.001953125 616.998046875 l 1
 1106.00195312 272.998046875 l 2
 1132.00195312 247.665039062 1141.00195312 222.998046875 1133.00195312 198.998046875 c 0
 1131.00195312 192.331054688 1127.33496094 185.331054688 1122.00195312 177.998046875 c 0
 1104.66894531 164.665039062 1085.66894531 163.33203125 1065.00195312 173.999023438 c 2
 1043.00195312 188.999023438 l 2
 1039.00195312 192.33203125 1035.00195312 196.33203125 1031.00195312 200.999023438 c 2
 1012.00195312 220.999023438 l 1
 701.001953125 543.999023438 l 1
 390.001953125 245.999023438 l 1
 352.001953125 208.999023438 l 2
 324.001953125 181.666015625 299.334960938 171.999023438 278.001953125 179.999023438 c 0
 272.001953125 182.666015625 266.334960938 186.333007812 261.001953125 191 c 0
 245.668945312 207 242.668945312 225.333007812 252.001953125 246 c 0
 257.334960938 256.666992188 265.66796875 268 277.000976562 280 c 2
 629.000976562 619 l 1
 318.000976562 942 l 1
 296.000976562 965 l 2
 271.333984375 991 262.666992188 1014.66699219 270 1036 c 0
 272.666992188 1043.33300781 277 1050.33300781 283 1057 c 0
 303 1069 324.333007812 1068.33300781 347 1055 c 0
 358.333007812 1048.33300781 370.333007812 1038.33300781 383 1025 c 2
 393 1014 l 1
 704 691 l 1
EndSplineSet
EndChar

StartChar: divide
Encoding: 247 247 98
Width: 1299
GlyphClass: 2
Flags: W
LayerCount: 2
Fore
SplineSet
98 710 m 1
 1221 710 l 1
 1221 540 l 1
 98 540 l 1
 98 710 l 1
610 1128 m 0
 657.333007812 1136 696.333984375 1127 727.000976562 1101 c 0
 742.333984375 1088.33300781 755.666992188 1071 767 1049 c 0
 781.666992188 1021.66699219 787.666992188 993.333984375 785 964.000976562 c 0
 785 960.66796875 784.666992188 957.000976562 784 953.000976562 c 0
 780 907.000976562 757.666992188 872.66796875 717 850.000976562 c 0
 693 836.000976562 672.666992188 829.000976562 656 829.000976562 c 0
 584.666992188 817.000976562 532.666992188 843.000976562 500 907.000976562 c 0
 480.666992188 943.000976562 474.666992188 978.000976562 482 1012.00097656 c 0
 485.333007812 1029.33398438 492.333007812 1046.66699219 503 1064 c 0
 517 1082.66699219 532.333007812 1096.66699219 549 1106 c 0
 573 1120.66699219 593.333007812 1128 610 1128 c 0
610.000976562 447 m 0
 657.333984375 455 696.333984375 446.331054688 727.000976562 420.998046875 c 0
 742.333984375 407.665039062 755.666992188 390.33203125 767 368.999023438 c 0
 781.666992188 341.666015625 787.666992188 313.333007812 785 284 c 0
 785 280.666992188 784.666992188 277 784 273 c 0
 780 227 757.666992188 192.666992188 717 170 c 0
 693 155.333007812 672.666992188 148 656 148 c 0
 608.666992188 140 570 148.666992188 540 174 c 0
 524.666992188 187.333007812 511.333984375 205 500.000976562 227 c 0
 483.333984375 257.666992188 477.333984375 289.666992188 482.000976562 323 c 0
 486.000976562 369 508.333984375 403.333007812 549.000976562 426 c 0
 573.000976562 440 593.333984375 447 610.000976562 447 c 0
EndSplineSet
EndChar

StartChar: danda
Encoding: 2404 2404 99
Width: 603
GlyphClass: 2
Flags: W
LayerCount: 2
Fore
SplineSet
458 1198 m 1
 458 0 l 1
 324 0 l 1
 328 1198 l 1
 458 1198 l 1
EndSplineSet
EndChar

StartChar: doubledanda
Encoding: 2405 2405 100
Width: 870
GlyphClass: 2
Flags: W
LayerCount: 2
Fore
SplineSet
628 1116 m 1
 619 144 l 1
 519 32 l 1
 526 998 l 1
 628 1116 l 1
320 1096 m 1
 324 124 l 1
 225 22 l 1
 226 978 l 1
 320 1096 l 1
EndSplineSet
EndChar

StartChar: u0981
Encoding: 2433 2433 101
Width: 12
GlyphClass: 2
Flags: MW
HStem: 1536 120.953 1724 209<-223.5 -186>
VStem: -544 115 -335 264<1827 1827> 15 127
LayerCount: 2
Fore
SplineSet
-296 1753 m 0
 -321 1772 -334 1797 -335 1827 c 0
 -334 1858 -321 1884 -296 1904 c 0
 -271 1923 -241 1933 -206 1933 c 0
 -166 1933 -133 1923 -108 1904 c 0
 -83 1885 -71 1859 -71 1827 c 0
 -70 1807 -75 1789 -86 1774 c 2
 -102 1758 l 2
 -103 1756 -105 1754 -108 1753 c 0
 -133 1734 -166 1724 -206 1724 c 0
 -241 1724 -271 1734 -296 1753 c 0
-352 1704 m 0
 -313.248046875 1672.02929688 -271.678710938 1656.953125 -228.204101562 1656.953125 c 0
 -226.8046875 1656.953125 -225.403320312 1656.96875 -224 1657 c 2
 -220 1657 l 1
 -147 1661 -93 1679 -60 1712 c 0
 -37 1734 -12 1780 15 1849 c 1
 37 1862 56 1868 73 1868 c 0
 102 1868 125 1852 142 1821 c 1
 121 1675 26 1581 -142 1538 c 0
 -158 1537 -174 1536 -189 1536 c 0
 -289 1536 -371 1559 -434 1605 c 0
 -507 1657 -544 1729 -544 1821 c 1
 -526 1848 -509 1862 -493 1862 c 0
 -478 1862 -456 1852 -429 1831 c 1
 -420 1780 -394 1738 -352 1704 c 0
EndSplineSet
EndChar

StartChar: u0982
Encoding: 2434 2434 102
Width: 964
GlyphClass: 2
Flags: MW
HStem: 877 116<393 447> 1260.19 113.807
VStem: 206 127<1061.5 1100> 570 123<1155 1196.58>
LayerCount: 2
Fore
SplineSet
949 123 m 0
 949 109 941 97 926 88 c 0
 911 79 895 74 878 74 c 0
 859 74 842 79 828 90 c 2
 237 690 l 1
 230 704 226 717 226 729 c 0
 226 763 244 780 280 780 c 0
 296 780 312 775 329 764 c 1
 935 152 l 2
 944 142 949 132 949 123 c 0
347 1165 m 0
 338 1142 333 1119 333 1096 c 0
 333 1027 363 993 423 993 c 0
 478 993 523 1027 558 1094 c 1
 566 1121 570 1145 570 1165 c 0
 570 1228.16992188 539.76953125 1260.19335938 480.185546875 1260.19335938 c 0
 477.515625 1260.19335938 474.787109375 1260.12890625 472 1260 c 0
 412 1255 370 1224 347 1165 c 0
693 1159 m 0
 693 1142 692 1123 689 1102 c 0
 681 1043 649 991 592 946 c 0
 535 900 477 877 417 877 c 0
 357 877 307 898 266 939 c 0
 226 980 206 1031 206 1090 c 0
 206 1110 209 1130 214 1151 c 0
 253 1300 339 1374 472 1374 c 0
 619 1374 693 1302 693 1159 c 0
EndSplineSet
EndChar

StartChar: u0983
Encoding: 2435 2435 103
Width: 897
GlyphClass: 2
Flags: W
LayerCount: 2
Fore
SplineSet
409 446 m 0
 381.666992188 413.333007812 364.33203125 375.333984375 356.999023438 332.000976562 c 1
 356.33203125 304.000976562 360.33203125 280.000976562 368.999023438 260.000976562 c 0
 372.999023438 250.000976562 378.666015625 240.66796875 385.999023438 232.000976562 c 0
 406.666015625 208.66796875 433.333007812 197.000976562 466 197.000976562 c 0
 521.333007812 197.000976562 567 222.000976562 603 272.000976562 c 0
 633 313.333984375 648 355.666992188 648 399 c 0
 648 473 606.333007812 510.666992188 523 512 c 1
 478.333007812 506.666992188 440.333007812 484.666992188 409 446 c 0
496.998046875 1362.00097656 m 2
 575.665039062 1362.00097656 638.329101562 1337.33398438 684.99609375 1288.00097656 c 0
 728.99609375 1243.33398438 750.99609375 1187.33398438 750.99609375 1120.00097656 c 0
 750.99609375 1096.66796875 747.329101562 1073.66796875 739.99609375 1051.00097656 c 0
 730.663085938 995.000976562 706.330078125 944.333984375 666.997070312 899.000976562 c 0
 605.6640625 828.333984375 527.6640625 793.000976562 432.997070312 793.000976562 c 0
 367.6640625 793.000976562 313.331054688 815.333984375 269.998046875 860.000976562 c 0
 227.331054688 904.000976562 205.998046875 960.66796875 205.998046875 1030.00097656 c 0
 205.998046875 1131.33398438 241.998046875 1217.00097656 313.998046875 1287.00097656 c 0
 364.665039062 1335.66796875 423.665039062 1360.66796875 490.998046875 1362.00097656 c 2
 496.998046875 1362.00097656 l 2
526.995117188 72.0009765625 m 0
 509.662109375 69.333984375 493.326171875 68 477.993164062 68 c 0
 404.66015625 68 346.66015625 90 303.993164062 134 c 0
 260.66015625 178.666992188 236.66015625 240.333984375 231.993164062 319.000976562 c 1
 236.66015625 405.66796875 267.327148438 481.334960938 323.994140625 546.001953125 c 0
 380.661132812 610.668945312 451.328125 643.001953125 535.995117188 643.001953125 c 0
 602.662109375 643.001953125 658.662109375 621.334960938 703.995117188 578.001953125 c 0
 751.328125 531.334960938 774.995117188 468.66796875 774.995117188 390.000976562 c 0
 774.995117188 378.66796875 774.328125 366.66796875 772.995117188 354.000976562 c 0
 745.662109375 216.000976562 663.662109375 122.000976562 526.995117188 72.0009765625 c 0
376.9921875 1168 m 0
 343.659179688 1126.66699219 326.9921875 1082 326.9921875 1034 c 0
 326.9921875 996 338.659179688 967.333007812 361.9921875 948 c 0
 384.659179688 928 411.659179688 918 442.9921875 918 c 0
 500.9921875 918 548.325195312 946.666992188 584.9921875 1004 c 0
 609.659179688 1042 621.9921875 1080.66699219 621.9921875 1120 c 0
 621.9921875 1194 580.9921875 1232.33300781 498.9921875 1235 c 1
 450.9921875 1232.33300781 410.325195312 1210 376.9921875 1168 c 0
EndSplineSet
EndChar

StartChar: u0985
Encoding: 2437 2437 104
Width: 1707
GlyphClass: 2
Flags: W
LayerCount: 2
Fore
SplineSet
806 1249 m 1
 900 1159.00097656 l 1
 978 1138.33398438 1035.33300781 1118.66699219 1072 1100 c 0
 1126.66699219 1070 1165 1030.33300781 1187 981 c 1
 1247 891 1277 793.333007812 1277 688 c 0
 1277 632 1267.33300781 580 1248 532 c 1
 1445 287 l 1
 1445 1249 l 1
 806 1249 l 1
1572 1249.00097656 m 1
 1571.99804688 145.001953125 l 1
 1563.99804688 101.668945312 1539.99804688 80.001953125 1499.99804688 80.001953125 c 0
 1482.66503906 80.001953125 1467.66503906 87.3349609375 1454.99804688 102.001953125 c 2
 1194.99804688 406.001953125 l 1
 1115.66503906 264.001953125 1002.33203125 193.001953125 854.999023438 193.001953125 c 0
 788.33203125 193.001953125 715.33203125 208.001953125 635.999023438 238.001953125 c 0
 484.666015625 296.668945312 356.333007812 410.668945312 251 580.001953125 c 0
 158.333007812 728.668945312 94.666015625 897.001953125 59.9990234375 1085.00195312 c 1
 73.9990234375 1118.33496094 93.9990234375 1135.00195312 119.999023438 1135.00195312 c 0
 137.33203125 1135.00195312 155.665039062 1126.00195312 174.998046875 1108.00195312 c 1
 207.665039062 929.334960938 268.33203125 772.334960938 356.999023438 637.001953125 c 0
 463.666015625 477.001953125 594.333007812 374.668945312 749 330.001953125 c 0
 780.333007812 320.001953125 813 315.001953125 847 315.001953125 c 0
 925 315.001953125 985.666992188 336.334960938 1029 379.001953125 c 0
 1113.66699219 459.668945312 1156 566.668945312 1156 700.001953125 c 0
 1156 861.334960938 1094 971.334960938 970 1030.00195312 c 1
 940 1034.00195312 913.333007812 1036.00195312 890 1036.00195312 c 0
 791.333007812 1036.00195312 742 990.334960938 742 899.001953125 c 0
 742 867.668945312 747.666992188 830.668945312 759 788.001953125 c 1
 745 754.001953125 723.666992188 737.001953125 695 737.001953125 c 0
 676.333007812 737.001953125 657.333007812 746.668945312 638 766.001953125 c 1
 626 819.334960938 620 865.001953125 620 903.001953125 c 0
 620 1000.33496094 667 1074.66796875 761 1126.00097656 c 1
 630 1249.00097656 l 1
 -23 1249.00097656 l 1
 -23 1378.00097656 l 1
 1698 1378.00097656 l 1
 1698 1249.00097656 l 1
 1572 1249.00097656 l 1
EndSplineSet
EndChar

StartChar: u0986
Encoding: 2438 2438 105
Width: 2063
GlyphClass: 2
Flags: W
LayerCount: 2
Fore
SplineSet
808 1249 m 1
 902 1159.00097656 l 1
 980 1138.33398438 1037.33300781 1118.66699219 1074 1100 c 0
 1128.66699219 1070 1167 1030.33300781 1189 981 c 1
 1249 891 1279 793.333007812 1279 688 c 0
 1279 632 1269.33300781 580 1250 532 c 1
 1447 287 l 1
 1447 1249 l 1
 808 1249 l 1
1574 1249.00097656 m 1
 1573.99804688 145.001953125 l 1
 1565.99804688 101.668945312 1541.99804688 80.001953125 1501.99804688 80.001953125 c 0
 1484.66503906 80.001953125 1469.66503906 87.3349609375 1456.99804688 102.001953125 c 2
 1196.99804688 406.001953125 l 1
 1117.66503906 264.001953125 1004.33203125 193.001953125 856.999023438 193.001953125 c 0
 790.33203125 193.001953125 717.33203125 208.001953125 637.999023438 238.001953125 c 0
 486.666015625 296.668945312 358.333007812 410.668945312 253 580.001953125 c 0
 160.333007812 728.668945312 96.666015625 897.001953125 61.9990234375 1085.00195312 c 1
 75.9990234375 1118.33496094 95.9990234375 1135.00195312 121.999023438 1135.00195312 c 0
 139.33203125 1135.00195312 157.665039062 1126.00195312 176.998046875 1108.00195312 c 1
 209.665039062 929.334960938 270.33203125 772.334960938 358.999023438 637.001953125 c 0
 465.666015625 477.001953125 596.333007812 374.668945312 751 330.001953125 c 0
 782.333007812 320.001953125 815 315.001953125 849 315.001953125 c 0
 927 315.001953125 987.666992188 336.334960938 1031 379.001953125 c 0
 1115.66699219 459.668945312 1158 566.668945312 1158 700.001953125 c 0
 1158 861.334960938 1096 971.334960938 972 1030.00195312 c 1
 942 1034.00195312 915.333007812 1036.00195312 892 1036.00195312 c 0
 793.333007812 1036.00195312 744 990.334960938 744 899.001953125 c 0
 744 867.668945312 749.666992188 830.668945312 761 788.001953125 c 1
 747 754.001953125 725.666992188 737.001953125 697 737.001953125 c 0
 678.333007812 737.001953125 659.333007812 746.668945312 640 766.001953125 c 1
 628 819.334960938 622 865.001953125 622 903.001953125 c 0
 622 1000.33496094 669 1074.66796875 763 1126.00097656 c 1
 632 1249.00097656 l 1
 -21 1249.00097656 l 1
 -21 1378.00097656 l 1
 2068 1378.00097656 l 1
 2068 1249.00097656 l 1
 1928 1249.00097656 l 1
 1928 127.000976562 l 2
 1928 106.333984375 1908 96.0009765625 1868 96.0009765625 c 0
 1831.33300781 96.0009765625 1813 107.66796875 1813 131.000976562 c 2
 1813 1249.00097656 l 1
 1574 1249.00097656 l 1
EndSplineSet
EndChar

StartChar: u0987
Encoding: 2439 2439 106
Width: 887
GlyphClass: 2
Flags: W
LayerCount: 2
Fore
SplineSet
818 1376 m 1
 857.333007812 1376.66699219 894.665039062 1377.33203125 929.998046875 1377.99902344 c 1
 929.998046875 1248.99902344 l 1
 374.998046875 1248.99902344 l 2
 372.331054688 1248.99902344 374.331054688 1247.66601562 380.998046875 1244.99902344 c 0
 384.331054688 1243.66601562 388.998046875 1241.66601562 394.998046875 1238.99902344 c 0
 419.665039062 1229.66601562 435.33203125 1220.66601562 441.999023438 1211.99902344 c 1
 455.999023438 1215.33203125 470.999023438 1216.99902344 486.999023438 1216.99902344 c 0
 571.666015625 1216.99902344 646.333007812 1192.33203125 711 1142.99902344 c 0
 795.666992188 1076.99902344 838 979.999023438 838 851.999023438 c 0
 838 828.666015625 836.666992188 805.333007812 834 782 c 0
 783.333007812 585.333007812 607 468.666015625 305 431.999023438 c 1
 1024 -12.0009765625 l 1
 1026.66699219 -20.66796875 1028 -29.0009765625 1028 -37.0009765625 c 0
 1028 -74.333984375 1008.33300781 -92.0009765625 969 -90.0009765625 c 2
 963 -90.0009765625 l 1
 57 464.999023438 l 1
 45 480.999023438 39 497.999023438 39 515.999023438 c 0
 39 553.999023438 56 572.999023438 90 572.999023438 c 0
 96.6669921875 572.999023438 104.333984375 571.666015625 113.000976562 568.999023438 c 0
 169.000976562 560.999023438 222.000976562 556.999023438 272.000976562 556.999023438 c 0
 500.000976562 556.999023438 647.66796875 635.666015625 715.000976562 792.999023438 c 1
 719.000976562 812.999023438 721.000976562 833.999023438 721.000976562 855.999023438 c 0
 721.000976562 914.666015625 704.66796875 966.666015625 672.000976562 1011.99902344 c 0
 631.333984375 1069.33203125 567.666992188 1097.99902344 481 1097.99902344 c 0
 323 1097.99902344 239.666992188 1015.99902344 231 851.999023438 c 1
 219 832.666015625 200 822.999023438 174 822.999023438 c 0
 145.333007812 822.999023438 126.333007812 837.33203125 117 865.999023438 c 1
 117 929.33203125 134.666992188 990.999023438 170 1050.99902344 c 0
 205.333007812 1110.99902344 251.666015625 1152.66601562 308.999023438 1175.99902344 c 1
 218.999023438 1248.99902344 l 1
 -14.0009765625 1248.99902344 l 1
 -14.0009765625 1377.99902344 l 1
 686.999023438 1374.99902344 l 1
 682.33203125 1474.33203125 628.999023438 1541.99902344 526.999023438 1577.99902344 c 0
 482.33203125 1593.33203125 429.665039062 1601.99902344 368.998046875 1603.99902344 c 2
 210.998046875 1603.99902344 l 1
 19.6650390625 1627.33203125 -101.66796875 1652.66503906 -153.000976562 1679.99804688 c 0
 -237.66796875 1725.33105469 -286.000976562 1820.33105469 -298.000976562 1964.99804688 c 0
 -300.000976562 1982.99804688 -291.000976562 1994.99804688 -271.000976562 2000.99804688 c 0
 -261.000976562 2004.33105469 -247.66796875 2005.99804688 -231.000976562 2005.99804688 c 0
 -197.000976562 2005.99804688 -180.000976562 1996.99804688 -180.000976562 1978.99804688 c 0
 -178.66796875 1879.66503906 -143.66796875 1811.33203125 -75.0009765625 1773.99902344 c 0
 -25.66796875 1748.66601562 56.9990234375 1735.33300781 172.999023438 1734 c 2
 337.999023438 1734 l 2
 380.666015625 1734 418.333007812 1732.33300781 451 1729 c 0
 555 1722.33300781 640.333007812 1689.66601562 707 1630.99902344 c 0
 771 1575.66601562 807.333007812 1499.33300781 816 1402 c 2
 818 1376 l 1
EndSplineSet
EndChar

StartChar: u0988
Encoding: 2440 2440 107
Width: 1187
GlyphClass: 2
Flags: W
LayerCount: 2
Fore
SplineSet
155 1898 m 1
 160.333007812 1794.66699219 198.997070312 1725.32617188 270.997070312 1689.99316406 c 0
 320.330078125 1666.66015625 406.330078125 1654.99316406 528.997070312 1654.99316406 c 2
 604.997070312 1654.99316406 l 2
 800.997070312 1654.99316406 935.6640625 1632.99316406 1008.99707031 1588.99316406 c 0
 1076.99707031 1548.32617188 1109.33007812 1481.32617188 1105.99707031 1387.99316406 c 0
 1105.33007812 1384.66015625 1104.99707031 1381.32714844 1104.99707031 1377.99414062 c 2
 1215.99707031 1377.99414062 l 1
 1215.99707031 1248.99414062 l 1
 219.997070312 1248.99414062 l 1
 322.997070312 1127.99414062 l 1
 338.997070312 1131.32714844 354.6640625 1132.99414062 369.997070312 1132.99414062 c 0
 461.330078125 1132.99414062 534.330078125 1094.66113281 588.997070312 1017.99414062 c 0
 638.330078125 950.661132812 660.330078125 873.994140625 654.997070312 787.994140625 c 0
 654.997070312 782.661132812 654.6640625 777.328125 653.997070312 771.995117188 c 1
 743.330078125 852.662109375 799.330078125 901.995117188 821.997070312 919.995117188 c 0
 935.330078125 1008.66210938 1021.33007812 1053.66210938 1079.99707031 1054.99511719 c 0
 1107.99707031 1055.66210938 1126.6640625 1049.32910156 1135.99707031 1035.99609375 c 0
 1141.33007812 1028.66308594 1143.99707031 1019.33007812 1143.99707031 1007.99707031 c 0
 1143.99707031 999.330078125 1142.6640625 990.997070312 1139.99707031 982.997070312 c 0
 1035.99707031 715.6640625 983.997070312 491.6640625 983.997070312 310.997070312 c 0
 983.997070312 171.6640625 1009.99707031 33.9970703125 1061.99707031 -102.002929688 c 1
 1056.6640625 -136.669921875 1036.33105469 -154.002929688 1000.99804688 -154.002929688 c 0
 984.331054688 -154.002929688 968.331054688 -149.002929688 952.998046875 -139.002929688 c 1
 898.998046875 9.6640625 871.998046875 161.6640625 871.998046875 316.997070312 c 0
 871.998046875 504.330078125 910.665039062 698.330078125 987.998046875 898.997070312 c 1
 918.665039062 864.997070312 835.998046875 797.997070312 739.998046875 697.997070312 c 0
 607.998046875 557.330078125 532.331054688 478.330078125 512.998046875 460.997070312 c 0
 425.665039062 385.6640625 343.665039062 347.997070312 266.998046875 347.997070312 c 0
 210.998046875 347.997070312 154.331054688 366.330078125 96.998046875 402.997070312 c 0
 90.3310546875 411.6640625 86.998046875 421.997070312 86.998046875 433.997070312 c 0
 86.998046875 470.6640625 108.331054688 492.6640625 150.998046875 499.997070312 c 1
 194.331054688 476.6640625 233.6640625 464.997070312 268.997070312 464.997070312 c 0
 337.6640625 464.997070312 412.331054688 512.6640625 492.998046875 607.997070312 c 1
 529.665039062 669.330078125 547.998046875 732.997070312 547.998046875 798.997070312 c 0
 547.998046875 873.6640625 522.665039062 932.331054688 471.998046875 974.998046875 c 0
 436.665039062 1003.66503906 399.33203125 1017.99804688 359.999023438 1017.99804688 c 0
 307.999023438 1017.99804688 263.33203125 995.998046875 225.999023438 951.998046875 c 0
 189.999023438 909.331054688 172.33203125 858.331054688 172.999023438 798.998046875 c 1
 160.999023438 782.331054688 143.33203125 773.998046875 119.999023438 773.998046875 c 0
 93.9990234375 773.998046875 74.33203125 783.665039062 60.9990234375 802.998046875 c 1
 57.666015625 884.331054688 78.666015625 952.998046875 123.999023438 1008.99804688 c 0
 146.666015625 1036.99804688 175.333007812 1061.66503906 210 1082.99804688 c 1
 77 1248.99804688 l 1
 -31 1248.99804688 l 1
 -31 1377.99804688 l 1
 994 1377.99804688 l 1
 998.666992188 1393.33105469 1001 1406.99804688 1001 1418.99804688 c 0
 1001 1490.33105469 938 1529.99804688 812 1537.99804688 c 0
 787.333007812 1539.33105469 708.333007812 1539.99804688 575 1539.99804688 c 0
 511 1539.33105469 454.666992188 1541.99804688 406 1547.99804688 c 0
 382 1550.66503906 359.666992188 1554.33203125 339 1558.99902344 c 0
 237.666992188 1581.66601562 169.333984375 1610.33300781 134.000976562 1645 c 0
 88.0009765625 1689.66699219 58.66796875 1770 46.0009765625 1886 c 1
 51.333984375 1913.33300781 67.6669921875 1927 95 1927 c 0
 118.333007812 1927 138.333007812 1917.33300781 155 1898 c 1
EndSplineSet
EndChar

StartChar: u0999
Encoding: 2441 2441 108
Width: 1505
GlyphClass: 2
Flags: W
LayerCount: 2
Fore
SplineSet
1104 1378 m 1
 1100.66699219 1493.33300781 1030.32910156 1564.66796875 892.99609375 1592.00097656 c 0
 860.99609375 1598.00097656 825.329101562 1601.66796875 785.99609375 1603.00097656 c 2
 627.99609375 1603.00097656 l 1
 435.99609375 1626.33398438 314.663085938 1651.66699219 263.99609375 1679 c 0
 179.329101562 1724.33300781 130.99609375 1819.33300781 118.99609375 1964 c 0
 116.99609375 1982 125.99609375 1994 145.99609375 2000 c 0
 155.99609375 2003.33300781 169.329101562 2005 185.99609375 2005 c 0
 219.99609375 2005 236.99609375 1996 236.99609375 1978 c 0
 238.329101562 1878.66699219 273.329101562 1810.33398438 341.99609375 1773.00097656 c 0
 391.329101562 1747.66796875 473.99609375 1734.33496094 589.99609375 1733.00195312 c 2
 754.99609375 1733.00195312 l 2
 797.663085938 1733.00195312 835.330078125 1731.33496094 867.997070312 1728.00195312 c 0
 971.997070312 1721.33496094 1057.33007812 1688.66796875 1123.99707031 1630.00097656 c 0
 1195.99707031 1568.00097656 1232.99707031 1484.00097656 1234.99707031 1378.00097656 c 1
 1502.99707031 1378.00097656 l 1
 1502.99707031 1249.00097656 l 1
 720.997070312 1249.00097656 l 1
 720.997070312 723.000976562 l 1
 730.330078125 695.66796875 746.663085938 682.000976562 769.99609375 682.000976562 c 0
 806.663085938 682.000976562 854.99609375 711.333984375 914.99609375 770.000976562 c 0
 968.329101562 823.333984375 1020.32910156 887.666992188 1070.99609375 963 c 0
 1078.99609375 976.333007812 1092.66308594 983 1111.99609375 983 c 0
 1140.66308594 983 1166.66308594 971.333007812 1189.99609375 948 c 0
 1296.66308594 847.333007812 1349.99609375 733.333007812 1349.99609375 606 c 0
 1349.99609375 540.666992188 1336.32910156 468.333984375 1308.99609375 389.000976562 c 1
 1206.32910156 180.333984375 1066.99609375 74.6669921875 890.99609375 72 c 0
 889.426757812 71.986328125 887.857421875 71.9794921875 886.288085938 71.9794921875 c 0
 812.551757812 71.9794921875 739.454101562 87.3193359375 666.99609375 118 c 0
 629.663085938 134 592.330078125 154 554.997070312 178 c 0
 464.997070312 238 390.6640625 311.666992188 331.997070312 399 c 0
 226.6640625 555 136.331054688 764.666992188 60.998046875 1028 c 0
 60.3310546875 1038 62.3310546875 1047 66.998046875 1055 c 0
 69.6650390625 1059.66699219 73.33203125 1064 77.9990234375 1068 c 0
 89.9990234375 1079.33300781 104.999023438 1085 122.999023438 1085 c 0
 143.666015625 1085 160.666015625 1077.66699219 173.999023438 1063 c 1
 246.666015625 836.333007812 311.666015625 673.666015625 368.999023438 574.999023438 c 1
 417.666015625 467.666015625 489.333007812 377.333007812 584 304 c 0
 679.333007812 230 776 193 874 193 c 0
 986 193 1079.66699219 243.333007812 1155 344 c 0
 1205.66699219 412 1231 492 1231 584 c 0
 1231 686 1200.33300781 772.666992188 1139 844 c 1
 1047 740 987.666992188 676.333007812 961 653 c 0
 885.666992188 589 809.666992188 557 733 557 c 1
 640.333007812 571 594 646 594 782 c 2
 594 1249 l 1
 -12 1249 l 1
 -12 1378 l 1
 1104 1378 l 1
EndSplineSet
EndChar

StartChar: u098a
Encoding: 2442 2442 109
Width: 1593
GlyphClass: 2
Flags: W
LayerCount: 2
Fore
SplineSet
453 1698 m 0
 514.333007812 1673.33300781 618.665039062 1661 765.998046875 1661 c 2
 841.998046875 1663 l 2
 952.665039062 1663 1032.33203125 1656 1080.99902344 1642 c 0
 1149.66601562 1624.66699219 1202.33300781 1593.33398438 1239 1548.00097656 c 0
 1273 1508.66796875 1290 1463.66796875 1290 1413.00097656 c 0
 1290 1402.33398438 1288.66699219 1390.66699219 1286 1378 c 1
 1612 1378 l 1
 1612 1249 l 1
 823 1249 l 1
 823 711 l 1
 834.333007812 682.333007812 851.333007812 668 874 668 c 0
 941.333007812 668 1042.66601562 762.666992188 1177.99902344 952 c 0
 1188.66601562 971.333007812 1206.33300781 981 1231 981 c 0
 1247 981 1261.33300781 976.333007812 1274 967 c 0
 1395.33300781 867.666992188 1454 735.666992188 1450 571 c 1
 1450 561 l 1
 1446 437 1403 326.333007812 1321 229 c 0
 1232.33300781 124.333007812 1121.66601562 72 988.999023438 72 c 0
 871.666015625 72 748.666015625 106.666992188 619.999023438 176 c 0
 490.666015625 246 388.999023438 333.333007812 314.999023438 438 c 0
 185.666015625 622.666992188 100.999023438 842.666992188 60.9990234375 1098 c 1
 65.666015625 1130.66699219 83.666015625 1147 114.999023438 1147 c 0
 138.33203125 1147 157.999023438 1136.66699219 173.999023438 1116 c 1
 206.666015625 963.333007812 237.333007812 848.666015625 266 771.999023438 c 0
 303.333007812 673.999023438 356 581.999023438 424 495.999023438 c 1
 330 771.999023438 l 2
 300 863.33203125 280 960.33203125 270 1062.99902344 c 1
 281.333007812 1091.66601562 298.666015625 1105.99902344 321.999023438 1105.99902344 c 0
 343.33203125 1105.99902344 363.665039062 1093.66601562 382.998046875 1068.99902344 c 1
 410.331054688 872.33203125 463.6640625 687.999023438 542.997070312 515.999023438 c 0
 576.997070312 442.666015625 622.6640625 377.999023438 679.997070312 321.999023438 c 0
 768.6640625 233.999023438 868.997070312 189.999023438 980.997070312 189.999023438 c 0
 1150.33007812 189.999023438 1262.99707031 290.666015625 1318.99707031 491.999023438 c 0
 1326.99707031 521.999023438 1330.99707031 553.999023438 1330.99707031 587.999023438 c 0
 1330.99707031 691.33203125 1300.33007812 773.33203125 1238.99707031 833.999023438 c 1
 1147.6640625 736.666015625 1092.33105469 679.999023438 1072.99804688 663.999023438 c 0
 982.998046875 584.666015625 906.665039062 544.999023438 843.998046875 544.999023438 c 0
 776.665039062 544.999023438 727.33203125 591.999023438 695.999023438 685.999023438 c 1
 695.999023438 1248.99902344 l 1
 -20.0009765625 1248.99902344 l 1
 -20.0009765625 1377.99902344 l 1
 1150.99902344 1377.99902344 l 1
 1153.66601562 1390.66601562 1154.99902344 1402.33300781 1154.99902344 1413 c 0
 1154.99902344 1467.66699219 1117.99902344 1505.33398438 1043.99902344 1526.00097656 c 0
 988.666015625 1541.33398438 904.333007812 1548.00097656 791 1546.00097656 c 2
 770 1546.00097656 l 2
 658 1544.00097656 565.666992188 1550.33398438 493 1565.00097656 c 0
 456.333007812 1572.33398438 424.333007812 1581.66699219 397 1593 c 0
 270.333007812 1645 205 1749 201 1905 c 1
 221 1927.66699219 242.666992188 1939 266 1939 c 0
 284 1939 300.333007812 1931.66699219 315 1917 c 1
 312.333007812 1807.66699219 358.333007812 1734.66699219 453 1698 c 0
EndSplineSet
EndChar

StartChar: u098b
Encoding: 2443 2443 110
Width: 1480
GlyphClass: 2
Flags: W
LayerCount: 2
Fore
SplineSet
861 1006 m 1
 366 700 l 1
 861 252 l 1
 861 1006 l 1
1273 1409 m 0
 1315 1409 1336.00097656 1397.33300781 1336.00097656 1374 c 2
 1336.00097656 332 l 2
 1336.00097656 298 1311.00097656 281 1261.00097656 281 c 0
 1236.33398438 281 1219.00097656 287 1209.00097656 299 c 2
 988.000976562 557 l 1
 988.000976562 117 l 2
 988.000976562 81 960.66796875 63 906.000976562 63 c 0
 887.333984375 63 872.333984375 68 861.000976562 78 c 2
 224.000976562 672 l 2
 214.66796875 681.333007812 210.000976562 692.333007812 210.000976562 705 c 0
 210.000976562 726.333007812 219.66796875 746 239.000976562 764 c 1
 695.000976562 1051 l 1
 603.000976562 1151 l 1
 536.333984375 1073 456.666992188 1034 364 1034 c 0
 246 1034 151.666992188 1087.33300781 81 1194 c 0
 79.6669921875 1199.33300781 79 1205.33300781 79 1212 c 0
 79 1250.66699219 103.666992188 1270 153 1270 c 0
 162.333007812 1270 171 1269.33300781 179 1268 c 1
 224.333007812 1190 285 1151 361 1151 c 0
 437.666992188 1151 493.666992188 1190 529 1268 c 1
 552.333007812 1291.33300781 580.333007812 1300 613 1294 c 0
 619 1293.33300781 625.333007812 1292 632 1290 c 2
 802 1110 l 1
 861 1151 l 1
 861 1370 l 2
 861 1394.66699219 883.666992188 1407 929 1407 c 0
 968.333007812 1407 988 1396 988 1374 c 2
 988 741 l 1
 1209 492 l 1
 1209 1374 l 2
 1209 1397.33300781 1230.33300781 1409 1273 1409 c 0
EndSplineSet
EndChar

StartChar: u098c
Encoding: 2444 2444 111
Width: 1314
GlyphClass: 2
Flags: W
LayerCount: 2
Fore
SplineSet
294 1223 m 0
 320 1209 404.668945312 1177.33007812 548.001953125 1127.99707031 c 0
 729.334960938 1065.33007812 867.334960938 998.663085938 962.001953125 927.99609375 c 0
 1098.66894531 823.99609375 1167.00195312 698.99609375 1167.00195312 552.99609375 c 0
 1167.00195312 507.663085938 1160.66894531 460.663085938 1148.00195312 411.99609375 c 1
 1111.33496094 314.663085938 1043.00195312 234.663085938 943.001953125 171.99609375 c 0
 850.334960938 113.329101562 748.66796875 79.99609375 638.000976562 71.99609375 c 1
 590.000976562 79.99609375 566.000976562 94.99609375 566.000976562 116.99609375 c 0
 566.000976562 126.329101562 571.66796875 139.329101562 583.000976562 155.99609375 c 1
 595.000976562 191.329101562 607.500976562 226.329101562 620.500976562 260.99609375 c 0
 633.500976562 295.663085938 640.000976562 327.330078125 640.000976562 355.997070312 c 0
 640.000976562 391.997070312 632.000976562 430.997070312 616.000976562 472.997070312 c 1
 578.66796875 542.997070312 519.66796875 577.997070312 439.000976562 577.997070312 c 0
 394.333984375 577.997070312 353.666992188 563.6640625 317 534.997070312 c 0
 273 494.997070312 251 442.330078125 251 376.997070312 c 0
 251 330.330078125 262.666992188 280.997070312 286 228.997070312 c 0
 288.666992188 215.6640625 287.666992188 204.331054688 283 194.998046875 c 0
 280.333007812 189.665039062 276.666015625 185.33203125 271.999023438 181.999023438 c 0
 259.33203125 169.999023438 243.33203125 163.999023438 223.999023438 163.999023438 c 0
 199.999023438 163.999023438 184.33203125 171.33203125 176.999023438 185.999023438 c 0
 146.999023438 247.999023438 131.999023438 311.666015625 131.999023438 376.999023438 c 0
 131.999023438 451.666015625 151.33203125 515.666015625 189.999023438 568.999023438 c 0
 251.33203125 653.666015625 335.33203125 695.999023438 441.999023438 695.999023438 c 0
 503.33203125 695.999023438 559.999023438 679.666015625 611.999023438 646.999023438 c 0
 664.666015625 614.33203125 702.333007812 569.999023438 725 513.999023438 c 0
 747.666992188 457.999023438 759 403.999023438 759 351.999023438 c 0
 759 308.666015625 750.666992188 260.999023438 734 208.999023438 c 1
 824.666992188 232.33203125 898 271.33203125 954 325.999023438 c 0
 1016.66699219 387.33203125 1048 459.665039062 1048 542.998046875 c 0
 1048 568.998046875 1044.33300781 595.665039062 1037 622.998046875 c 0
 1013 728.998046875 943 817.665039062 827 888.998046875 c 0
 763.666992188 925.665039062 656.333984375 970.665039062 505.000976562 1023.99804688 c 0
 342.333984375 1081.33105469 242.666992188 1120.33105469 206 1140.99804688 c 0
 118.666992188 1189.66503906 75 1254.33203125 75 1334.99902344 c 0
 76.3330078125 1370.99902344 94 1388.99902344 128 1388.99902344 c 0
 168 1388.99902344 190 1372.99902344 194 1340.99902344 c 1
 191.333007812 1311.66601562 205 1284.33300781 235 1259 c 0
 250.333007812 1246.33300781 270 1234.33300781 294 1223 c 0
EndSplineSet
EndChar

StartChar: u098f
Encoding: 2447 2447 112
Width: 1388
GlyphClass: 2
Flags: W
LayerCount: 2
Fore
SplineSet
1248 1106 m 2
 1248.00097656 122.998046875 l 2
 1248.00097656 110.331054688 1237.50097656 98.998046875 1216.50097656 88.998046875 c 0
 1195.50097656 78.998046875 1174.66796875 73.998046875 1154.00097656 73.998046875 c 0
 1137.33398438 73.998046875 1126.33398438 77.998046875 1121.00097656 85.998046875 c 0
 1035.00097656 199.331054688 927.333984375 255.998046875 798.000976562 255.998046875 c 0
 758.000976562 255.998046875 697.16796875 249.498046875 615.500976562 236.498046875 c 0
 533.833984375 223.498046875 472.333984375 216.998046875 431.000976562 216.998046875 c 0
 394.333984375 216.998046875 360.333984375 220.331054688 329.000976562 226.998046875 c 1
 230.333984375 262.998046875 160.000976562 316.998046875 118.000976562 388.998046875 c 0
 82.66796875 451.665039062 65.0009765625 534.998046875 65.0009765625 638.998046875 c 0
 65.0009765625 675.665039062 67.0009765625 717.33203125 71.0009765625 763.999023438 c 1
 89.66796875 779.999023438 108.66796875 787.999023438 128.000976562 787.999023438 c 0
 150.000976562 787.999023438 170.333984375 777.33203125 189.000976562 755.999023438 c 1
 185.000976562 684.666015625 183.000976562 641.666015625 183.000976562 626.999023438 c 0
 183.000976562 510.999023438 221.333984375 426.33203125 298.000976562 372.999023438 c 0
 333.333984375 348.33203125 377.000976562 335.999023438 429.000976562 335.999023438 c 0
 460.333984375 335.999023438 514.666992188 342.83203125 592 356.499023438 c 0
 669.333007812 370.166015625 731 376.999023438 777 376.999023438 c 0
 901.666992188 376.999023438 1016.33398438 335.33203125 1121.00097656 251.999023438 c 1
 1121.00097656 1097.99902344 l 2
 1121.00097656 1195.99902344 1087.66796875 1244.99902344 1021.00097656 1244.99902344 c 0
 985.66796875 1244.99902344 938.000976562 1229.33203125 878.000976562 1197.99902344 c 0
 742.66796875 1128.66601562 675.000976562 1028.33300781 675.000976562 897 c 0
 675.000976562 838.333007812 688.000976562 769.333007812 714.000976562 690 c 1
 710.000976562 654.666992188 688.000976562 637 648.000976562 637 c 0
 626.000976562 637 608.333984375 643.666992188 595.000976562 657 c 1
 563.66796875 727 548.000976562 798.666992188 548.000976562 872 c 0
 548.000976562 982.666992188 582.000976562 1082.66699219 650.000976562 1172 c 0
 717.333984375 1260.66699219 808.333984375 1320 923.000976562 1350 c 0
 953.000976562 1360.66699219 981.66796875 1366 1009.00097656 1366 c 0
 1066.33398438 1366 1121.66699219 1342.66699219 1175 1296 c 0
 1223.66699219 1254 1248 1190.66699219 1248 1106 c 2
EndSplineSet
EndChar

StartChar: u0990
Encoding: 2448 2448 113
Width: 1586
GlyphClass: 2
Flags: W
LayerCount: 2
Fore
SplineSet
1222 592 m 1
 1222 123.000976562 l 2
 1222 110.333984375 1211.5 99.0009765625 1190.5 89.0009765625 c 0
 1169.5 79.0009765625 1148.66699219 74.0009765625 1128 74.0009765625 c 0
 1111.33300781 74.0009765625 1100.33300781 78.0009765625 1095 86.0009765625 c 0
 1009 199.333984375 901.333007812 256.000976562 772 256.000976562 c 0
 732 256.000976562 671.166992188 249.500976562 589.5 236.500976562 c 0
 507.833007812 223.500976562 446.333007812 217.000976562 405 217.000976562 c 0
 368.333007812 217.000976562 334.333007812 220.333984375 303 227.000976562 c 1
 204.333007812 263.000976562 134 317.000976562 92 389.000976562 c 0
 56.6669921875 451.66796875 39 535.000976562 39 639.000976562 c 0
 39 675.66796875 41 717.334960938 45 764.001953125 c 1
 63.6669921875 780.001953125 82.6669921875 788.001953125 102 788.001953125 c 0
 124 788.001953125 144.333007812 777.334960938 163 756.001953125 c 1
 159 684.668945312 157 641.668945312 157 627.001953125 c 0
 157 511.001953125 195.333007812 426.334960938 272 373.001953125 c 0
 307.333007812 348.334960938 351 336.001953125 403 336.001953125 c 0
 434.333007812 336.001953125 488.666015625 342.834960938 565.999023438 356.501953125 c 0
 643.33203125 370.168945312 704.999023438 377.001953125 750.999023438 377.001953125 c 0
 875.666015625 377.001953125 990.333007812 335.334960938 1095 252.001953125 c 1
 1095 1098.00195312 l 2
 1095 1196.00195312 1061.66699219 1245.00195312 995 1245.00195312 c 0
 959.666992188 1245.00195312 912 1229.33496094 852 1198.00195312 c 0
 716.666992188 1128.66894531 649 1028.3359375 649 897.002929688 c 0
 649 838.3359375 662 769.3359375 688 690.002929688 c 1
 684 654.669921875 662 637.002929688 622 637.002929688 c 0
 600 637.002929688 582.333007812 643.669921875 569 657.002929688 c 1
 537.666992188 727.002929688 522 798.669921875 522 872.002929688 c 0
 522 982.669921875 556 1082.66992188 624 1172.00292969 c 0
 691.333007812 1260.66992188 782.333007812 1320.00292969 897 1350.00292969 c 0
 927 1360.66992188 955.666992188 1366.00292969 983 1366.00292969 c 0
 1040.33300781 1366.00292969 1095.66601562 1342.66992188 1148.99902344 1296.00292969 c 0
 1197.66601562 1254.00292969 1221.99902344 1190.66992188 1221.99902344 1106.00292969 c 2
 1221.99902344 736.002929688 l 1
 1288.66601562 755.3359375 1343.33300781 797.3359375 1386 862.002929688 c 0
 1433.33300781 932.669921875 1457 1007.00292969 1457 1085.00292969 c 0
 1457 1225.66992188 1379 1311.00292969 1223 1341.00292969 c 0
 967.666992188 1391.66992188 840 1481.00292969 840 1609.00292969 c 0
 840 1697.66992188 890 1768.66992188 990 1822.00292969 c 1
 1006 1824.00292969 1020.33300781 1822.3359375 1033 1817.00292969 c 0
 1039 1814.3359375 1044.66699219 1810.66894531 1050 1806.00195312 c 0
 1066 1793.33496094 1074 1778.33496094 1074 1761.00195312 c 0
 1074 1748.33496094 1069.66699219 1736.66796875 1061 1726.00097656 c 0
 1009.66699219 1672.66796875 984 1630.33496094 984 1599.00195312 c 0
 984 1562.33496094 1036.33300781 1529.66796875 1141 1501.00097656 c 0
 1285.66699219 1462.33398438 1384.66699219 1426.00097656 1438 1392.00097656 c 0
 1535.33300781 1330.66796875 1584 1235.00097656 1584 1105.00097656 c 0
 1584 994.333984375 1549.66699219 888.666992188 1481 788 c 0
 1416.33300781 690 1330 624.666992188 1222 592 c 1
EndSplineSet
EndChar

StartChar: u0993
Encoding: 2451 2451 114
Width: 1540
GlyphClass: 2
Flags: W
LayerCount: 2
Fore
SplineSet
1000 1374 m 1
 1113.33300781 1371.33300781 1207.66601562 1334.00097656 1282.99902344 1262.00097656 c 0
 1358.33203125 1190.66796875 1395.99902344 1106.00097656 1395.99902344 1008.00097656 c 0
 1395.99902344 924.66796875 1367.33203125 846.000976562 1309.99902344 772.000976562 c 1
 1409.33203125 695.333984375 1458.99902344 595.000976562 1458.99902344 471.000976562 c 0
 1458.99902344 381.000976562 1430.99902344 303.333984375 1374.99902344 238.000976562 c 0
 1313.66601562 165.333984375 1230.33300781 122.333984375 1125 109.000976562 c 0
 1099 104.333984375 1073.33300781 102.000976562 1048 102.000976562 c 0
 911.333007812 102.000976562 777.333007812 147.333984375 646 238.000976562 c 0
 362 427.333984375 173.666992188 764.333984375 81 1249.00097656 c 1
 80.3330078125 1276.33398438 87.3330078125 1294.66699219 102 1304 c 0
 110 1308.66699219 120 1311 132 1311 c 0
 155.333007812 1311 177.333007812 1298.66699219 198 1274 c 1
 236 1095.33300781 279.666992188 949.333007812 329 836 c 0
 391.666992188 684 474.333984375 557 577.000976562 455 c 0
 731.000976562 299 887.333984375 221 1046.00097656 221 c 0
 1156.66796875 221 1237.66796875 252.333007812 1289.00097656 315 c 0
 1320.33398438 355 1336.00097656 402.333007812 1336.00097656 457 c 0
 1336.00097656 505.666992188 1323.50097656 552.333984375 1298.50097656 597.000976562 c 0
 1273.50097656 641.66796875 1239.00097656 674.66796875 1195.00097656 696.000976562 c 0
 1157.00097656 715.333984375 1138.00097656 736.000976562 1138.00097656 758.000976562 c 0
 1138.00097656 774.000976562 1148.00097656 791.66796875 1168.00097656 811.000976562 c 1
 1238.00097656 860.333984375 1273.00097656 921.000976562 1273.00097656 993.000976562 c 0
 1273.00097656 1047.66796875 1254.00097656 1098.00097656 1216.00097656 1144.00097656 c 0
 1161.33398438 1210.00097656 1093.00097656 1243.00097656 1011.00097656 1243.00097656 c 0
 946.333984375 1243.00097656 893.666992188 1219.33398438 853 1172.00097656 c 0
 812.333007812 1124.00097656 792 1066.33398438 792 999.000976562 c 0
 792 954.333984375 802 911.333984375 822 870.000976562 c 1
 814 832.000976562 787.333007812 813.000976562 742 813.000976562 c 0
 724.666992188 813.000976562 709.666992188 818.333984375 697 829.000976562 c 1
 674.333007812 885.000976562 663 941.000976562 663 997.000976562 c 0
 663 1094.33398438 694 1178.66699219 756 1250 c 0
 818 1320.66699219 899.333007812 1362 1000 1374 c 1
EndSplineSet
EndChar

StartChar: u0994
Encoding: 2452 2452 115
Width: 1666
GlyphClass: 2
Flags: W
LayerCount: 2
Fore
SplineSet
1335 865 m 1
 1373.66699219 887 1409 922.001953125 1441 970.001953125 c 0
 1488.33300781 1041.33496094 1512 1116.00195312 1512 1194.00195312 c 0
 1512 1334.66894531 1434 1420.00195312 1278 1450.00195312 c 0
 1022.66699219 1500.66894531 895 1590.00195312 895 1718.00195312 c 0
 895 1806.66894531 945 1877.66894531 1045 1931.00195312 c 1
 1061 1933.00195312 1075.33300781 1931.33496094 1088 1926.00195312 c 0
 1094 1923.33496094 1100 1920.00195312 1106 1916.00195312 c 0
 1121.33300781 1902.66894531 1129 1887.3359375 1129 1870.00292969 c 0
 1129 1857.3359375 1124.66699219 1845.66894531 1116 1835.00195312 c 0
 1064.66699219 1781.66894531 1039 1739.3359375 1039 1708.00292969 c 0
 1039 1671.3359375 1091.33300781 1638.66894531 1196 1610.00195312 c 0
 1340.66699219 1571.33496094 1439.66699219 1535.00195312 1493 1501.00195312 c 0
 1590.33300781 1439.66894531 1639 1344.00195312 1639 1214.00195312 c 0
 1639 1103.33496094 1604.66699219 997.66796875 1536 897.000976562 c 0
 1480 812.333984375 1413.66699219 753.000976562 1337 719.000976562 c 1
 1397.66699219 651.000976562 1428 568.333984375 1428 471.000976562 c 0
 1428 381.000976562 1400 303.333984375 1344 238.000976562 c 0
 1282.66699219 165.333984375 1199.33398438 122.333984375 1094.00097656 109.000976562 c 0
 1068.00097656 104.333984375 1042.33398438 102.000976562 1017.00097656 102.000976562 c 0
 880.333984375 102.000976562 746.333984375 147.333984375 615.000976562 238.000976562 c 0
 331.000976562 427.333984375 142.66796875 764.333984375 50.0009765625 1249.00097656 c 1
 49.333984375 1276.33398438 56.333984375 1294.66699219 71.0009765625 1304 c 0
 79.0009765625 1308.66699219 89.0009765625 1311 101.000976562 1311 c 0
 124.333984375 1311 146.333984375 1298.66699219 167.000976562 1274 c 1
 205.000976562 1095.33300781 248.66796875 949.333007812 298.000976562 836 c 0
 360.66796875 684 443.334960938 557 546.001953125 455 c 0
 700.001953125 299 856.334960938 221 1015.00195312 221 c 0
 1125.66894531 221 1206.66894531 252.333007812 1258.00195312 315 c 0
 1289.33496094 355 1305.00195312 402.333007812 1305.00195312 457 c 0
 1305.00195312 505.666992188 1292.50195312 552.333984375 1267.50195312 597.000976562 c 0
 1242.50195312 641.66796875 1208.00195312 674.66796875 1164.00195312 696.000976562 c 0
 1126.00195312 715.333984375 1107.00195312 736.000976562 1107.00195312 758.000976562 c 0
 1107.00195312 774.000976562 1117.00195312 791.66796875 1137.00195312 811.000976562 c 1
 1207.00195312 860.333984375 1242.00195312 921.000976562 1242.00195312 993.000976562 c 0
 1242.00195312 1047.66796875 1223.33496094 1098.00097656 1186.00195312 1144.00097656 c 0
 1130.66894531 1210.00097656 1062.00195312 1243.00097656 980.001953125 1243.00097656 c 0
 915.334960938 1243.00097656 862.66796875 1219.33398438 822.000976562 1172.00097656 c 0
 781.333984375 1124.00097656 761.000976562 1066.33398438 761.000976562 999.000976562 c 0
 761.000976562 954.333984375 771.000976562 911.333984375 791.000976562 870.000976562 c 1
 783.000976562 832.000976562 756.333984375 813.000976562 711.000976562 813.000976562 c 0
 693.66796875 813.000976562 678.66796875 818.333984375 666.000976562 829.000976562 c 1
 643.333984375 885.000976562 632.000976562 941.000976562 632.000976562 997.000976562 c 0
 632.000976562 1094.33398438 663.000976562 1178.66699219 725.000976562 1250 c 0
 787.000976562 1320.66699219 868.333984375 1362 969.000976562 1374 c 1
 1082.33398438 1371.33300781 1176.66699219 1334 1252 1262 c 0
 1327.33300781 1190.66699219 1365 1106 1365 1008 c 0
 1365 958.666992188 1355 911 1335 865 c 1
EndSplineSet
EndChar

StartChar: u0995
Encoding: 2453 2453 116
Width: 1454
GlyphClass: 2
Flags: W
LayerCount: 2
Fore
SplineSet
731 1010 m 1
 229 700 l 1
 731 248 l 1
 731 1010 l 1
1288 782 m 0
 1288 697.333007812 1268.33203125 625.665039062 1228.99902344 566.998046875 c 0
 1186.99902344 502.998046875 1130.33203125 471.665039062 1058.99902344 472.998046875 c 0
 1028.99902344 470.331054688 1008.99902344 477.331054688 998.999023438 493.998046875 c 0
 993.666015625 502.665039062 990.999023438 513.998046875 990.999023438 527.998046875 c 0
 990.999023438 557.998046875 1004.66601562 577.998046875 1031.99902344 587.998046875 c 1
 1058.66601562 584.665039062 1082.66601562 591.33203125 1103.99902344 607.999023438 c 0
 1114.66601562 615.999023438 1124.99902344 626.999023438 1134.99902344 640.999023438 c 0
 1163.66601562 681.666015625 1177.99902344 729.999023438 1177.99902344 785.999023438 c 0
 1177.99902344 844.666015625 1160.66601562 894.666015625 1125.99902344 935.999023438 c 0
 1062.66601562 1013.33203125 976.333007812 1050.33203125 867 1046.99902344 c 2
 858 1046.99902344 l 1
 858 112.999023438 l 2
 858 85.666015625 843.666992188 71.9990234375 815 71.9990234375 c 0
 783.666992188 71.9990234375 755.666992188 82.666015625 731 103.999023438 c 2
 90 671.999023438 l 2
 72 682.666015625 63 696.333007812 63 713 c 0
 63 733 74.6669921875 750 98 764 c 2
 731 1147 l 1
 731 1249 l 1
 -14 1249 l 1
 -14 1378 l 1
 1456 1378 l 1
 1456 1249 l 1
 858 1249 l 1
 858 1171 l 1
 1144.66699219 1139 1288 1009.33300781 1288 782 c 0
EndSplineSet
EndChar

StartChar: u0996
Encoding: 2454 2454 117
Width: 1302
GlyphClass: 2
Flags: W
LayerCount: 2
Fore
SplineSet
1294 1378 m 1
 1294 1249 l 1
 1135 1249 l 1
 1135 131 l 2
 1135 117.666992188 1126.66699219 106 1110 96 c 0
 1093.33300781 85.3330078125 1075 80 1055 80 c 0
 1035.66699219 80 1020 84.6669921875 1008 94 c 2
 311 608 l 1
 299 626 293 644.666992188 293 664 c 0
 293 698 306.666992188 715 334 715 c 0
 417.333007812 724.333007812 490.333007812 757 553 813 c 0
 619.666992188 874.333007812 653 944 653 1022 c 0
 653 1072.66699219 638.666992188 1122.33398438 610 1171.00097656 c 1
 551.333007812 1036.33398438 458.666015625 969.000976562 331.999023438 969.000976562 c 0
 257.999023438 969.000976562 176.666015625 992.66796875 87.9990234375 1040.00097656 c 1
 71.33203125 1054.00097656 62.9990234375 1071.33398438 62.9990234375 1092.00097656 c 0
 62.9990234375 1131.33398438 80.9990234375 1151.00097656 116.999023438 1151.00097656 c 0
 123.666015625 1151.00097656 130.333007812 1149.66796875 137 1147.00097656 c 0
 207 1107.00097656 270 1087.00097656 326 1087.00097656 c 0
 440.666992188 1087.00097656 505.333984375 1156.66796875 520.000976562 1296.00097656 c 0
 519.333984375 1323.33398438 526.333984375 1341.66699219 541.000976562 1351 c 0
 548.333984375 1355.66699219 557.666992188 1358 569 1358 c 0
 581.666992188 1358 594.666992188 1354 608 1346 c 0
 720 1273.33300781 774 1163 770 1015 c 1
 770 1006 l 1
 763.333007812 828 665 703 475 631 c 1
 1008 248 l 1
 1008 1264 l 2
 1008 1340 1044.66699219 1378 1118 1378 c 2
 1294 1378 l 1
EndSplineSet
EndChar

StartChar: u0997
Encoding: 2455 2455 118
Width: 1261
GlyphClass: 2
Flags: W
LayerCount: 2
Fore
SplineSet
1278 1378 m 1
 1277.99707031 1248.99902344 l 1
 1117.99707031 1248.99902344 l 1
 1117.99707031 108.999023438 l 2
 1117.99707031 78.33203125 1096.99707031 62.9990234375 1054.99707031 62.9990234375 c 0
 1012.33007812 62.9990234375 990.997070312 78.33203125 990.997070312 108.999023438 c 2
 990.997070312 781.999023438 l 2
 990.997070312 870.666015625 967.330078125 945.333007812 919.997070312 1006 c 0
 822.6640625 1127.33300781 704.331054688 1188 564.998046875 1188 c 0
 421.665039062 1188 310.33203125 1122.33300781 230.999023438 991 c 1
 312.33203125 999.666992188 383.33203125 989 443.999023438 959 c 0
 474.666015625 943.666992188 502.666015625 923.666992188 527.999023438 899 c 0
 599.33203125 832.333007812 634.999023438 748.333007812 634.999023438 647 c 0
 634.999023438 507.666992188 570.666015625 402.666992188 441.999023438 332 c 0
 433.999023438 329.333007812 425.999023438 328 417.999023438 328 c 0
 399.999023438 328 383.999023438 333.333007812 369.999023438 344 c 0
 356.666015625 354.666992188 349.999023438 367.666992188 349.999023438 383 c 0
 349.999023438 399.666992188 357.666015625 414.666992188 372.999023438 428 c 0
 468.33203125 482.666992188 515.999023438 555.666992188 515.999023438 647 c 0
 515.999023438 708.333007812 494.499023438 762 451.499023438 808 c 0
 408.499023438 854 356.33203125 877 294.999023438 877 c 0
 249.666015625 877 205.333007812 864 162 838 c 0
 142.666992188 826.666992188 125 821 109 821 c 0
 78.3330078125 821 63 836.666992188 63 868 c 0
 63 876.666992188 64.6669921875 885.666992188 68 895 c 0
 98 1009.66699219 147 1099 215 1163 c 0
 276.333007812 1221.66699219 362.333007812 1266 473 1296 c 0
 514.333007812 1303.33300781 553.333007812 1307 590 1307 c 0
 741.333007812 1307 875 1243.33300781 991 1116 c 1
 991 1378 l 1
 1278 1378 l 1
EndSplineSet
EndChar

StartChar: u0998
Encoding: 2456 2456 119
Width: 1101
GlyphClass: 2
Flags: W
LayerCount: 2
Fore
SplineSet
428 991 m 1
 467.333007812 991 487 971.333007812 487 932 c 0
 487 916.666992188 481.666992188 903 471 891 c 2
 262 645 l 1
 831 248 l 1
 831 1249 l 1
 264 1249 l 1
 205.333007812 1216.33300781 176 1174 176 1122 c 0
 176 1084 191.666992188 1050.33300781 223 1021 c 0
 254.333007812 991.666992188 293.333007812 977 340 977 c 1
 428 991 l 1
-18 1378 m 1
 1118 1378.00097656 l 1
 1118 1249.00097656 l 1
 958 1249.00097656 l 1
 958 127.000976562 l 2
 958 95.66796875 933 80.0009765625 883 80.0009765625 c 0
 862.333007812 80.0009765625 845 84.66796875 831 94.0009765625 c 2
 135 588.000976562 l 1
 115.666992188 596.000976562 106 609.66796875 106 629.000976562 c 0
 106 642.333984375 112.333007812 656.666992188 125 672 c 2
 285 860 l 1
 221.666992188 869.333007812 168.666992188 897.333007812 126 944 c 0
 82.6669921875 990.666992188 61 1046.66699219 61 1112 c 0
 61 1157.33300781 72.6669921875 1203 96 1249 c 1
 -18 1249 l 1
 -18 1378 l 1
EndSplineSet
EndChar

StartChar: u0999
Encoding: 2457 2457 120
Width: 1259
GlyphClass: 2
Flags: MW
HStem: 77.998 115.001 893 121 1080 20G 1250.27 125.178
VStem: 477.001 115 947.888 115.114 1135 116.001
LayerCount: 2
Fore
SplineSet
696 1167 m 0
 663 1126 641.001953125 1081.33496094 629.001953125 1032.00195312 c 1
 687.668945312 1020.00195312 732.001953125 1014.00195312 762.001953125 1014.00195312 c 0
 848.001953125 1014.00195312 909.334960938 1055.66894531 946.001953125 1139.00195312 c 0
 947.259765625 1145.41699219 947.888671875 1151.60644531 947.888671875 1157.5703125 c 0
 947.888671875 1183.21582031 936.259765625 1204.69238281 913.001953125 1222 c 0
 886.762695312 1240.84765625 860.420898438 1250.27148438 833.9765625 1250.27148438 c 0
 812.717773438 1250.27148438 791.392578125 1244.18066406 770.000976562 1232 c 0
 745.333984375 1218.66699219 721 1197 696 1167 c 0
825.001953125 1374.00195312 m 0
 833.407226562 1374.96777344 841.693359375 1375.45117188 849.861328125 1375.45117188 c 0
 898.051757812 1375.45117188 942.098632812 1358.63378906 982.002929688 1325.00097656 c 0
 1005.3359375 1305.66796875 1027.00292969 1280.33496094 1047.00292969 1249.00195312 c 1
 1057.66992188 1221.66894531 1063.00292969 1193.00195312 1063.00292969 1163.00195312 c 0
 1063.00292969 1103.00195312 1041.3359375 1048.00195312 998.002929688 998.001953125 c 0
 937.3359375 928.001953125 856.668945312 893.001953125 756.001953125 893.001953125 c 0
 700.001953125 893.001953125 649.334960938 902.668945312 604.001953125 922.001953125 c 0
 596.001953125 922.001953125 592.001953125 889.668945312 592.001953125 825.001953125 c 0
 592.001953125 776.334960938 608.334960938 732.66796875 641.001953125 694.000976562 c 1
 936.001953125 838.000976562 l 1
 952.668945312 852.66796875 975.3359375 860.000976562 1004.00292969 860.000976562 c 0
 1016.00292969 860.000976562 1028.00292969 858.66796875 1040.00292969 856.000976562 c 1
 1180.66992188 753.333984375 1251.00292969 634.666992188 1251.00292969 500 c 0
 1251.00292969 388 1206.00292969 289.666992188 1116.00292969 205 c 0
 1026.00292969 120.333007812 922.3359375 78 805.002929688 78 c 0
 676.3359375 78 552.668945312 127 434.001953125 225 c 0
 332.001953125 309.666992188 255.668945312 409.333984375 205.001953125 524.000976562 c 0
 169.668945312 604.66796875 140.3359375 690.66796875 117.002929688 782.000976562 c 0
 104.3359375 832.66796875 85.6689453125 921.000976562 61.001953125 1047.00097656 c 1
 65.6689453125 1082.33398438 83.6689453125 1100.00097656 115.001953125 1100.00097656 c 0
 138.334960938 1100.00097656 157.334960938 1087.66796875 172.001953125 1063.00097656 c 1
 211.334960938 851.000976562 259.001953125 686.333984375 315.001953125 569.000976562 c 0
 364.334960938 468.333984375 431.334960938 382.333984375 516.001953125 311.000976562 c 0
 610.001953125 232.333984375 705.001953125 193.000976562 801.001953125 193.000976562 c 0
 869.001953125 193.000976562 933.668945312 214.66796875 995.001953125 258.000976562 c 0
 1088.33496094 323.333984375 1135.00195312 403.333984375 1135.00195312 498.000976562 c 0
 1135.00195312 589.333984375 1089.66894531 670.333984375 999.001953125 741.000976562 c 1
 631.001953125 543.000976562 l 1
 528.334960938 622.333984375 477.001953125 710.333984375 477.001953125 807.000976562 c 0
 477.001953125 869.66796875 482.001953125 918.000976562 492.001953125 952.000976562 c 0
 490.001953125 956.000976562 487.668945312 958.000976562 485.001953125 958.000976562 c 0
 314.334960938 1036.00097656 198.334960938 1148.66796875 137.001953125 1296.00097656 c 0
 133.668945312 1309.33398438 133.668945312 1321.00097656 137.001953125 1331.00097656 c 0
 139.001953125 1335.66796875 142.001953125 1340.00097656 146.001953125 1344.00097656 c 0
 158.001953125 1356.00097656 173.668945312 1362.00097656 193.001953125 1362.00097656 c 0
 207.668945312 1362.00097656 221.001953125 1358.00097656 233.001953125 1350.00097656 c 1
 312.334960938 1214.66796875 406.001953125 1121.00097656 514.001953125 1069.00097656 c 1
 533.334960938 1137.00097656 573.001953125 1202.00097656 633.001953125 1264.00097656 c 0
 697.001953125 1330.66796875 761.001953125 1367.33496094 825.001953125 1374.00195312 c 0
EndSplineSet
EndChar

StartChar: u099a
Encoding: 2458 2458 121
Width: 960
GlyphClass: 2
Flags: W
LayerCount: 2
Fore
SplineSet
261 973 m 1
 261 297 l 2
 261 229 285 195 333 195 c 0
 353 195 378 203 408 219 c 0
 472.666992188 255.666992188 535.666992188 320.666992188 597 414 c 0
 662.333007812 516 695 607.333007812 695 688 c 0
 695 710 692.333007812 730.666992188 687 750 c 1
 667.666992188 781.333007812 600 814.333007812 484 849 c 0
 368 883.666992188 293.666992188 925 261 973 c 1
-21 1378 m 1
 986.001953125 1378 l 1
 986.001953125 1249 l 1
 261.001953125 1249 l 1
 261.001953125 1167 l 1
 299.001953125 1092.33300781 363.334960938 1033 454.001953125 989 c 1
 675.001953125 901 l 1
 748.334960938 867 791.334960938 821.333007812 804.001953125 764 c 0
 809.334960938 740.666992188 812.001953125 716 812.001953125 690 c 0
 812.001953125 567.333007812 765.334960938 441.333007812 672.001953125 312 c 0
 579.334960938 183.333007812 478.66796875 103.333007812 370.000976562 72 c 0
 361.333984375 69.3330078125 351.666992188 68 341 68 c 0
 293 68 248.666992188 85 208 119 c 0
 158.666992188 158.333007812 134 209.333007812 134 272 c 2
 134 1249 l 1
 -21 1249 l 1
 -21 1378 l 1
EndSplineSet
EndChar

StartChar: u099b
Encoding: 2459 2459 122
Width: 1239
GlyphClass: 2
Flags: MW
HStem: 198 114 516.999 100.001 1249 129.001
VStem: 193.001 126.999 977 109<774.5 845 749.5 852.5>
LayerCount: 2
Fore
SplineSet
320 1074 m 1
 320 669 l 2
 320 634 336 617 369 617 c 0
 425 617 497 653 585 726 c 0
 673 799 713 860 705 908 c 0
 698 955 646 985 547 1000 c 0
 430 1018 354 1043 320 1074 c 1
-12 1378 m 1
 1262 1378 l 1
 1262 1254 l 1
 320 1254 l 1
 320 1208 364 1171 453 1144 c 0
 527 1121 607 1109 693 1109 c 0
 726 1109 752 1111 771 1115 c 1
 874 1108 954 1075 1010 1015 c 0
 1061 959 1086 888 1086 802 c 0
 1086 697 1051 596 982 501 c 0
 931 431 879 378 824 343 c 0
 785 320 735 298 672 279 c 1
 772 274 879 251 994 212 c 0
 1121 169 1233 113 1332 44 c 1
 1340 26 1344 10 1344 -3 c 0
 1344 -38 1321 -54 1274 -52 c 2
 1266 -52 l 1
 1141 35 997 99 834 138 c 0
 706 168 546 188 353 198 c 1
 332 215 322 238 322 265 c 0
 322 287 331 303 349 312 c 1
 456 325 529 336 566 345 c 0
 638 364 702 397 758 443 c 1
 815 482 866 536 910 606 c 0
 955 677 977 743 977 806 c 0
 977 899 924 959 818 988 c 1
 821 971 822 955 822 939 c 0
 822 826 766.666992188 725.33203125 656 637.999023438 c 0
 554.666992188 557.33203125 452.333984375 516.999023438 349.000976562 516.999023438 c 0
 245.000976562 516.999023438 193.000976562 563.33203125 193.000976562 655.999023438 c 2
 193.000976562 1235.99902344 l 1
 175.000976562 1248.99902344 l 1
 -11.9990234375 1248.99902344 l 1
 -12 1378 l 1
EndSplineSet
EndChar

StartChar: u099c
Encoding: 2460 2460 123
Width: 1701
GlyphClass: 2
Flags: W
LayerCount: 2
Fore
SplineSet
-24 1378 m 1
 1719 1378 l 1
 1719 1249 l 1
 1105 1249 l 1
 1572 963 l 1
 1594 955.666992188 1605 939.666992188 1605 915 c 0
 1605 904.333007812 1602 894.333007812 1596 885 c 0
 1518.66699219 704.333007812 1480 557.333007812 1480 444 c 0
 1480 321.333007812 1518.66699219 186.333007812 1596 39 c 1
 1596 -10.3330078125 1575 -35 1533 -35 c 0
 1522.33300781 -35 1510.66601562 -32.3330078125 1497.99902344 -27 c 1
 1407.99902344 148.333007812 1362.99902344 304.666015625 1362.99902344 441.999023438 c 0
 1362.99902344 562.666015625 1399.99902344 710.333007812 1473.99902344 885 c 1
 881.999023438 1255 l 1
 813.33203125 1221 754.665039062 1170 705.998046875 1102 c 0
 656.665039062 1033.33300781 631.998046875 968.333007812 631.998046875 907 c 0
 631.998046875 841.666992188 659.998046875 792.666992188 715.998046875 760 c 0
 721.331054688 761.333007812 785.331054688 786.666015625 907.998046875 835.999023438 c 0
 984.665039062 866.666015625 1050.33203125 881.666015625 1104.99902344 880.999023438 c 1
 1214.33203125 801.666015625 1268.99902344 698.333007812 1268.99902344 571 c 0
 1268.99902344 423.666992188 1199.99902344 312 1061.99902344 236 c 0
 974.666015625 188 887.333007812 164 800 164 c 0
 595.333007812 164 410.333007812 286 245 530 c 1
 211 567.333007812 175.333007812 636.333007812 138 737 c 0
 98.6669921875 845 72.6669921875 951 60 1055 c 1
 60 1097 76.6669921875 1118 110 1118 c 0
 130 1118 150.333007812 1106.33300781 171 1083 c 1
 187.666992188 885 252.666992188 709.666992188 366 557 c 0
 503.333007812 371.666992188 651.333007812 279 810 279 c 0
 901.333007812 279 986.666015625 314.333007812 1065.99902344 385 c 0
 1121.99902344 435.666992188 1149.99902344 498.333984375 1149.99902344 573.000976562 c 0
 1149.99902344 649.66796875 1120.66601562 716.000976562 1061.99902344 772.000976562 c 1
 1034.66601562 764.000976562 973.333007812 739.333984375 878 698.000976562 c 0
 802.666992188 665.333984375 741 647.666992188 693 645 c 1
 574.333007812 695.666992188 515 781.666992188 515 903 c 0
 515 1021.66699219 564.333007812 1137 663 1249 c 1
 -24 1249 l 1
 -24 1378 l 1
EndSplineSet
EndChar

StartChar: u099d
Encoding: 2461 2461 124
Width: 1419
GlyphClass: 2
Flags: W
LayerCount: 2
Fore
SplineSet
711 1006 m 1
 219 700 l 1
 711 252 l 1
 711 1006 l 1
1141 1249 m 2
 1141 1335 1183.33300781 1378 1268 1378 c 2
 1444 1378 l 1
 1444 1249 l 1
 1268 1249 l 1
 1268 332 l 2
 1268 304.666992188 1246 291 1202 291 c 0
 1174.66699219 291 1154.33398438 297.666992188 1141.00097656 311 c 2
 838.000976562 557 l 1
 838.000976562 117 l 2
 838.000976562 81 813.333984375 63 764.000976562 63 c 0
 743.333984375 63 725.666992188 68.6669921875 711 80 c 2
 72 668 l 2
 63.3330078125 674.666992188 59 687.666992188 59 707 c 0
 59 734.333007812 68.6669921875 753.333007812 88 764 c 2
 711 1147 l 1
 711 1249 l 1
 -12 1249 l 1
 -12 1378 l 1
 711 1378 l 2
 795.666992188 1378 838 1335 838 1249 c 2
 838 719 l 1
 1141 487 l 1
 1141 1249 l 2
EndSplineSet
EndChar

StartChar: u099e
Encoding: 2462 2462 125
Width: 1848
GlyphClass: 2
Flags: W
LayerCount: 2
Fore
SplineSet
1572 1010 m 0
 1520 1010 1469.00097656 972.333984375 1419.00097656 897.000976562 c 0
 1406.33398438 879.000976562 1372.00097656 817.66796875 1316.00097656 713.000976562 c 1
 1346.00097656 636.333984375 1387.66796875 567.333984375 1441.00097656 506.000976562 c 0
 1507.00097656 432.000976562 1572.00097656 395.000976562 1636.00097656 395.000976562 c 0
 1646.66796875 395.000976562 1657.66796875 396.333984375 1669.00097656 399.000976562 c 0
 1709.66796875 425.000976562 1730.00097656 456.66796875 1730.00097656 494.000976562 c 0
 1730.00097656 529.333984375 1711.33398438 561.666992188 1674.00097656 591 c 0
 1636.00097656 620.333007812 1595.33398438 635 1552.00097656 635 c 1
 1519.33398438 653 1503.00097656 673.333007812 1503.00097656 696 c 0
 1503.00097656 719.333007812 1516.66796875 739.333007812 1544.00097656 756 c 1
 1591.33398438 761.333007812 1630.66699219 780.333007812 1662 813 c 0
 1690.66699219 841.666992188 1705 873.666992188 1705 909 c 0
 1705 977 1660.66699219 1010.66699219 1572 1010 c 0
1217.00097656 626.000976562 m 1
 1217.00292969 122.998046875 l 2
 1217.00292969 110.331054688 1206.50292969 98.998046875 1185.50292969 88.998046875 c 0
 1164.50292969 78.998046875 1143.66992188 73.998046875 1123.00292969 73.998046875 c 0
 1106.3359375 73.998046875 1095.3359375 77.998046875 1090.00292969 85.998046875 c 0
 1004.00292969 199.331054688 896.3359375 255.998046875 767.002929688 255.998046875 c 0
 727.002929688 255.998046875 666.169921875 249.498046875 584.502929688 236.498046875 c 0
 502.8359375 223.498046875 441.3359375 216.998046875 400.002929688 216.998046875 c 0
 363.3359375 216.998046875 329.3359375 220.331054688 298.002929688 226.998046875 c 1
 199.3359375 262.998046875 129.002929688 316.998046875 87.0029296875 388.998046875 c 0
 51.669921875 451.665039062 34.0029296875 534.998046875 34.0029296875 638.998046875 c 0
 34.0029296875 675.665039062 36.0029296875 717.33203125 40.0029296875 763.999023438 c 1
 58.669921875 779.999023438 77.669921875 787.999023438 97.0029296875 787.999023438 c 0
 119.002929688 787.999023438 139.3359375 777.33203125 158.002929688 755.999023438 c 1
 154.002929688 684.666015625 152.002929688 641.666015625 152.002929688 626.999023438 c 0
 152.002929688 510.999023438 190.3359375 426.33203125 267.002929688 372.999023438 c 0
 302.3359375 348.33203125 346.002929688 335.999023438 398.002929688 335.999023438 c 0
 429.3359375 335.999023438 483.668945312 342.83203125 561.001953125 356.499023438 c 0
 638.334960938 370.166015625 700.001953125 376.999023438 746.001953125 376.999023438 c 0
 870.668945312 376.999023438 985.3359375 335.33203125 1090.00292969 251.999023438 c 1
 1090.00292969 1097.99902344 l 2
 1090.00292969 1195.99902344 1056.66992188 1244.99902344 990.002929688 1244.99902344 c 0
 954.669921875 1244.99902344 907.002929688 1229.33203125 847.002929688 1197.99902344 c 0
 711.669921875 1128.66601562 644.002929688 1028.33300781 644.002929688 897 c 0
 644.002929688 838.333007812 657.002929688 769.333007812 683.002929688 690 c 1
 679.002929688 654.666992188 657.002929688 637 617.002929688 637 c 0
 595.002929688 637 577.3359375 643.666992188 564.002929688 657 c 1
 532.669921875 727 517.002929688 798.666992188 517.002929688 872 c 0
 517.002929688 982.666992188 550.669921875 1082.66699219 618.002929688 1172 c 0
 686.002929688 1260.66699219 777.3359375 1320 892.002929688 1350 c 0
 922.002929688 1360.66699219 950.669921875 1366 978.002929688 1366 c 0
 1035.3359375 1366 1090.66894531 1342.66699219 1144.00195312 1296 c 0
 1192.66894531 1254 1217.00195312 1190.66699219 1217.00195312 1106 c 2
 1217.00195312 800 l 1
 1247.00195312 870 1285.66894531 934.333007812 1333.00195312 993 c 0
 1406.33496094 1083 1491.66796875 1131 1589.00097656 1137 c 1
 1659.66796875 1131 1719.66796875 1104.66699219 1769.00097656 1058 c 0
 1818.33398438 1010.66699219 1843.00097656 956.333984375 1843.00097656 895.000976562 c 0
 1843.00097656 822.333984375 1808.00097656 757.333984375 1738.00097656 700.000976562 c 1
 1824.00097656 644.000976562 1867.00097656 569.66796875 1867.00097656 477.000976562 c 0
 1867.00097656 373.66796875 1810.33398438 306.66796875 1697.00097656 276.000976562 c 0
 1679.66796875 273.333984375 1662.00097656 272.000976562 1644.00097656 272.000976562 c 0
 1508.00097656 272.000976562 1390.00097656 347.000976562 1290.00097656 497.000976562 c 0
 1264.00097656 535.66796875 1239.66796875 578.66796875 1217.00097656 626.000976562 c 1
EndSplineSet
EndChar

StartChar: u099f
Encoding: 2463 2463 126
Width: 989
GlyphClass: 2
Flags: W
LayerCount: 2
Fore
SplineSet
293 1542 m 1
 100.333007812 1562.66699219 -21.001953125 1587.33105469 -71.001953125 1615.99804688 c 0
 -155.668945312 1660.66503906 -202.3359375 1756.99804688 -211.002929688 1904.99804688 c 1
 -208.3359375 1930.99804688 -190.668945312 1943.99804688 -158.001953125 1943.99804688 c 0
 -132.001953125 1943.99804688 -112.001953125 1934.99804688 -98.001953125 1916.99804688 c 1
 -96.6689453125 1811.66503906 -59.001953125 1740.66503906 14.998046875 1703.99804688 c 0
 66.3310546875 1677.99804688 156.331054688 1664.99804688 284.998046875 1664.99804688 c 2
 405.998046875 1664.99804688 l 2
 554.665039062 1663.66503906 662.33203125 1650.66503906 728.999023438 1625.99804688 c 0
 840.999023438 1583.99804688 896.999023438 1501.33105469 896.999023438 1377.99804688 c 1
 1003.99902344 1377.99804688 l 1
 1003.99902344 1248.99804688 l 1
 290.999023438 1248.99804688 l 1
 290.999023438 359.998046875 l 2
 290.999023438 325.998046875 302.999023438 296.665039062 326.999023438 271.998046875 c 0
 350.999023438 247.998046875 381.33203125 235.998046875 417.999023438 235.998046875 c 0
 469.999023438 235.998046875 521.33203125 262.331054688 571.999023438 314.998046875 c 0
 677.999023438 429.665039062 730.999023438 539.665039062 730.999023438 644.998046875 c 0
 730.999023438 706.331054688 715.33203125 751.998046875 683.999023438 781.998046875 c 0
 682.666015625 783.331054688 655.333007812 803.998046875 602 843.998046875 c 0
 596.666992188 851.998046875 594 860.665039062 594 869.998046875 c 0
 594 886.665039062 600.833007812 901.83203125 614.5 915.499023438 c 0
 628.166992188 929.166015625 646 935.999023438 668 935.999023438 c 1
 788 852.666015625 848 759.666015625 848 656.999023438 c 0
 848 532.999023438 799.666992188 405.999023438 703 275.999023438 c 0
 601.666992188 139.999023438 495 71.9990234375 383 71.9990234375 c 0
 332.333007812 71.9990234375 283.333007812 98.666015625 236 151.999023438 c 0
 188 204.666015625 164 263.333007812 164 328 c 2
 164 1247 l 1
 116 1249 67 1249.66699219 17 1249 c 2
 -11 1249 l 1
 -11 1378 l 1
 770 1378 l 1
 774 1392 776 1405 776 1417 c 0
 776 1504.33300781 673.666992188 1548 469 1548 c 1
 293 1542 l 1
EndSplineSet
EndChar

StartChar: u09a0
Encoding: 2464 2464 127
Width: 1029
GlyphClass: 2
Flags: W
LayerCount: 2
Fore
SplineSet
578 1128 m 1
 579.333007812 1105.33300781 580 1082.33203125 580 1058.99902344 c 0
 580 807.666015625 448.666992188 622.666015625 186 503.999023438 c 1
 185.333007812 443.33203125 195.333007812 389.999023438 216 343.999023438 c 0
 226.666992188 320.666015625 240 299.333007812 256 280 c 0
 304 222 362.666992188 193 432 193 c 0
 504.666992188 193 573.666992188 224.333007812 639 287 c 0
 738.333007812 382.333007812 788 494.333007812 788 623 c 0
 788 781 718 949.333007812 578 1128 c 1
143 1945.99902344 m 0
 143 2059.33203125 215.333007812 2128.66796875 360 2154.00097656 c 1
 397.333007812 2143.33398438 416 2119.00097656 416 2081.00097656 c 0
 416 2060.33398438 408.333007812 2046.66699219 393 2040 c 1
 305.666992188 2040 262 2008 262 1944 c 0
 262 1898.66699219 286 1825.33398438 334 1724.00097656 c 1
 420 1567.33398438 486 1452.00097656 532 1378.00097656 c 1
 1057 1378.00097656 l 1
 1057 1249.00097656 l 1
 635 1249.00097656 l 1
 811 1036.33398438 899 822.666992188 899 608 c 0
 899 474.666992188 856.666992188 354.666992188 772 248 c 0
 682 136 571.333007812 80 440 80 c 0
 391.333007812 80 342.333007812 88.6669921875 293 106 c 0
 238.333007812 125.333007812 186.333007812 175.666015625 137 256.999023438 c 0
 87.6669921875 337.666015625 63 412.999023438 63 482.999023438 c 0
 63 533.666015625 77.3330078125 571.999023438 106 597.999023438 c 1
 233.333007812 649.999023438 326.333007812 713.33203125 385 787.999023438 c 0
 443.666992188 863.33203125 473 958.33203125 473 1072.99902344 c 0
 473 1126.33203125 467 1184.99902344 455 1248.99902344 c 1
 -12 1248.99902344 l 1
 -12 1377.99902344 l 1
 393 1377.99902344 l 1
 379.666992188 1407.99902344 340.666992188 1476.99902344 276 1584.99902344 c 0
 187.333007812 1737.66601562 143 1857.99902344 143 1945.99902344 c 0
EndSplineSet
EndChar

StartChar: u09a1
Encoding: 2465 2465 128
Width: 1468
GlyphClass: 2
Flags: W
LayerCount: 2
Fore
SplineSet
1503 1378 m 1
 1502.99707031 1249.00195312 l 1
 720.997070312 1249.00195312 l 1
 720.997070312 723.001953125 l 1
 730.330078125 695.668945312 746.663085938 682.001953125 769.99609375 682.001953125 c 0
 806.663085938 682.001953125 854.99609375 711.334960938 914.99609375 770.001953125 c 0
 968.329101562 823.334960938 1020.32910156 887.66796875 1070.99609375 963.000976562 c 0
 1078.99609375 976.333984375 1092.66308594 983.000976562 1111.99609375 983.000976562 c 0
 1140.66308594 983.000976562 1166.66308594 971.333984375 1189.99609375 948.000976562 c 0
 1296.66308594 847.333984375 1349.99609375 733.333984375 1349.99609375 606.000976562 c 0
 1349.99609375 540.66796875 1336.32910156 468.334960938 1308.99609375 389.001953125 c 1
 1206.32910156 180.334960938 1066.99609375 74.66796875 890.99609375 72.0009765625 c 0
 815.663085938 71.333984375 740.99609375 86.6669921875 666.99609375 118 c 0
 629.663085938 134 592.330078125 154 554.997070312 178 c 0
 464.997070312 238 390.6640625 311.666992188 331.997070312 399 c 0
 226.6640625 555 136.331054688 764.666992188 60.998046875 1028 c 0
 60.3310546875 1038 62.3310546875 1047 66.998046875 1055 c 0
 69.6650390625 1059.66699219 73.33203125 1064 77.9990234375 1068 c 0
 89.9990234375 1079.33300781 104.999023438 1085 122.999023438 1085 c 0
 143.666015625 1085 160.666015625 1077.66699219 173.999023438 1063 c 1
 246.666015625 836.333007812 311.666015625 673.666015625 368.999023438 574.999023438 c 1
 417.666015625 467.666015625 489.333007812 377.333007812 584 304 c 0
 679.333007812 230 776 193 874 193 c 0
 986 193 1079.66699219 243.333007812 1155 344 c 0
 1205.66699219 412 1231 492 1231 584 c 0
 1231 686 1200.33300781 772.666992188 1139 844 c 1
 1047 740 987.666992188 676.333007812 961 653 c 0
 885.666992188 589 809.666992188 557 733 557 c 1
 640.333007812 571 594 646 594 782 c 2
 594 1249 l 1
 -12 1249 l 1
 -12 1378 l 1
 1503 1378 l 1
EndSplineSet
EndChar

StartChar: u09a2
Encoding: 2466 2466 129
Width: 997
GlyphClass: 2
Flags: W
LayerCount: 2
Fore
SplineSet
-13 1378 m 1
 1031.99902344 1377.99804688 l 1
 1031.99902344 1248.99804688 l 1
 318.999023438 1248.99804688 l 1
 318.999023438 359.998046875 l 2
 318.999023438 325.998046875 330.999023438 296.665039062 354.999023438 271.998046875 c 0
 378.999023438 247.998046875 409.33203125 235.998046875 445.999023438 235.998046875 c 0
 497.999023438 235.998046875 549.33203125 262.331054688 599.999023438 314.998046875 c 0
 705.999023438 429.665039062 758.999023438 539.665039062 758.999023438 644.998046875 c 0
 758.999023438 706.331054688 743.33203125 751.998046875 711.999023438 781.998046875 c 0
 710.666015625 783.331054688 683.333007812 803.998046875 630 843.998046875 c 0
 624.666992188 851.998046875 622 860.665039062 622 869.998046875 c 0
 622 886.665039062 628.833007812 901.83203125 642.5 915.499023438 c 0
 656.166992188 929.166015625 674 935.999023438 696 935.999023438 c 1
 816 852.666015625 876 759.666015625 876 656.999023438 c 0
 876 532.999023438 827.666992188 405.999023438 731 275.999023438 c 0
 629.666992188 139.999023438 523 71.9990234375 411 71.9990234375 c 0
 360.333007812 71.9990234375 311.333007812 98.666015625 264 151.999023438 c 0
 216 204.666015625 192 263.333007812 192 328 c 2
 192 1247 l 1
 -13 1249 l 1
 -13 1378 l 1
EndSplineSet
EndChar

StartChar: u09a3
Encoding: 2467 2467 130
Width: 1051
GlyphClass: 2
Flags: W
LayerCount: 2
Fore
SplineSet
790 139 m 2
 790 847.999023438 l 2
 790 877.999023438 781.666992188 931.999023438 765 1009.99902344 c 0
 754.333007812 1064.66601562 719.333007812 1111.66601562 660 1150.99902344 c 0
 600 1190.33203125 535.333007812 1209.99902344 466 1209.99902344 c 0
 394.666992188 1209.99902344 334.666992188 1187.66601562 286 1142.99902344 c 0
 224.666992188 1086.99902344 194 1020.66601562 194 943.999023438 c 0
 194 879.999023438 214.666992188 822.999023438 256 772.999023438 c 0
 297.333007812 722.999023438 348.333007812 696.666015625 409 693.999023438 c 1
 426.333007812 688.666015625 435 674.999023438 435 652.999023438 c 0
 435 635.666015625 430 619.333007812 420 604 c 0
 410 588 397.333007812 580 382 580 c 0
 234.666992188 608.666992188 141 687 101 815 c 0
 87.6669921875 857.666992188 81 900.666992188 81 944 c 0
 81 1035.33300781 108.333007812 1115.33300781 163 1184 c 0
 236.333007812 1276.66699219 349.666015625 1323 502.999023438 1323 c 0
 599.666015625 1323 695.333007812 1283.33300781 790 1204 c 1
 790 1320 832.333007812 1378 917 1378 c 2
 1072 1378 l 1
 1072 1249 l 1
 917 1249 l 1
 917 141 l 2
 917 107 897.666992188 90 859 90 c 0
 813 90 790 106.333007812 790 139 c 2
EndSplineSet
EndChar

StartChar: u09a4
Encoding: 2468 2468 131
Width: 1459
GlyphClass: 2
Flags: W
LayerCount: 2
Fore
SplineSet
930 1120 m 0
 1014 1120.66699219 1086.66699219 1099.3359375 1148 1056.00292969 c 0
 1178.66699219 1034.00292969 1206.33398438 1006.3359375 1231.00097656 973.002929688 c 0
 1297.66796875 884.3359375 1331.00097656 773.668945312 1331.00097656 641.001953125 c 0
 1331.00097656 597.001953125 1327.00097656 554.001953125 1319.00097656 512.001953125 c 0
 1294.33398438 383.334960938 1246.00097656 280.334960938 1174.00097656 203.001953125 c 0
 1096.00097656 119.668945312 1001.00097656 78.001953125 889.000976562 78.001953125 c 0
 860.333984375 78.001953125 831.666992188 80.6689453125 803 86.001953125 c 0
 691 106.668945312 596.666992188 145.668945312 520 203.001953125 c 0
 475.333007812 237.001953125 419.333007812 295.001953125 352 377.001953125 c 0
 191.333007812 576.334960938 94.3330078125 807.66796875 61 1071.00097656 c 0
 58.3330078125 1081.00097656 59.3330078125 1090.00097656 64 1098.00097656 c 0
 66.6669921875 1102.00097656 70 1105.66796875 74 1109.00097656 c 0
 87.3330078125 1119.00097656 103 1124.00097656 121 1124.00097656 c 0
 147 1124.00097656 164 1114.00097656 172 1094.00097656 c 0
 212.666992188 927.333984375 245.333984375 812.666992188 270.000976562 750 c 0
 314.000976562 636.666992188 376.333984375 530.666992188 457.000976562 432 c 0
 521.000976562 355.333007812 579.000976562 302 631.000976562 272 c 0
 667.66796875 252 733.66796875 228.333007812 829.000976562 201 c 0
 845.66796875 199.666992188 861.66796875 199 877.000976562 199 c 0
 984.333984375 199 1067.33398438 242.666992188 1126.00097656 330 c 0
 1178.00097656 407.333007812 1206.66796875 509 1212.00097656 635 c 0
 1218.00097656 756.333007812 1190.66796875 850 1130.00097656 916 c 0
 1071.33398438 978 998.666992188 1006.66699219 912 1002 c 0
 908 1002 903.666992188 1001.66699219 899 1001 c 0
 805 983.666992188 758 934 758 852 c 0
 758 814 769 780 791 750 c 1
 791 708.666992188 769.666992188 688 727 688 c 0
 712.333007812 688 698 692 684 700 c 1
 652.666992188 752 637 803.333007812 637 854 c 0
 637 929.333007812 667 992.5 727 1043.5 c 0
 787 1094.5 854.666992188 1120 930 1120 c 0
-12 1378.00195312 m 1
 1487 1378.00195312 l 1
 1487 1249.00195312 l 1
 -12 1249.00195312 l 1
 -12 1378.00195312 l 1
EndSplineSet
EndChar

StartChar: u09a5
Encoding: 2469 2469 132
Width: 1149
GlyphClass: 2
Flags: W
LayerCount: 2
Fore
SplineSet
335 1337 m 0
 433 1337 511.6640625 1308.66796875 570.997070312 1252.00097656 c 0
 630.330078125 1195.33398438 659.997070312 1122.00097656 659.997070312 1032.00097656 c 0
 659.997070312 960.000976562 640.330078125 885.000976562 600.997070312 807.000976562 c 0
 566.997070312 740.333984375 499.330078125 670.666992188 397.997070312 598 c 1
 878.997070312 240 l 1
 878.997070312 1249 l 2
 878.997070312 1291.66699219 893.330078125 1324.66699219 921.997070312 1348 c 0
 945.330078125 1368 973.330078125 1378 1005.99707031 1378 c 2
 1161.99707031 1378 l 1
 1161.99707031 1249 l 1
 1005.99707031 1249 l 1
 1005.99707031 123 l 2
 1005.99707031 95.6669921875 979.6640625 82 926.997070312 82 c 0
 906.330078125 82 890.330078125 86 878.997070312 94 c 2
 250.997070312 561 l 1
 242.330078125 580.333007812 237.997070312 597.333007812 237.997070312 612 c 0
 237.997070312 635.333007812 246.997070312 650.333007812 264.997070312 657 c 0
 337.6640625 685.666992188 402.331054688 737.666992188 458.998046875 813 c 0
 515.665039062 888.333007812 543.998046875 961.333007812 543.998046875 1032 c 0
 543.998046875 1119.33300781 498.665039062 1179.33300781 407.998046875 1212 c 1
 380.665039062 1216.66699219 356.33203125 1219 334.999023438 1219 c 0
 212.999023438 1219 148.666015625 1146.33300781 141.999023438 1001 c 1
 136.666015625 972.333007812 114.999023438 958 76.9990234375 958 c 0
 50.9990234375 958 34.33203125 967.666992188 26.9990234375 987 c 1
 18.9990234375 1142.33300781 61.9990234375 1246 155.999023438 1298 c 0
 202.666015625 1324 262.333007812 1337 335 1337 c 0
EndSplineSet
EndChar

StartChar: u09a6
Encoding: 2470 2470 133
Width: 894
GlyphClass: 2
Flags: W
LayerCount: 2
Fore
SplineSet
915 1378 m 1
 915 1249 l 1
 209 1249 l 1
 209 768 l 1
 248.333007812 816 318 874 418 942 c 0
 535.333007812 1021.33300781 623.333007812 1058 682 1052 c 0
 684.666992188 1052 687.333984375 1051.66699219 690.000976562 1051 c 0
 734.000976562 1046.33300781 755.333984375 1022.33300781 754.000976562 979 c 1
 688.000976562 796.333007812 655.000976562 646 655.000976562 528 c 0
 655.000976562 401.333007812 689.333984375 272.333007812 758.000976562 141 c 1
 761.333984375 123.666992188 758.000976562 110 748.000976562 100 c 2
 733.000976562 90 l 1
 727.000976562 88 l 2
 707.66796875 81.3330078125 683.66796875 79.3330078125 655.000976562 82 c 1
 576.333984375 221.333007812 537.000976562 365.333007812 537.000976562 514 c 0
 537.000976562 627.333007812 560.000976562 758.333007812 606.000976562 907 c 1
 452.000976562 847 315.000976562 745.333007812 195.000976562 602 c 1
 178.333984375 592.666992188 159.666992188 588 139 588 c 0
 101 588 82 603.666992188 82 635 c 2
 82 1249 l 1
 -12 1249 l 1
 -12 1378 l 1
 915 1378 l 1
EndSplineSet
EndChar

StartChar: u09a7
Encoding: 2471 2471 134
Width: 971
GlyphClass: 2
Flags: W
LayerCount: 2
Fore
SplineSet
709 248 m 1
 709 1014 l 1
 207 705 l 1
 709 248 l 1
991 1378 m 1
 990.999023438 1248.99804688 l 1
 835.999023438 1248.99804688 l 1
 835.999023438 108.998046875 l 2
 835.999023438 86.998046875 809.999023438 75.998046875 757.999023438 75.998046875 c 0
 737.33203125 75.998046875 720.999023438 79.3310546875 708.999023438 85.998046875 c 2
 73.9990234375 671.998046875 l 2
 65.33203125 681.331054688 60.9990234375 694.331054688 60.9990234375 710.998046875 c 0
 60.9990234375 735.665039062 69.9990234375 757.998046875 87.9990234375 777.998046875 c 1
 271.999023438 884.998046875 l 1
 164.666015625 932.331054688 93.666015625 1001.99804688 58.9990234375 1093.99804688 c 0
 56.33203125 1109.99804688 54.9990234375 1126.33105469 54.9990234375 1142.99804688 c 0
 54.9990234375 1222.33105469 87.9990234375 1282.33105469 153.999023438 1322.99804688 c 0
 209.999023438 1356.99804688 282.33203125 1373.99804688 370.999023438 1373.99804688 c 1
 395.666015625 1367.33105469 407.999023438 1350.33105469 407.999023438 1322.99804688 c 0
 407.999023438 1287.66503906 396.33203125 1264.33203125 372.999023438 1252.99902344 c 1
 240.33203125 1252.99902344 173.999023438 1218.99902344 173.999023438 1150.99902344 c 0
 173.999023438 1135.66601562 177.33203125 1119.33300781 183.999023438 1102 c 0
 230.666015625 1022.66699219 300.333007812 983 393 983 c 0
 408.333007812 983 423.333007812 984.333007812 438 987 c 1
 709 1155 l 1
 709 1249 l 2
 709 1335 751.333007812 1378 836 1378 c 2
 991 1378 l 1
EndSplineSet
EndChar

StartChar: u09a8
Encoding: 2472 2472 135
Width: 1064
GlyphClass: 2
Flags: W
LayerCount: 2
Fore
SplineSet
1077 1378 m 1
 1076.99804688 1249.00097656 l 1
 921.998046875 1249.00097656 l 1
 921.998046875 104.000976562 l 2
 921.998046875 80.0009765625 900.665039062 68.0009765625 857.998046875 68.0009765625 c 0
 815.998046875 68.0009765625 794.998046875 80.0009765625 794.998046875 104.000976562 c 2
 794.998046875 539.000976562 l 1
 776.998046875 617.66796875 748.665039062 678.000976562 709.998046875 720.000976562 c 0
 655.331054688 779.333984375 575.6640625 809.000976562 470.997070312 809.000976562 c 0
 394.330078125 809.000976562 330.997070312 787.66796875 280.997070312 745.000976562 c 0
 228.997070312 699.000976562 202.997070312 639.000976562 202.997070312 565.000976562 c 0
 202.997070312 493.66796875 218.330078125 440.66796875 248.997070312 406.000976562 c 0
 268.997070312 382.66796875 302.6640625 358.000976562 349.997070312 332.000976562 c 0
 359.997070312 322.000976562 364.997070312 311.000976562 364.997070312 299.000976562 c 0
 364.997070312 281.000976562 357.997070312 265.333984375 343.997070312 252.000976562 c 0
 330.6640625 239.333984375 316.331054688 233.666992188 300.998046875 235 c 0
 299.665039062 235.666992188 298.33203125 236 296.999023438 236 c 0
 212.33203125 268.666992188 152.999023438 323 118.999023438 399 c 0
 94.33203125 453.666992188 81.9990234375 509.666992188 81.9990234375 567 c 0
 81.9990234375 657 110.999023438 735.333007812 168.999023438 802 c 0
 241.666015625 886 346.333007812 928 483 928 c 0
 603.666992188 928 707.666992188 885 795 799 c 1
 795 1249 l 1
 -12 1249 l 1
 -12 1378 l 1
 1077 1378 l 1
EndSplineSet
EndChar

StartChar: u09aa
Encoding: 2474 2474 136
Width: 1324
GlyphClass: 2
Flags: W
LayerCount: 2
Fore
SplineSet
823 1110 m 1
 731.666992188 1197.33300781 639.666992188 1241 547 1241 c 0
 454.333007812 1241 363.333007812 1197.33300781 274 1110 c 1
 524 815 l 1
 823 1110 l 1
1053 1028 m 1
 1052.99902344 1247 l 2
 1052.99902344 1282.33300781 1065.49902344 1313 1090.49902344 1339 c 0
 1115.49902344 1365 1145.33203125 1378 1179.99902344 1378 c 2
 1334.99902344 1378 l 1
 1334.99902344 1249 l 1
 1179.99902344 1249 l 1
 1179.99902344 113 l 2
 1179.99902344 85.6669921875 1159.33203125 72 1117.99902344 72 c 0
 1074.66601562 72 1052.99902344 85 1052.99902344 111 c 2
 1052.99902344 672 l 2
 1052.99902344 734.666992188 1036.66601562 798.666992188 1003.99902344 864 c 0
 988.666015625 895.333007812 955.666015625 948.666015625 904.999023438 1023.99902344 c 1
 435.999023438 564.999023438 l 1
 419.33203125 561.666015625 404.665039062 562.333007812 391.998046875 567 c 0
 385.331054688 569 379.331054688 572 373.998046875 576 c 0
 356.665039062 589.333007812 347.998046875 606.333007812 347.998046875 627 c 0
 347.998046875 635 349.331054688 642.333007812 351.998046875 649 c 2
 433.998046875 733 l 1
 204.998046875 1010 l 1
 142.998046875 907 l 1
 133.665039062 901.666992188 124.33203125 899 114.999023438 899 c 0
 95.666015625 899 78.666015625 906 63.9990234375 920 c 0
 49.9990234375 933.333007812 41.666015625 949 38.9990234375 967 c 1
 135.666015625 1178.33300781 280.333007812 1307.33300781 473 1354 c 0
 503 1360.66699219 533 1364 563 1364 c 0
 743.666992188 1364 907 1252 1053 1028 c 1
EndSplineSet
EndChar

StartChar: u09ab
Encoding: 2475 2475 137
Width: 1399
GlyphClass: 2
Flags: W
LayerCount: 2
Fore
SplineSet
1422 1378 m 1
 1422.00097656 1248.99707031 l 1
 197.000976562 1248.99707031 l 1
 465.000976562 947.997070312 l 1
 476.333984375 918.6640625 478.333984375 895.331054688 471.000976562 877.998046875 c 0
 467.000976562 868.665039062 461.000976562 861.33203125 453.000976562 855.999023438 c 2
 242.000976562 656.999023438 l 1
 740.000976562 247.999023438 l 1
 740.000976562 1052.99902344 l 2
 740.000976562 1128.99902344 761.66796875 1166.99902344 805.000976562 1166.99902344 c 0
 1034.33398438 1166.99902344 1184.00097656 1101.66601562 1254.00097656 970.999023438 c 0
 1284.00097656 913.666015625 1299.00097656 854.333007812 1299.00097656 793 c 0
 1299.00097656 712.333007812 1276.00097656 640.666015625 1230.00097656 577.999023438 c 0
 1184.00097656 515.999023438 1132.33398438 482.33203125 1075.00097656 476.999023438 c 1
 1039.66796875 480.999023438 1022.00097656 504.33203125 1022.00097656 546.999023438 c 0
 1022.00097656 572.999023438 1033.00097656 589.999023438 1055.00097656 597.999023438 c 1
 1075.66796875 595.33203125 1095.00097656 602.33203125 1113.00097656 618.999023438 c 0
 1122.33398438 628.33203125 1131.33398438 639.999023438 1140.00097656 653.999023438 c 0
 1165.33398438 694.666015625 1178.00097656 742.333007812 1178.00097656 797 c 0
 1178.00097656 841.666992188 1167.66796875 883.333984375 1147.00097656 922.000976562 c 0
 1101.00097656 1010.66796875 1007.66796875 1055.00097656 867.000976562 1055.00097656 c 1
 867.000976562 127.000976562 l 2
 869.000976562 104.333984375 861.333984375 89.333984375 844.000976562 82.0009765625 c 0
 835.333984375 78.0009765625 824.333984375 76.0009765625 811.000976562 76.0009765625 c 0
 782.333984375 76.0009765625 758.666992188 84.0009765625 740 100.000976562 c 2
 117 608.000976562 l 1
 109 624.66796875 105 639.66796875 105 653.000976562 c 0
 105 672.333984375 113 691.666992188 129 711 c 2
 340 907 l 1
 33 1249 l 1
 -18 1249 l 1
 -18 1378 l 1
 1422 1378 l 1
EndSplineSet
EndChar

StartChar: u09ac
Encoding: 2476 2476 138
Width: 980
GlyphClass: 2
Flags: W
LayerCount: 2
Fore
SplineSet
715 262 m 1
 715 1024 l 1
 213 711 l 1
 715 262 l 1
-12 1378 m 1
 997 1378 l 1
 997 1249 l 1
 842 1249 l 1
 842 127 l 1
 833.333007812 95.6669921875 809.333007812 80 770 80 c 0
 748 80 729.666992188 86.6669921875 715 100 c 2
 78 680 l 2
 66.6669921875 689.333007812 61 703 61 721 c 0
 61 744.333007812 68 760 82 768 c 2
 715 1155 l 1
 715 1249 l 1
 -12 1249 l 1
 -12 1378 l 1
EndSplineSet
EndChar

StartChar: u09ad
Encoding: 2477 2477 139
Width: 1598
GlyphClass: 2
Flags: W
LayerCount: 2
Fore
SplineSet
168 1182 m 1
 192.666992188 1007.33300781 248.668945312 836 336.001953125 668 c 0
 401.334960938 540.666992188 478.334960938 435.333984375 567.001953125 352.000976562 c 0
 684.334960938 241.333984375 807.334960938 186.000976562 936.001953125 186.000976562 c 0
 1079.33496094 186.000976562 1196.00195312 243.333984375 1286.00195312 358.000976562 c 0
 1339.33496094 426.66796875 1366.00195312 500.66796875 1366.00195312 580.000976562 c 0
 1366.00195312 660.000976562 1335.33496094 734.333984375 1274.00195312 803.000976562 c 1
 1174.00195312 685.66796875 1081.00195312 617.334960938 995.001953125 598.001953125 c 0
 970.334960938 592.668945312 946.001953125 590.001953125 922.001953125 590.001953125 c 0
 841.334960938 590.001953125 775.66796875 618.001953125 725.000976562 674.001953125 c 0
 674.333984375 730.001953125 649.000976562 799.001953125 649.000976562 881.001953125 c 0
 649.000976562 916.334960938 654.66796875 951.66796875 666.000976562 987.000976562 c 1
 679.333984375 1002.33398438 695.000976562 1010.00097656 713.000976562 1010.00097656 c 0
 739.000976562 1010.00097656 762.66796875 994.333984375 784.000976562 963.000976562 c 1
 777.333984375 933.000976562 774.000976562 905.000976562 774.000976562 879.000976562 c 0
 774.000976562 763.000976562 822.66796875 705.000976562 920.000976562 705.000976562 c 0
 934.66796875 705.000976562 949.66796875 707.000976562 965.000976562 711.000976562 c 0
 1022.33398438 724.333984375 1071.33398438 753.666992188 1112.00097656 799 c 0
 1130.00097656 819 1159.33398438 861.333007812 1200.00097656 926 c 0
 1209.33398438 947.333007812 1230.66699219 958 1264 958 c 0
 1278.66699219 958 1291.66699219 953.333007812 1303 944 c 0
 1427 829.333007812 1489 708 1489 580 c 0
 1489 504.666992188 1467 429.333984375 1423 354.000976562 c 0
 1305.66699219 150.66796875 1146.66699219 49.0009765625 946 49.0009765625 c 0
 715.333007812 49.0009765625 509.333007812 183.000976562 328 451.000976562 c 0
 247.333007812 568.333984375 188 678.666992188 150 782 c 0
 114 879.333007812 84.3330078125 1002.33300781 61 1151 c 1
 68.3330078125 1179.66699219 87 1194 117 1194 c 0
 133 1194 150 1190 168 1182 c 1
-11.998046875 1378 m 1
 1636.00195312 1378 l 1
 1636.00195312 1249 l 1
 -11.998046875 1249 l 1
 -11.998046875 1378 l 1
EndSplineSet
EndChar

StartChar: u09ae
Encoding: 2478 2478 140
Width: 1157
GlyphClass: 2
Flags: W
LayerCount: 2
Fore
SplineSet
887 1249 m 1
 300.999023438 1249 l 1
 220.999023438 1120 l 1
 297.666015625 1110.66699219 361.333007812 1082.66699219 412 1036 c 0
 463.333007812 990 491.333007812 930 496 856 c 1
 548 858.666992188 597.333007812 852.666992188 644 838 c 0
 668 830.666992188 691 821 713 809 c 0
 765 780.333007812 823 732 887 664 c 1
 887 1249 l 1
-12.0009765625 1378 m 1
 1168.99609375 1378.00292969 l 1
 1168.99609375 1249.00292969 l 1
 1013.99609375 1249.00292969 l 1
 1013.99609375 117.002929688 l 2
 1013.99609375 92.3359375 993.99609375 80.0029296875 953.99609375 80.0029296875 c 0
 909.329101562 80.0029296875 886.99609375 93.0029296875 886.99609375 119.002929688 c 2
 886.99609375 209.002929688 l 2
 886.99609375 307.002929688 879.99609375 384.002929688 865.99609375 440.002929688 c 0
 844.663085938 522.002929688 804.330078125 587.002929688 744.997070312 635.002929688 c 1
 675.6640625 701.669921875 596.6640625 735.002929688 507.997070312 735.002929688 c 0
 395.997070312 735.002929688 315.330078125 683.3359375 265.997070312 580.002929688 c 1
 257.997070312 551.3359375 253.997070312 522.668945312 253.997070312 494.001953125 c 0
 253.997070312 426.668945312 273.6640625 370.668945312 312.997070312 326.001953125 c 0
 355.6640625 276.668945312 412.331054688 252.001953125 482.998046875 252.001953125 c 1
 500.998046875 244.001953125 509.998046875 227.668945312 509.998046875 203.001953125 c 0
 509.998046875 159.001953125 494.998046875 137.001953125 464.998046875 137.001953125 c 0
 299.665039062 152.334960938 193.665039062 239.66796875 146.998046875 399.000976562 c 1
 141.665039062 435.000976562 138.998046875 468.000976562 138.998046875 498.000976562 c 0
 138.998046875 638.66796875 217.665039062 750.66796875 374.998046875 834.000976562 c 1
 376.998046875 877.333984375 365.331054688 912.666992188 339.998046875 940 c 2
 317.998046875 960 l 2
 310.665039062 965.333007812 302.33203125 970.333007812 292.999023438 975 c 0
 251.666015625 996.333007812 200.999023438 1005.33300781 140.999023438 1002 c 0
 134.999023438 1002 128.999023438 1001.66699219 122.999023438 1001 c 0
 81.666015625 1008.33300781 60.9990234375 1031 60.9990234375 1069 c 0
 60.9990234375 1077 61.666015625 1085.33300781 62.9990234375 1094 c 2
 159.999023438 1249 l 1
 -12.0009765625 1249 l 1
 -12.0009765625 1378 l 1
EndSplineSet
EndChar

StartChar: u09af
Encoding: 2479 2479 141
Width: 1003
GlyphClass: 2
Flags: W
LayerCount: 2
Fore
SplineSet
-12 1378 m 1
 1015.99902344 1378.00097656 l 1
 1015.99902344 1249.00097656 l 1
 859.999023438 1249.00097656 l 1
 859.999023438 123.000976562 l 2
 859.999023438 87.66796875 835.999023438 70.0009765625 787.999023438 70.0009765625 c 0
 766.666015625 70.0009765625 748.333007812 75.333984375 733 86.0009765625 c 2
 66 569.000976562 l 2
 50.6669921875 580.333984375 43 594.666992188 43 612 c 0
 43 627.333007812 48.3330078125 642.333007812 59 657 c 1
 336 899 l 1
 41 1249 l 1
 -12 1249 l 1
 -12 1378 l 1
198.999023438 1249.00097656 m 1
 464.999023438 926.000976562 l 1
 475.666015625 902.000976562 477.999023438 882.000976562 471.999023438 866.000976562 c 0
 469.33203125 858.000976562 464.33203125 850.66796875 456.999023438 844.000976562 c 2
 187.999023438 618.000976562 l 1
 732.999023438 236.000976562 l 1
 732.999023438 1249.00097656 l 1
 198.999023438 1249.00097656 l 1
EndSplineSet
EndChar

StartChar: u09b0
Encoding: 2480 2480 142
Width: 985
GlyphClass: 2
Flags: W
LayerCount: 2
Fore
SplineSet
715 262 m 1
 715 1024 l 1
 213 711 l 1
 715 262 l 1
-12 1378 m 1
 997 1378 l 1
 997 1249 l 1
 842 1249 l 1
 842 127 l 1
 833.333007812 95.6669921875 809.333007812 80 770 80 c 0
 748 80 729.666992188 86.6669921875 715 100 c 2
 78 680 l 2
 66.6669921875 689.333007812 61 703 61 721 c 0
 61 744.333007812 68 760 82 768 c 2
 715 1155 l 1
 715 1249 l 1
 -12 1249 l 1
 -12 1378 l 1
300 250 m 1
 460 250 l 1
 460 100 l 1
 300 100 l 1
 300 250 l 1
EndSplineSet
EndChar

StartChar: u09b2
Encoding: 2482 2482 143
Width: 1398
GlyphClass: 2
Flags: W
LayerCount: 2
Fore
SplineSet
1423 1378 m 1
 1423.00195312 1249.00097656 l 1
 1268.00195312 1249.00097656 l 1
 1268.00195312 127.000976562 l 2
 1268.00195312 84.333984375 1246.00195312 63.0009765625 1202.00195312 63.0009765625 c 0
 1161.33496094 63.0009765625 1141.00195312 83.0009765625 1141.00195312 123.000976562 c 2
 1141.00195312 719.000976562 l 1
 1060.33496094 871.66796875 979.001953125 948.000976562 897.001953125 948.000976562 c 0
 833.001953125 948.000976562 779.001953125 898.333984375 735.001953125 799.000976562 c 1
 724.334960938 787.66796875 706.001953125 782.000976562 680.001953125 782.000976562 c 0
 654.001953125 782.000976562 635.001953125 789.000976562 623.001953125 803.000976562 c 1
 585.668945312 908.333984375 514.668945312 961.000976562 410.001953125 961.000976562 c 0
 311.334960938 961.000976562 240.334960938 914.333984375 197.001953125 821.000976562 c 0
 185.668945312 788.333984375 180.001953125 757.000976562 180.001953125 727.000976562 c 0
 180.001953125 659.000976562 204.668945312 603.333984375 254.001953125 560.000976562 c 0
 303.334960938 516.000976562 362.66796875 494.000976562 432.000976562 494.000976562 c 0
 444.66796875 494.000976562 457.000976562 494.66796875 469.000976562 496.000976562 c 1
 495.000976562 486.000976562 508.000976562 469.333984375 508.000976562 446.000976562 c 0
 508.000976562 417.333984375 495.000976562 395.666992188 469.000976562 381 c 1
 455.66796875 379.666992188 441.334960938 379 426.001953125 379 c 0
 322.001953125 379 234.668945312 413.333007812 164.001953125 482 c 0
 94.001953125 551.333007812 59.001953125 633 59.001953125 727 c 0
 59.001953125 791 77.6689453125 853 115.001953125 913 c 0
 184.334960938 1025 282.66796875 1081 410.000976562 1081 c 0
 520.000976562 1081 609.333984375 1035.33300781 678.000976562 944 c 1
 747.333984375 1026 817.666992188 1067 889 1067 c 0
 967 1067 1051 1020 1141 926 c 1
 1141 1249 l 1
 -12 1249 l 1
 -12 1378 l 1
 1423 1378 l 1
EndSplineSet
EndChar

StartChar: u09b6
Encoding: 2486 2486 144
Width: 1286
GlyphClass: 2
Flags: W
LayerCount: 2
Fore
SplineSet
1150 1249 m 1
 1150.00097656 122.997070312 l 2
 1150.00097656 95.6640625 1131.00097656 81.9970703125 1093.00097656 81.9970703125 c 0
 1046.33398438 81.9970703125 1023.00097656 95.6640625 1023.00097656 122.997070312 c 2
 1023.00097656 1050.99707031 l 2
 1023.00097656 1098.33007812 993.66796875 1143.33007812 935.000976562 1185.99707031 c 0
 871.000976562 1230.6640625 798.000976562 1252.99707031 716.000976562 1252.99707031 c 0
 661.333984375 1252.99707031 612.000976562 1236.6640625 568.000976562 1203.99707031 c 0
 517.333984375 1165.99707031 493.000976562 1116.6640625 495.000976562 1055.99707031 c 2
 495.000976562 1050.99707031 l 1
 499.000976562 968.997070312 529.66796875 909.997070312 587.000976562 873.997070312 c 0
 631.66796875 845.330078125 705.334960938 825.663085938 808.001953125 814.99609375 c 1
 817.334960938 809.663085938 822.001953125 797.99609375 822.001953125 779.99609375 c 0
 822.001953125 743.329101562 812.668945312 716.662109375 794.001953125 699.995117188 c 1
 687.334960938 709.995117188 610.001953125 727.328125 562.001953125 751.995117188 c 0
 507.334960938 780.662109375 458.334960938 833.662109375 415.001953125 910.995117188 c 1
 368.334960938 820.995117188 313.66796875 760.995117188 251.000976562 730.995117188 c 0
 208.333984375 711.662109375 136.000976562 699.329101562 34.0009765625 693.99609375 c 1
 17.333984375 706.663085938 9.0009765625 725.330078125 9.0009765625 749.997070312 c 0
 9.0009765625 772.6640625 16.0009765625 792.331054688 30.0009765625 808.998046875 c 1
 103.333984375 812.998046875 167.333984375 831.998046875 222.000976562 865.998046875 c 0
 282.000976562 904.665039062 319.000976562 953.33203125 333.000976562 1011.99902344 c 0
 340.333984375 1041.99902344 337.000976562 1072.33203125 323.000976562 1102.99902344 c 0
 316.333984375 1118.33203125 307.000976562 1133.99902344 295.000976562 1149.99902344 c 0
 259.000976562 1197.33203125 215.000976562 1226.99902344 163.000976562 1238.99902344 c 0
 133.000976562 1245.66601562 78.333984375 1248.99902344 -0.9990234375 1248.99902344 c 0
 -21.666015625 1248.99902344 -31.9990234375 1271.66601562 -31.9990234375 1316.99902344 c 0
 -31.9990234375 1357.66601562 -21.666015625 1377.99902344 -0.9990234375 1377.99902344 c 0
 108.333984375 1377.99902344 181.333984375 1371.99902344 218.000976562 1359.99902344 c 0
 292.000976562 1336.66601562 357.000976562 1277.33300781 413.000976562 1182 c 1
 456.333984375 1248.66699219 500.000976562 1295.66699219 544.000976562 1323 c 0
 583.333984375 1349 640.666992188 1367.33300781 716 1378 c 0
 754 1380 793.666992188 1375.66699219 835 1365 c 0
 856.333007812 1359 878 1352 900 1344 c 0
 965.333007812 1318 1006.33300781 1285.66699219 1023 1247 c 1
 1023 1275.66699219 1035.66699219 1304.66699219 1061 1334 c 0
 1086.33300781 1363.33300781 1116 1378 1150 1378 c 2
 1306 1378 l 1
 1306 1249 l 1
 1150 1249 l 1
EndSplineSet
EndChar

StartChar: u09b7
Encoding: 2487 2487 145
Width: 1003
GlyphClass: 2
Flags: W
LayerCount: 2
Fore
SplineSet
1016 1249 m 1
 859.999023438 1249.00097656 l 1
 859.999023438 123.000976562 l 2
 859.999023438 87.66796875 835.999023438 70.0009765625 787.999023438 70.0009765625 c 0
 766.666015625 70.0009765625 748.333007812 75.333984375 733 86.0009765625 c 2
 66 569.000976562 l 2
 50.6669921875 580.333984375 43 594.666992188 43 612 c 0
 43 627.333007812 48.3330078125 642.333007812 59 657 c 1
 336 899 l 1
 41 1249 l 1
 -12 1249 l 1
 -12 1378 l 1
 1016 1378 l 1
 1016 1249 l 1
732.999023438 803.000976562 m 1
 732.999023438 1249.00097656 l 1
 198.999023438 1249.00097656 l 1
 462.999023438 928.000976562 l 1
 732.999023438 803.000976562 l 1
732.999023438 236.000976562 m 1
 732.999023438 674.000976562 l 1
 419.999023438 813.000976562 l 1
 187.999023438 618.000976562 l 1
 732.999023438 236.000976562 l 1
EndSplineSet
EndChar

StartChar: u09b8
Encoding: 2488 2488 146
Width: 1333
GlyphClass: 2
Flags: W
LayerCount: 2
Fore
SplineSet
1073 1249 m 1
 446 1248.99902344 l 1
 362 1109.99902344 l 1
 442.666992188 1094.66601562 509 1067.99902344 561 1029.99902344 c 0
 605 998.666015625 650.666992188 948.333007812 698 879 c 1
 739.333007812 906.333007812 779 920 817 920 c 0
 885.666992188 920 971 861.666992188 1073 745 c 1
 1073 1249 l 1
1356 1377.99902344 m 1
 1356 1248.99707031 l 1
 1200 1248.99707031 l 1
 1200 99.9970703125 l 2
 1200 72.6640625 1181 58.9970703125 1143 58.9970703125 c 0
 1096.33300781 58.9970703125 1073 72.6640625 1073 99.9970703125 c 2
 1073 239.997070312 l 2
 1073 392.6640625 1042.33300781 527.6640625 981 644.997070312 c 0
 926.333007812 751.6640625 870.333007812 804.997070312 813 804.997070312 c 0
 783 804.997070312 760.333007812 786.6640625 745 749.997070312 c 1
 703 606.6640625 645.666992188 488.331054688 573 394.998046875 c 0
 495.666992188 295.665039062 415.333984375 245.998046875 332.000976562 245.998046875 c 0
 236.000976562 245.998046875 148.000976562 314.331054688 68.0009765625 450.998046875 c 0
 64.66796875 460.331054688 63.0009765625 468.998046875 63.0009765625 476.998046875 c 0
 63.0009765625 510.998046875 83.0009765625 527.998046875 123.000976562 527.998046875 c 0
 137.66796875 527.998046875 152.66796875 523.998046875 168.000976562 515.998046875 c 1
 222.66796875 417.998046875 278.66796875 368.998046875 336.000976562 368.998046875 c 0
 422.000976562 368.998046875 517.000976562 497.998046875 621.000976562 755.998046875 c 1
 574.333984375 845.998046875 527.666992188 907.998046875 481 941.998046875 c 0
 429 978.665039062 354 998.33203125 256 1000.99902344 c 0
 230 998.33203125 212.666992188 1005.33203125 204 1021.99902344 c 0
 199.333007812 1030.66601562 197 1041.66601562 197 1054.99902344 c 0
 197 1068.33203125 201 1081.33203125 209 1093.99902344 c 2
 293 1248.99902344 l 1
 -12 1248.99902344 l 1
 -12 1377.99902344 l 1
 1356 1377.99902344 l 1
EndSplineSet
EndChar

StartChar: u09b9
Encoding: 2489 2489 147
Width: 909
GlyphClass: 2
Flags: W
LayerCount: 2
Fore
SplineSet
932 1378 m 1
 931.999023438 1249 l 1
 376.999023438 1249 l 2
 374.33203125 1249 376.33203125 1247.66699219 382.999023438 1245 c 0
 386.33203125 1243.66699219 390.999023438 1241.66699219 396.999023438 1239 c 0
 421.666015625 1229.66699219 437.333007812 1220.66699219 444 1212 c 1
 458 1215.33300781 473 1217 489 1217 c 0
 573.666992188 1217 648.333984375 1192.33300781 713.000976562 1143 c 0
 797.66796875 1077 840.000976562 980 840.000976562 852 c 0
 840.000976562 828.666992188 838.66796875 805.333984375 836.000976562 782.000976562 c 0
 785.333984375 585.333984375 609.000976562 468.666992188 307.000976562 432 c 1
 1026.00097656 -12 l 1
 1028.66796875 -20.6669921875 1030.00097656 -29 1030.00097656 -37 c 0
 1030.00097656 -74.3330078125 1010.33398438 -92 971.000976562 -90 c 2
 965.000976562 -90 l 1
 59.0009765625 465 l 1
 47.0009765625 481 41.0009765625 498 41.0009765625 516 c 0
 41.0009765625 554 58.0009765625 573 92.0009765625 573 c 0
 98.66796875 573 106.334960938 571.666992188 115.001953125 569 c 0
 171.001953125 561 224.001953125 557 274.001953125 557 c 0
 502.001953125 557 649.668945312 635.666992188 717.001953125 793 c 1
 721.001953125 813 723.001953125 834 723.001953125 856 c 0
 723.001953125 914.666992188 706.668945312 966.666992188 674.001953125 1012 c 0
 633.334960938 1069.33300781 569.66796875 1098 483.000976562 1098 c 0
 325.000976562 1098 241.66796875 1016 233.000976562 852 c 1
 221.000976562 832.666992188 202.000976562 823 176.000976562 823 c 0
 147.333984375 823 128.333984375 837.333007812 119.000976562 866 c 1
 119.000976562 929.333007812 136.66796875 991 172.000976562 1051 c 0
 207.333984375 1111 253.666992188 1152.66699219 311 1176 c 1
 221 1249 l 1
 -12 1249 l 1
 -12 1378 l 1
 932 1378 l 1
EndSplineSet
EndChar

StartChar: u09bc
Encoding: 2492 2492 148
Width: 12
GlyphClass: 2
Flags: W
LayerCount: 2
Fore
SplineSet
-376 -10 m 1
 -216 -10 l 1
 -216 -160 l 1
 -376 -160 l 1
 -376 -10 l 1
EndSplineSet
EndChar

StartChar: avagraha
Encoding: 2493 2493 149
Width: 909
GlyphClass: 2
Flags: W
LayerCount: 2
Fore
SplineSet
-8 1378 m 1
 82.6669921875 1398 173.333007812 1385.66796875 264 1341.00097656 c 0
 310 1318.33398438 355.666992188 1287.66699219 401 1249 c 2
 449 1212 l 1
 462.333007812 1215.33300781 477.333007812 1217 494 1217 c 0
 578.666992188 1217 653 1192.33300781 717 1143 c 0
 801.666992188 1077 844 980 844 852 c 0
 844 828.666992188 842.666992188 805.333984375 840 782.000976562 c 0
 789.333007812 585.333984375 613 468.666992188 311 432 c 1
 1030 -12 l 1
 1032.66699219 -20.6669921875 1034 -29 1034 -37 c 0
 1034 -74.3330078125 1014.33300781 -92 975 -90 c 2
 969 -90 l 1
 63 465 l 1
 51 481 45 498 45 516 c 0
 45 554 62 573 96 573 c 0
 102.666992188 573 110.333984375 571.666992188 119.000976562 569 c 0
 175.000976562 561 228.333984375 557 279.000976562 557 c 0
 507.000976562 557 654.333984375 635.666992188 721.000976562 793 c 1
 725.000976562 813 727.000976562 834 727.000976562 856 c 0
 727.000976562 914.666992188 710.66796875 966.666992188 678.000976562 1012 c 0
 637.333984375 1069.33300781 573.666992188 1098 487 1098 c 0
 329 1098 246 1016 238 852 c 1
 225.333007812 832.666992188 206 823 180 823 c 0
 151.333007812 823 132.333007812 837.333007812 123 866 c 1
 123 929.333007812 140.666992188 991 176 1051 c 0
 211.333007812 1111 257.666015625 1152.66699219 314.999023438 1176 c 1
 231.666015625 1252.66699219 142.333007812 1282 47 1264 c 0
 29 1260.66699219 10.6669921875 1255.66699219 -8 1249 c 1
 -8 1378 l 1
EndSplineSet
EndChar

StartChar: u09be
Encoding: 2494 2494 150
Width: 505
GlyphClass: 2
Flags: W
LayerCount: 2
Fore
SplineSet
497 1378 m 1
 497 1249 l 1
 332 1249 l 1
 332 127 l 2
 332 106.333007812 310 96 266 96 c 0
 225.333007812 96 205 107.666992188 205 131 c 2
 205 1249 l 1
 -12 1249 l 1
 -12 1378 l 1
 497 1378 l 1
EndSplineSet
EndChar

StartChar: u09bf
Encoding: 2495 2495 151
Width: 475
GlyphClass: 2
Flags: W
LayerCount: 2
Fore
SplineSet
1307 1610 m 0
 1309.66699219 1601.33300781 1310.99902344 1593.66601562 1310.99902344 1586.99902344 c 0
 1310.99902344 1550.33203125 1290.33203125 1531.99902344 1248.99902344 1531.99902344 c 0
 1238.33203125 1531.99902344 1228.33203125 1533.99902344 1218.99902344 1537.99902344 c 1
 1044.99902344 1737.33203125 857.666015625 1836.99902344 656.999023438 1836.99902344 c 0
 594.33203125 1836.99902344 526.33203125 1828.66601562 452.999023438 1811.99902344 c 1
 300.999023438 1754.66601562 224.999023438 1675.66601562 224.999023438 1574.99902344 c 0
 224.999023438 1510.99902344 253.666015625 1445.33203125 310.999023438 1377.99902344 c 1
 496.999023438 1377.99902344 l 1
 496.999023438 1248.99902344 l 1
 331.999023438 1248.99902344 l 1
 331.999023438 134.999023438 l 2
 331.999023438 110.33203125 309.999023438 97.9990234375 265.999023438 97.9990234375 c 0
 225.33203125 97.9990234375 204.999023438 111.666015625 204.999023438 138.999023438 c 2
 204.999023438 1248.99902344 l 1
 -12.0009765625 1248.99902344 l 1
 -12.0009765625 1377.99902344 l 1
 175.999023438 1377.99902344 l 1
 119.999023438 1432.66601562 91.9990234375 1496.33300781 91.9990234375 1569 c 0
 91.9990234375 1686.33300781 151.33203125 1783.33300781 269.999023438 1860 c 1
 391.999023438 1922.66699219 518.999023438 1954 650.999023438 1954 c 0
 911.666015625 1954 1130.33300781 1839.33300781 1307 1610 c 0
EndSplineSet
EndChar

StartChar: u09c0
Encoding: 2496 2496 152
Width: 475
GlyphClass: 2
Flags: W
LayerCount: 2
Fore
SplineSet
-201 1894 m 0
 99.6669921875 1832.66699219 267.670898438 1660.66601562 303.00390625 1377.99902344 c 1
 497.00390625 1377.99902344 l 1
 497.00390625 1248.99902344 l 1
 332.00390625 1248.99902344 l 1
 332.00390625 126.999023438 l 2
 332.00390625 82.9990234375 310.670898438 60.9990234375 268.00390625 60.9990234375 c 0
 226.00390625 60.9990234375 205.00390625 82.9990234375 205.00390625 126.999023438 c 2
 205.00390625 1248.99902344 l 1
 -19.99609375 1248.99902344 l 1
 -19.99609375 1377.99902344 l 1
 182.00390625 1377.99902344 l 1
 130.00390625 1600.66601562 -6.3291015625 1735.99902344 -226.99609375 1783.99902344 c 0
 -282.99609375 1795.99902344 -340.329101562 1801.99902344 -398.99609375 1801.99902344 c 0
 -532.99609375 1801.99902344 -644.99609375 1772.66601562 -734.99609375 1713.99902344 c 1
 -744.99609375 1699.33203125 -749.99609375 1686.33203125 -749.99609375 1674.99902344 c 0
 -749.99609375 1643.66601562 -688.99609375 1627.33300781 -566.99609375 1626 c 0
 -407.663085938 1623.33300781 -294.330078125 1609 -226.997070312 1583 c 0
 -106.330078125 1536.33300781 -46.330078125 1443.66601562 -46.9970703125 1304.99902344 c 1
 -59.6640625 1274.99902344 -82.3310546875 1259.99902344 -114.998046875 1259.99902344 c 0
 -134.998046875 1259.99902344 -151.331054688 1269.99902344 -163.998046875 1289.99902344 c 1
 -174.665039062 1363.99902344 -186.33203125 1411.33203125 -198.999023438 1431.99902344 c 0
 -218.999023438 1461.99902344 -260.666015625 1482.33203125 -323.999023438 1492.99902344 c 0
 -360.666015625 1499.66601562 -441.666015625 1503.66601562 -566.999023438 1504.99902344 c 0
 -669.666015625 1506.33203125 -741.333007812 1517.33203125 -782 1537.99902344 c 0
 -838.666992188 1563.99902344 -865 1613.66601562 -861 1686.99902344 c 0
 -860.333007812 1690.33203125 -860 1693.33203125 -860 1695.99902344 c 0
 -853.333007812 1770.66601562 -800 1827.33300781 -700 1866 c 0
 -620 1897.33300781 -519.666992188 1913 -399 1913 c 0
 -325.666992188 1913 -259.666992188 1906.66699219 -201 1894 c 0
EndSplineSet
EndChar

StartChar: u09c1
Encoding: 2497 2497 153
Width: 12
GlyphClass: 2
Flags: W
LayerCount: 2
Fore
SplineSet
-459 -106 m 0
 -459 -151.333007812 -431.66796875 -174 -377.000976562 -174 c 0
 -356.333984375 -174 -333.666992188 -162 -309 -138 c 0
 -284.333007812 -114 -267.333007812 -88.3330078125 -258 -61 c 1
 -302 -43.6669921875 -340.333007812 -35 -373 -35 c 0
 -430.333007812 -35 -459 -58.6669921875 -459 -106 c 0
-543.000976562 -190 m 0
 -563.000976562 -166 -573.001953125 -140.333984375 -573.001953125 -113.000976562 c 0
 -573.001953125 -78.333984375 -558.001953125 -45.333984375 -528.001953125 -14.0009765625 c 0
 -489.334960938 26.666015625 -446.334960938 46.9990234375 -399.001953125 46.9990234375 c 0
 -358.334960938 46.9990234375 -306.001953125 38.9990234375 -242.001953125 22.9990234375 c 1
 -239.334960938 33.666015625 -241.334960938 52.3330078125 -248.001953125 79 c 0
 -251.334960938 92.3330078125 -256.001953125 107.666015625 -262.001953125 124.999023438 c 1
 -154.001953125 124.999023438 l 1
 -128.668945312 81.666015625 -117.3359375 35.9990234375 -120.002929688 -12.0009765625 c 0
 -120.002929688 -16.0009765625 -120.3359375 -19.66796875 -121.002929688 -23.0009765625 c 2
 134.997070312 -154.000976562 l 2
 141.6640625 -158.000976562 144.997070312 -164.66796875 144.997070312 -174.000976562 c 0
 144.997070312 -189.333984375 139.6640625 -204.000976562 128.997070312 -218.000976562 c 0
 119.6640625 -230.66796875 110.331054688 -235.66796875 100.998046875 -233.000976562 c 0
 99.6650390625 -232.333984375 97.998046875 -231.666992188 95.998046875 -231 c 2
 -147.001953125 -111 l 1
 -166.334960938 -154.333007812 -198.66796875 -189 -244.000976562 -215 c 0
 -290.000976562 -241 -338.333984375 -254 -389.000976562 -254 c 0
 -457.66796875 -254 -509.000976562 -232.666992188 -543.000976562 -190 c 0
EndSplineSet
EndChar

StartChar: u09c2
Encoding: 2498 2498 154
Width: 12
GlyphClass: 2
Flags: W
LayerCount: 2
Fore
SplineSet
-332 72 m 0
 -304.666992188 80 -276.66796875 79.9970703125 -248.000976562 71.9970703125 c 1
 -250.66796875 90.6640625 -255.334960938 108.331054688 -262.001953125 124.998046875 c 1
 -154.001953125 124.998046875 l 1
 -134.668945312 100.331054688 -124.3359375 74.3310546875 -123.002929688 46.998046875 c 0
 -122.3359375 31.6650390625 -127.3359375 17.33203125 -138.002929688 3.9990234375 c 0
 -143.3359375 -3.333984375 -150.668945312 -10.0009765625 -160.001953125 -16.0009765625 c 0
 -184.001953125 -34.0009765625 -204.334960938 -41.66796875 -221.001953125 -39.0009765625 c 0
 -244.334960938 -32.333984375 -265.66796875 -29.0009765625 -285.000976562 -29.0009765625 c 0
 -332.333984375 -29.0009765625 -364.333984375 -48.0009765625 -381.000976562 -86.0009765625 c 1
 -378.333984375 -126.66796875 -355.000976562 -147.000976562 -311.000976562 -147.000976562 c 0
 -273.000976562 -147.000976562 -232.000976562 -134.333984375 -188.000976562 -109.000976562 c 0
 -171.333984375 -99.0009765625 -157.000976562 -95.66796875 -145.000976562 -99.0009765625 c 0
 -139.000976562 -100.333984375 -133.66796875 -103.666992188 -129.000976562 -109 c 2
 181.999023438 -315 l 2
 185.999023438 -322.333007812 187.999023438 -330 187.999023438 -338 c 0
 187.999023438 -351.333007812 182.33203125 -364 170.999023438 -376 c 0
 159.666015625 -388.666992188 145.666015625 -395 128.999023438 -395 c 1
 -156.000976562 -209 l 1
 -207.333984375 -233.666992188 -258.333984375 -246 -309.000976562 -246 c 0
 -392.333984375 -246 -447.666992188 -211.666992188 -475 -143 c 0
 -479 -127 -481 -110.666992188 -481 -94 c 0
 -481 -12 -431.333007812 43.3330078125 -332 72 c 0
EndSplineSet
EndChar

StartChar: u09c3
Encoding: 2499 2499 155
Width: 12
GlyphClass: 2
Flags: W
LayerCount: 2
Fore
SplineSet
-199 125 m 1
 -181 129 -166.500976562 125.5 -155.500976562 114.5 c 0
 -144.500976562 103.5 -139.000976562 90.6669921875 -139.000976562 76 c 0
 -139.000976562 64.6669921875 -143.333984375 55 -152.000976562 47 c 2
 -350.000976562 -68 l 1
 -37.0009765625 -324 l 2
 -30.333984375 -332 -27.0009765625 -340.666992188 -27.0009765625 -350 c 0
 -27.0009765625 -380 -44.0009765625 -395 -78.0009765625 -395 c 0
 -83.333984375 -395 -88.6669921875 -394.333007812 -94 -393 c 2
 -459 -102 l 2
 -469.666992188 -92.6669921875 -475 -80.6669921875 -475 -66 c 0
 -475 -49.3330078125 -469 -35 -457 -23 c 1
 -199 125 l 1
EndSplineSet
EndChar

StartChar: u09c4
Encoding: 2500 2500 156
Width: 0
GlyphClass: 2
Flags: W
LayerCount: 2
Fore
SplineSet
-497 -50 m 1
 -497.001953125 -54 l 2
 -497.001953125 -65.3330078125 -501.334960938 -75 -510.001953125 -83 c 1
 -215.001953125 -324 l 2
 -208.334960938 -332 -205.001953125 -340.666992188 -205.001953125 -350 c 0
 -205.001953125 -380 -222.001953125 -395 -256.001953125 -395 c 0
 -261.334960938 -395 -266.66796875 -394.333007812 -272.000976562 -393 c 2
 -597.000976562 -134 l 1
 -708.000976562 -198 l 1
 -395.000976562 -454 l 2
 -388.333984375 -462 -385.000976562 -470.666992188 -385.000976562 -480 c 0
 -385.000976562 -510 -402.000976562 -525 -436.000976562 -525 c 0
 -441.333984375 -525 -446.666992188 -524.333007812 -452 -523 c 2
 -817 -232 l 2
 -827.666992188 -222.666992188 -833 -210.666992188 -833 -196 c 0
 -833 -179.333007812 -827 -165 -815 -153 c 1
 -653 -60 l 1
 -651.666992188 -46 -645.666992188 -33.6669921875 -635 -23 c 2
 -377 125 l 1
 -359 129 -344.5 125.5 -333.5 114.5 c 0
 -322.5 103.5 -317 90.6669921875 -317 76 c 0
 -317 64.6669921875 -321.333007812 55 -330 47 c 2
 -497 -50 l 1
EndSplineSet
EndChar

StartChar: u09c7
Encoding: 2503 2503 157
Width: 650
GlyphClass: 2
Flags: W
LayerCount: 2
Fore
SplineSet
649 1368 m 1
 649.000976562 1257.00097656 l 1
 575.000976562 1245.00097656 510.66796875 1230.33398438 456.000976562 1213.00097656 c 0
 382.66796875 1188.33398438 316.66796875 1141.66699219 258.000976562 1073 c 0
 169.333984375 969.666992188 125.000976562 830.666992188 125.000976562 656 c 0
 125.000976562 544 147.333984375 447.666992188 192.000976562 367 c 0
 244.000976562 277 319.000976562 219.666992188 417.000976562 195 c 0
 432.333984375 191 449.666992188 189.666992188 469 191 c 2
 489 193 l 2
 525.666992188 199.666992188 549 203 559 203 c 0
 601 203 622 184 622 146 c 0
 622 128 616 113.666992188 604 103 c 1
 571.333007812 89 550 81.3330078125 540 80 c 0
 511.333007812 74.6669921875 483.333007812 72 456 72 c 0
 328 72 221 130 135 246 c 0
 54.3330078125 354 11.3330078125 479 6 621 c 0
 0.6669921875 741 20.6669921875 856.666992188 66 968 c 0
 88.6669921875 1024 117.666992188 1079 153 1133 c 1
 207 1198.33300781 274 1238 354 1252 c 1
 -14 1252 l 1
 -14 1368 l 1
 649 1368 l 1
EndSplineSet
Substitution2: "'init' Initial Forms in Bengali lookup 0 subtable" u09c7.init
EndChar

StartChar: u09c8
Encoding: 2504 2504 158
Width: 613
GlyphClass: 2
Flags: W
LayerCount: 2
Fore
SplineSet
610 1378 m 1
 610.000976562 1249 l 1
 498.000976562 1249 401.000976562 1212.66699219 319.000976562 1140 c 0
 237.000976562 1066.66699219 180.333984375 961.666992188 149.000976562 825 c 0
 135.66796875 767.666992188 129.000976562 708.333984375 129.000976562 647.000976562 c 0
 129.000976562 539.000976562 148.66796875 445.000976562 188.000976562 365.000976562 c 0
 233.333984375 273.000976562 298.333984375 212.000976562 383.000976562 182.000976562 c 0
 411.66796875 176.000976562 437.66796875 174.333984375 461.000976562 177.000976562 c 0
 473.000976562 179.000976562 484.333984375 182.000976562 495.000976562 186.000976562 c 0
 507.66796875 188.66796875 519.334960938 190.000976562 530.001953125 190.000976562 c 0
 571.334960938 190.000976562 592.001953125 171.66796875 592.001953125 135.000976562 c 0
 592.001953125 121.66796875 588.334960938 108.000976562 581.001953125 94.0009765625 c 1
 536.334960938 62.66796875 496.334960938 49.66796875 461.001953125 55.0009765625 c 1
 361.001953125 52.333984375 275.668945312 79.6669921875 205.001953125 137 c 0
 169.668945312 166.333007812 138.001953125 203.333007812 110.001953125 248 c 0
 39.3349609375 361.333007812 4.001953125 498.333007812 4.001953125 659 c 0
 4.001953125 716.333007812 8.6689453125 770.333007812 18.001953125 821 c 0
 67.3349609375 1067 161.66796875 1210.66699219 301.000976562 1252 c 1
 -22.9990234375 1252 l 1
 -22.9990234375 1378 l 1
 370.000976562 1378 l 1
 343.333984375 1428.66699219 293.000976562 1464.33398438 219.000976562 1485.00097656 c 0
 182.333984375 1495.66796875 108.000976562 1502.33496094 -3.9990234375 1505.00195312 c 0
 -107.999023438 1506.33496094 -187.999023438 1518.66796875 -243.999023438 1542.00097656 c 0
 -325.999023438 1576.00097656 -366.999023438 1640.33398438 -366.999023438 1735.00097656 c 0
 -366.999023438 1755.00097656 -359.999023438 1815.00097656 -345.999023438 1915.00097656 c 1
 -328.666015625 1925.66796875 -310.333007812 1931.00097656 -291 1931.00097656 c 0
 -262.333007812 1931.00097656 -238.333007812 1920.00097656 -219 1898.00097656 c 1
 -235.666992188 1828.66796875 -244 1779.66796875 -244 1751.00097656 c 0
 -244 1678.33398438 -195.333007812 1639.33398438 -98 1634.00097656 c 0
 109.333007812 1623.33398438 234 1611.66699219 276 1599 c 0
 388 1569 468 1495.33300781 516 1378 c 1
 610 1378 l 1
EndSplineSet
Substitution2: "'init' Initial Forms in Bengali lookup 0 subtable" u09c8.init
EndChar

